<svg width="12" height="12" viewBox="0 0 12 12" fill="none" xmlns="http://www.w3.org/2000/svg">
<g id="ant-design:star-filled">
<path id="Vector" d="M10.6415 4.13792L7.66615 3.7055L6.33608 1.00901C6.29975 0.935185 6.23998 0.875419 6.16615 0.839091C5.981 0.747685 5.756 0.823857 5.66342 1.00901L4.33334 3.7055L1.35795 4.13792C1.27592 4.14964 1.20092 4.18831 1.1435 4.2469C1.07408 4.31825 1.03582 4.41425 1.03714 4.51379C1.03846 4.61333 1.07924 4.70828 1.15053 4.77776L3.30326 6.87659L2.79467 9.84026C2.78274 9.9092 2.79037 9.98011 2.81669 10.0449C2.84301 10.1098 2.88697 10.1659 2.94358 10.207C3.00019 10.2481 3.06719 10.2726 3.13697 10.2776C3.20676 10.2825 3.27655 10.2679 3.33842 10.2352L5.99975 8.83597L8.66108 10.2352C8.73373 10.2739 8.81811 10.2867 8.89897 10.2727C9.10287 10.2375 9.23998 10.0442 9.20483 9.84026L8.69623 6.87659L10.849 4.77776C10.9076 4.72034 10.9462 4.64534 10.958 4.56331C10.9896 4.35823 10.8466 4.16839 10.6415 4.13792Z" fill="white"/>
</g>
</svg>
