<svg width="20" height="20" viewBox="0 0 20 20" fill="none" xmlns="http://www.w3.org/2000/svg">
<g id="copy" clip-path="url(#clip0_519_3331)">
<path id="Icon" d="M4.16675 12.5013H3.33341C2.89139 12.5013 2.46746 12.3257 2.1549 12.0131C1.84234 11.7006 1.66675 11.2767 1.66675 10.8346V3.33464C1.66675 2.89261 1.84234 2.46868 2.1549 2.15612C2.46746 1.84356 2.89139 1.66797 3.33341 1.66797H10.8334C11.2754 1.66797 11.6994 1.84356 12.0119 2.15612C12.3245 2.46868 12.5001 2.89261 12.5001 3.33464V4.16797M9.16675 7.5013H16.6667C17.5872 7.5013 18.3334 8.24749 18.3334 9.16797V16.668C18.3334 17.5884 17.5872 18.3346 16.6667 18.3346H9.16675C8.24627 18.3346 7.50008 17.5884 7.50008 16.668V9.16797C7.50008 8.24749 8.24627 7.5013 9.16675 7.5013Z" stroke="#344054" stroke-width="1.67" stroke-linecap="round" stroke-linejoin="round"/>
</g>
<defs>
<clipPath id="clip0_519_3331">
<rect width="20" height="20" fill="white"/>
</clipPath>
</defs>
</svg>
