<svg width="15" height="15" viewBox="0 0 15 15" fill="none" xmlns="http://www.w3.org/2000/svg">
<g id="Group">
<path id="Vector" d="M3.25 4.25H2.5C2.10218 4.25 1.72064 4.40804 1.43934 4.68934C1.15804 4.97064 1 5.35218 1 5.75V12.5C1 12.8978 1.15804 13.2794 1.43934 13.5607C1.72064 13.842 2.10218 14 2.5 14H9.25C9.64782 14 10.0294 13.842 10.3107 13.5607C10.592 13.2794 10.75 12.8978 10.75 12.5V11.75" stroke="#1C1C1E" stroke-width="1.5" stroke-linecap="round" stroke-linejoin="round"/>
<path id="Vector_2" d="M10 2.75008L12.25 5.00008M13.2888 3.93883C13.5841 3.64345 13.7501 3.24282 13.7501 2.82508C13.7501 2.40734 13.5841 2.00672 13.2888 1.71133C12.9934 1.41595 12.5927 1.25 12.175 1.25C11.7573 1.25 11.3566 1.41595 11.0613 1.71133L4.75 8.00008V10.2501H7L13.2888 3.93883Z" stroke="#1C1C1E" stroke-width="1.5" stroke-linecap="round" stroke-linejoin="round"/>
</g>
</svg>
