<svg width="16" height="17" viewBox="0 0 16 17" fill="none" xmlns="http://www.w3.org/2000/svg">
<g id="eye open" clip-path="url(#clip0_493_10848)">
<path id="Vector" d="M8.055 5.52364C6.39825 5.52364 5.055 6.86689 5.055 8.52364C5.055 10.1801 6.39825 11.5236 8.055 11.5236C9.71175 11.5236 11.055 10.1804 11.055 8.52364C11.055 6.86689 9.71175 5.52364 8.055 5.52364ZM8.055 10.5236C6.95225 10.5236 6.03198 9.60464 6.03198 8.50187C6.03198 7.39911 6.92923 6.50188 8.03198 6.50188C9.13498 6.50188 10.032 7.39913 10.032 8.50187C10.032 9.60462 9.158 10.5236 8.055 10.5236ZM15.9958 8.38564C15.99 8.36039 15.9925 8.33369 15.985 8.30892C15.9817 8.29844 15.9752 8.29244 15.9715 8.28319C15.9662 8.26894 15.9675 8.25219 15.9602 8.23844C14.506 4.90869 11.3718 2.99219 8.03176 2.99219C4.69176 2.99219 1.49477 4.90519 0.0397656 8.23519C0.0335156 8.2492 0.0345156 8.26369 0.0295 8.2797C0.0260156 8.28945 0.0187656 8.29494 0.0155156 8.30419C0.00776562 8.32944 0.0107656 8.35569 0.00601562 8.38119C-0.00321875 8.42619 -0.0117188 8.46994 -0.0117188 8.51544C-0.0117188 8.56144 -0.00321875 8.60394 0.00601562 8.64967C0.0110156 8.67467 0.00778125 8.70192 0.0155312 8.72592C0.0187812 8.73717 0.0260312 8.74192 0.0295156 8.75217C0.0347656 8.76592 0.0335156 8.78292 0.0397656 8.79667C1.49502 12.1257 4.66076 14.0109 8.00076 14.0109C11.341 14.0109 14.506 12.1297 15.9608 8.79991C15.968 8.78566 15.9665 8.77066 15.972 8.75491C15.9755 8.74616 15.9822 8.73966 15.9853 8.72991C15.993 8.70541 15.9905 8.67866 15.996 8.65316C16.0048 8.60841 16.013 8.56466 16.013 8.51841C16.013 8.47441 16.0048 8.43091 15.9958 8.38564ZM8.00075 13.0109C5.168 13.0109 2.37977 11.5177 1.00977 8.51592C2.36677 5.52417 5.19226 3.99242 8.03201 3.99242C10.8708 3.99242 13.6335 5.52592 14.991 8.51917C13.6345 11.5099 10.8405 13.0109 8.00075 13.0109Z" fill="#636366"/>
</g>
<defs>
<clipPath id="clip0_493_10848">
<rect width="16" height="16" fill="white" transform="translate(0 0.5)"/>
</clipPath>
</defs>
</svg>
