<svg width="18" height="18" viewBox="0 0 18 18" fill="none" xmlns="http://www.w3.org/2000/svg">
<g id="icon">
<path id="Vector" d="M6.98203 5.03282C6.9125 5.10221 6.85734 5.18462 6.8197 5.27535C6.78207 5.36608 6.7627 5.46335 6.7627 5.56157C6.7627 5.6598 6.78207 5.75706 6.8197 5.84779C6.85734 5.93852 6.9125 6.02094 6.98203 6.09032L9.89203 9.00032L6.98203 11.9103C6.8418 12.0506 6.76301 12.2408 6.76301 12.4391C6.76301 12.6374 6.8418 12.8276 6.98203 12.9678C7.12226 13.1081 7.31246 13.1868 7.51078 13.1868C7.7091 13.1868 7.8993 13.1081 8.03953 12.9678L11.482 9.52532C11.5516 9.45594 11.6067 9.37352 11.6444 9.28279C11.682 9.19206 11.7014 9.0948 11.7014 8.99657C11.7014 8.89834 11.682 8.80108 11.6444 8.71035C11.6067 8.61962 11.5516 8.53721 11.482 8.46782L8.03953 5.02532C7.75453 4.74032 7.27453 4.74032 6.98203 5.03282Z" fill="#1C1C1E"/>
</g>
</svg>
