<svg width="24" height="24" viewBox="0 0 24 24" fill="none" xmlns="http://www.w3.org/2000/svg">
<g id="octicon:location-16">
<path id="Vector" d="M18.8941 17.3949L13.5916 22.6989C13.3827 22.908 13.1346 23.0738 12.8615 23.187C12.5884 23.3001 12.2957 23.3584 12.0001 23.3584C11.7045 23.3584 11.4118 23.3001 11.1387 23.187C10.8657 23.0738 10.6176 22.908 10.4086 22.6989L5.10612 17.3949C4.20069 16.4895 3.48244 15.4147 2.99239 14.2318C2.50233 13.0489 2.25007 11.7811 2.25 10.5006C2.24993 9.22025 2.50206 7.95237 2.99198 6.7694C3.48191 5.58643 4.20004 4.51155 5.10537 3.60612C6.0107 2.70069 7.08551 1.98244 8.26842 1.49239C9.45133 1.00233 10.7192 0.75007 11.9996 0.75C13.28 0.74993 14.5479 1.00206 15.7308 1.49198C16.9138 1.98191 17.9887 2.70004 18.8941 3.60537C19.7996 4.51076 20.5179 5.58565 21.008 6.76866C21.4981 7.95166 21.7503 9.21962 21.7503 10.5001C21.7503 11.7806 21.4981 13.0486 21.008 14.2316C20.5179 15.4146 19.7996 16.4895 18.8941 17.3949ZM17.3041 5.19687C15.8974 3.79016 13.9895 2.99838 12.0001 2.99838C10.0107 2.99838 8.10283 3.78866 6.69612 5.19537C5.28941 6.60208 4.49913 8.50998 4.49913 10.4994C4.49913 12.4888 5.28941 14.3967 6.69612 15.8034L12.0001 21.1059L17.3041 15.8049C18.0008 15.1084 18.5534 14.2815 18.9304 13.3715C19.3075 12.4614 19.5015 11.4859 19.5015 10.5009C19.5015 9.51579 19.3075 8.54036 18.9304 7.63029C18.5534 6.72022 18.0008 5.89333 17.3041 5.19687ZM12.0001 13.5009C11.6006 13.5099 11.2033 13.439 10.8316 13.2924C10.4598 13.1458 10.1211 12.9264 9.83536 12.6471C9.54958 12.3677 9.32249 12.0341 9.16741 11.6659C9.01233 11.2976 8.9324 10.902 8.9323 10.5024C8.9322 10.1028 9.01193 9.70717 9.16683 9.3388C9.32172 8.97043 9.54865 8.63672 9.83429 8.35726C10.1199 8.07779 10.4585 7.85822 10.8302 7.71141C11.2019 7.56461 11.5991 7.49353 11.9986 7.50237C12.7825 7.5197 13.5284 7.84321 14.0767 8.40363C14.625 8.96405 14.9321 9.71685 14.9323 10.5009C14.9325 11.2849 14.6257 12.0379 14.0777 12.5986C13.5297 13.1593 12.784 13.4831 12.0001 13.5009Z" fill="black"/>
</g>
</svg>
