<svg width="500" height="500" viewBox="0 0 500 500" fill="none" xmlns="http://www.w3.org/2000/svg">
<path d="M402.071 401.336H437.229V390.146H402.071V401.336Z" fill="#EBEBEB"/>
<path d="M188.388 220.965H223.546V209.775H188.388V220.965Z" fill="#EBEBEB"/>
<path d="M421.683 415.445C427.522 415.346 442.494 415.097 448.13 415.032L456.841 414.989L456.385 415.445L456.341 404.255L456.84 404.754C451.002 404.736 436.113 404.682 430.472 404.601L421.683 404.492L421.92 404.255L421.683 415.445ZM421.683 415.445L421.446 404.255L421.441 404.021L421.683 404.018C426.069 403.96 434.877 403.859 439.262 403.824L456.841 403.756L457.343 403.754L457.341 404.255L457.297 415.445L457.295 415.903L456.841 415.901L447.973 415.858C442.372 415.796 427.467 415.544 421.683 415.445Z" fill="#EBEBEB"/>
<path d="M254.499 332.027C260.338 331.928 275.31 331.679 280.946 331.614L289.657 331.571L289.201 332.027L289.157 320.837L289.656 321.336C283.818 321.318 268.928 321.264 263.288 321.183L254.499 321.074L254.736 320.837L254.499 332.027ZM254.499 332.027L254.262 320.837L254.257 320.603L254.499 320.6C258.885 320.542 267.694 320.441 272.078 320.406L289.657 320.338L290.158 320.336L290.156 320.837L290.112 332.027L290.11 332.485L289.656 332.483L280.788 332.44C275.187 332.379 260.283 332.126 254.499 332.027Z" fill="#EBEBEB"/>
<path d="M274.111 346.14C279.95 346.041 294.922 345.792 300.558 345.727L309.269 345.684L308.813 346.14L308.769 334.95L309.268 335.449C303.43 335.431 288.54 335.377 282.9 335.296L274.111 335.187L274.348 334.95L274.111 346.14ZM274.111 346.14L273.874 334.95L273.869 334.716L274.111 334.713C278.497 334.655 287.306 334.554 291.69 334.519L309.269 334.451L309.77 334.449L309.768 334.95L309.724 346.14L309.722 346.598L309.268 346.596L300.4 346.553C294.799 346.492 279.895 346.239 274.111 346.14Z" fill="#EBEBEB"/>
<path d="M293.646 332.027H328.804V320.837H293.646V332.027Z" fill="#EBEBEB"/>
<path d="M43.1594 415.445H78.3174V404.255H43.1594V415.445Z" fill="#EBEBEB"/>
<path d="M62.7707 56.1211L97.9287 56.1211V44.9311H62.7707V56.1211Z" fill="#EBEBEB"/>
<path d="M43.159 70.2311L60.859 69.9381L69.606 69.8181L78.317 69.7751L77.861 70.2311L77.817 59.0411L78.316 59.5401L60.737 59.4721L51.948 59.3871L43.16 59.2781L43.397 59.0411L43.159 70.2311ZM43.159 70.2311L42.922 59.0411L42.917 58.8061L43.16 58.8031L51.949 58.6941L60.738 58.6091L78.317 58.5411L78.818 58.5391L78.816 59.0411L78.772 70.2311L78.77 70.6891L78.316 70.6871L69.448 70.6441L60.616 70.5241L43.159 70.2311Z" fill="#EBEBEB"/>
<path d="M402.071 56.1217L419.771 55.8287L428.518 55.7087L437.229 55.6657L436.773 56.1217L436.729 44.9317L437.228 45.4307L419.649 45.3627L410.86 45.2777L402.071 45.1687L402.308 44.9317L402.071 56.1217ZM402.071 56.1217L401.834 44.9317L401.829 44.6967L402.071 44.6937L410.86 44.5847L419.649 44.4997L437.228 44.4317L437.73 44.4297L437.728 44.9307L437.684 56.1207L437.682 56.5787L437.228 56.5767L428.36 56.5337L419.528 56.4137L402.071 56.1217Z" fill="#EBEBEB"/>
<path d="M332.037 441.431H448.802L452.557 367.34H328.281L332.037 441.431Z" fill="#EBEBEB"/>
<path d="M336.477 375.988H441.41L439.817 400.798H337.842L336.477 375.988Z" stroke="#DBDBDB" stroke-miterlimit="10"/>
<path d="M339.69 408.082L340.8 430.389H438.422L439.816 408.082H339.69Z" stroke="#DBDBDB" stroke-miterlimit="10"/>
<path d="M400.252 390.726H379.254L378.571 385.434H400.935L400.252 390.726Z" stroke="#DBDBDB" stroke-miterlimit="10"/>
<path d="M400.252 421.882H379.254L378.571 416.59H400.935L400.252 421.882Z" stroke="#DBDBDB" stroke-miterlimit="10"/>
<path d="M348.23 441.43L347.096 449.501L344.816 465.719H340.356V441.43H348.23Z" fill="#EBEBEB"/>
<path d="M348.23 441.43L347.096 449.501H340.356V441.43H348.23Z" fill="#DBDBDB"/>
<path d="M432.609 441.43L433.742 449.501L436.023 465.719H440.482V441.43H432.609Z" fill="#EBEBEB"/>
<path d="M432.609 441.43L433.742 449.501H440.482V441.43H432.609Z" fill="#DBDBDB"/>
<path d="M458.729 38.5938H291.672V182.234H458.729V38.5938Z" stroke="#EBEBEB" stroke-miterlimit="10"/>
<path d="M299.552 43.626C299.552 44.755 298.637 45.67 297.508 45.67C296.379 45.67 295.464 44.755 295.464 43.626C295.464 42.497 296.379 41.582 297.508 41.582C298.637 41.581 299.552 42.496 299.552 43.626Z" fill="#A6A6A6"/>
<path d="M307.9 43.626C307.9 44.755 306.984 45.67 305.855 45.67C304.726 45.67 303.812 44.755 303.812 43.626C303.812 42.497 304.726 41.582 305.855 41.582C306.984 41.581 307.9 42.496 307.9 43.626Z" fill="#EBEBEB"/>
<path d="M316.247 43.626C316.247 44.755 315.332 45.67 314.203 45.67C313.074 45.67 312.159 44.755 312.159 43.626C312.159 42.497 313.074 41.582 314.203 41.582C315.332 41.581 316.247 42.496 316.247 43.626Z" fill="#DD9183"/>
<path d="M291.672 48.6133H458.729" stroke="#EBEBEB" stroke-miterlimit="10"/>
<path d="M401.835 354.735C402.653 360.336 402.348 366.113 400.982 371.596C400.341 374.163 399.46 376.638 398.399 379.05C397.058 382.135 395.656 385.147 395.994 388.522C396.32 388.74 395.202 388.704 395.166 388.376C386.146 383.241 374.579 382.3 367.637 373.903C364.349 369.927 362.691 364.887 361.904 359.847C361.05 354.359 360.813 348.282 362.229 342.872C363.422 338.297 366.096 333.884 370.395 331.642C374.833 329.334 380.645 329.526 385.317 330.977C395.397 334.108 400.409 344.985 401.835 354.735Z" fill="#DD9183"/>
<path d="M406.465 421.506C405.233 417.403 404.004 413.3 402.74 409.207C400.265 401.19 397.692 393.203 394.844 385.31C393.138 380.582 391.339 375.9 389.445 371.263C389.768 368.35 389.895 365.447 390.522 362.544C391.276 359.047 392.372 355.669 393.392 352.247C393.455 352.037 393.114 351.926 393.028 352.126C391.003 356.841 388.36 362.873 388.294 368.458C386.092 363.211 383.738 358.035 381.205 352.94C381.062 348.596 380.903 344.387 381.602 340.016C381.633 339.819 381.334 339.761 381.298 339.957C380.62 343.627 380.143 347.563 380.415 351.366C378.476 347.538 376.434 343.756 374.26 340.033C374.064 339.698 373.6 340.041 373.772 340.371C377.162 346.898 380.306 353.562 383.256 360.314C379.17 356.69 374.222 353.947 369.114 352.124C368.889 352.044 368.72 352.369 368.949 352.465C374.762 354.895 379.643 358.33 384.245 362.592C386.366 367.536 388.385 372.524 390.308 377.544C384.664 372.011 376.941 368.371 369.47 366.419C369.215 366.353 369.148 366.742 369.393 366.816C378.039 369.419 384.755 374.321 391.33 380.209C392.094 382.24 392.844 384.275 393.579 386.313C396.365 394.043 399.005 401.825 401.537 409.642C402.751 413.389 403.945 417.142 405.118 420.902C406.38 424.947 407.366 429.218 409.008 433.124C409.165 433.497 409.835 433.412 409.75 432.965C409.009 429.089 407.599 425.282 406.465 421.506Z" fill="#263238"/>
<path d="M391.502 346.838C389.886 349.315 388.807 352.037 388.253 354.936C388.239 355.01 388.355 355.054 388.382 354.979C389.387 352.251 390.569 349.616 391.904 347.034C392.041 346.77 391.654 346.604 391.502 346.838Z" fill="#263238"/>
<path d="M375.411 365.633C373.076 364.305 369.977 363.257 367.316 362.907C367.243 362.897 367.197 363.005 367.273 363.037C368.574 363.577 369.942 363.954 371.259 364.46C372.582 364.968 373.871 365.585 375.208 366.05C375.486 366.148 375.676 365.784 375.411 365.633Z" fill="#263238"/>
<path d="M370.878 343.026C370.058 342.483 369.185 341.786 368.274 341.418C368.131 341.36 368.006 341.537 368.124 341.646C368.846 342.311 369.852 342.805 370.691 343.311C370.856 343.411 371.041 343.133 370.878 343.026Z" fill="#263238"/>
<path d="M432.243 385.372C425.747 387.3 419.217 389.083 412.722 390.989C412.158 391.158 401.175 370.114 405.144 359.273C408.812 349.239 417.211 341.729 427.225 338.321C431.864 336.745 437.566 335.422 442.467 336.502C446.824 337.467 449.901 341.032 451.317 345.13C453.246 350.699 452.603 357.342 451.554 363.028C450.579 368.3 448.649 373.493 445.162 377.636C441.71 381.737 437.308 383.871 432.243 385.372Z" fill="#DD9183"/>
<path d="M441.662 365.372C437.526 367.458 433.335 368.969 428.925 370.386C426.163 371.274 423.07 372.075 420.422 373.464C423.165 367.348 426.176 361.359 429.372 355.425C433.569 354.21 437.982 352.316 441.147 349.346C441.32 349.184 441.098 348.941 440.911 349.073C437.449 351.519 433.632 352.988 429.802 354.642C430.667 353.045 431.537 351.45 432.427 349.859C432.675 349.416 432.065 348.976 431.767 349.407C428.362 354.321 425.299 359.528 422.536 364.91C421.851 360.162 421.604 355.536 421.868 350.706C421.875 350.583 421.698 350.573 421.679 350.692C420.876 355.8 420.914 361.206 421.839 366.299C419.561 370.847 417.485 375.505 415.621 380.222C414.88 377.388 413.917 374.599 413.274 371.742C412.349 367.63 411.915 363.441 412.341 359.236C412.353 359.113 412.172 359.104 412.152 359.222C410.892 366.677 412.041 375.096 414.878 382.178C413.792 385.017 412.756 387.868 411.808 390.723C406.957 405.34 403.967 420.41 403.185 435.797C403.167 436.152 403.693 436.188 403.734 435.837C405.499 420.744 408.616 405.72 413.415 391.293C415.299 385.629 417.468 380.13 419.847 374.734C423.684 373.6 427.506 372.062 431.275 370.756C434.952 369.482 438.72 368.009 441.808 365.592C441.928 365.499 441.796 365.304 441.662 365.372Z" fill="#263238"/>
<path d="M447.719 359.259C443.746 360.672 439.98 362.65 436.011 364.083C435.825 364.15 435.933 364.445 436.12 364.406C440.32 363.539 444.485 362.241 447.869 359.487C448 359.381 447.857 359.21 447.719 359.259Z" fill="#263238"/>
<path d="M415.277 350.686C415.325 350.476 415.017 350.354 414.953 350.571C413.863 354.233 413.111 358.12 414.172 361.863C414.214 362.01 414.444 362.014 414.453 361.845C414.643 358.074 414.432 354.404 415.277 350.686Z" fill="#263238"/>
<path d="M431.694 342.228C430.362 343.928 429.883 346.341 429.97 348.456C429.976 348.596 430.199 348.677 430.237 348.512C430.721 346.417 431.531 344.507 432.173 342.472C432.268 342.173 431.883 341.987 431.694 342.228Z" fill="#263238"/>
<path d="M354.97 394.652C356.875 400.696 361.399 409.052 368.567 409.119C373.213 409.163 377.892 408.612 382.549 408.546C387.536 408.469 392.535 408.48 397.511 408.777C397.918 408.799 396.914 393.843 384.927 386.56C381.569 384.52 377.463 383.874 373.653 383.048C369.293 382.101 364.801 381.463 360.331 381.661C357.579 381.771 355.289 382.355 354.309 385.173C353.286 388.124 354.056 391.779 354.97 394.652Z" fill="#DD9183"/>
<path d="M360.127 387.089C363.04 387.838 365.979 388.699 368.902 389.627C368.121 388.818 367.358 387.996 366.487 387.271C365.232 386.227 363.85 385.394 362.504 384.48C362.391 384.403 362.459 384.187 362.603 384.244C365.261 385.289 368.025 387.47 369.672 389.866C373.315 391.043 376.923 392.342 380.396 393.767C382.861 394.778 385.134 395.985 387.263 397.383C386.498 395.904 385.801 394.385 384.778 393.06C383.188 390.998 381.035 389.85 378.953 388.386C378.756 388.248 378.923 387.971 379.14 388.067C383.843 390.157 386.704 393.55 388.488 398.204C390.947 399.958 393.198 402.004 395.287 404.377C403.217 413.385 409.463 425.37 409.486 437.599C409.487 437.89 409.019 437.973 408.962 437.67C406.712 425.522 401.914 414.613 393.838 405.184C393.271 404.522 392.688 403.891 392.094 403.281C389.913 403.052 387.753 402.761 385.542 402.795C382.99 402.834 380.458 403.17 377.918 403.376C373.734 403.716 369.107 403.765 365.332 401.66C365.166 401.567 365.278 401.278 365.465 401.346C373.879 404.406 382.705 400.524 391.139 402.349C387.541 398.898 383.453 396.297 378.701 394.327C378.444 394.22 378.185 394.121 377.927 394.017C372.527 394.666 366.826 396.073 361.567 394.318C361.411 394.266 361.473 394.029 361.636 394.069C366.718 395.338 371.591 393.742 376.606 393.488C371.146 391.362 365.581 389.671 360.102 387.56C359.64 387.382 359.629 386.961 360.127 387.089Z" fill="#263238"/>
<path d="M357.745 392.404C360.381 392.838 362.955 392.852 365.605 392.999C365.665 393.002 365.684 393.094 365.62 393.109C363.035 393.69 360.208 393.332 357.69 392.603C357.56 392.566 357.616 392.383 357.745 392.404Z" fill="#263238"/>
<path d="M375.498 387.222C376.932 387.718 378.266 388.934 379.388 389.927C379.525 390.048 379.341 390.294 379.19 390.183C378.531 389.703 377.852 389.251 377.167 388.808C376.542 388.405 375.844 388.083 375.272 387.609C375.094 387.463 375.285 387.148 375.498 387.222Z" fill="#263238"/>
<path d="M417.82 406.681C417.732 406.879 418.018 407.066 418.128 406.857C418.139 406.857 418.139 406.858 418.139 406.847C418.183 406.902 418.238 406.957 418.326 406.968C423.17 408.014 428.036 409.081 432.969 409.521C436.932 409.873 441.501 410.094 444.969 407.793C449.67 404.677 452.764 396.342 450.22 391.047C447.215 384.761 438.154 388.174 433.607 390.409C426.617 393.823 421.002 399.591 417.82 406.681Z" fill="#DD9183"/>
<path d="M414.305 409.588C416.972 406.979 419.921 404.807 423.048 402.933C425.191 399.294 428.481 396.272 431.914 393.897C432.086 393.778 432.233 394.05 432.075 394.172C429.115 396.451 426.804 399.124 424.604 402.031C428.102 400.079 431.801 398.472 435.573 397.042C436.887 394.633 439.026 392.379 441.465 391.138C441.514 391.113 441.576 391.181 441.528 391.219C439.401 392.884 437.694 394.613 436.206 396.804C438.435 395.972 440.686 395.197 442.935 394.451C443.138 394.384 443.214 394.691 443.022 394.766C439.017 396.331 434.923 397.981 430.954 399.885C435.963 400.557 440.473 400.712 445.568 399.842C445.702 399.819 445.761 400.011 445.625 400.05C440.71 401.453 435.074 401.713 430.119 400.281C427.588 401.525 425.117 402.882 422.764 404.4C424.733 404.144 426.713 404.49 428.708 404.886C432.188 405.577 435.592 406.191 439.154 406.069C439.287 406.065 439.322 406.282 439.186 406.306C433.126 407.349 427.396 404.594 421.39 405.311C419.166 406.84 417.062 408.528 415.134 410.42C411.359 414.125 408.339 418.554 406.011 423.292C403.483 428.438 402.111 433.893 400.068 439.209C399.978 439.442 399.654 439.353 399.695 439.106C401.447 428.623 406.667 417.061 414.305 409.588Z" fill="#263238"/>
<path d="M432.582 395.21C432.935 394.487 433.554 393.871 434.134 393.327C434.642 392.851 435.261 392.237 435.923 391.988C435.984 391.965 436.018 392.048 435.982 392.089C435.486 392.653 434.793 393.066 434.258 393.606C433.718 394.15 433.271 394.786 432.724 395.32C432.647 395.394 432.537 395.301 432.582 395.21Z" fill="#263238"/>
<path d="M442.577 398.465C443.475 398.24 444.426 398.256 445.34 398.069C446.264 397.88 447.124 397.55 448.019 397.267C448.137 397.23 448.205 397.402 448.102 397.464C446.627 398.34 444.3 399.085 442.577 398.748C442.433 398.718 442.442 398.499 442.577 398.465Z" fill="#263238"/>
<path d="M389.334 426.191L390.129 435.225L392.829 465.724H416.715L420.087 435.225L421.084 426.191H389.334Z" fill="#37474F"/>
<path d="M389.334 426.191L390.129 435.225H420.087L421.084 426.191H389.334Z" fill="#263238"/>
<path d="M386.969 431.055H423.449V423.727H386.969V431.055Z" fill="#37474F"/>
<path d="M47.4434 465.722L98.0824 465.479L148.721 465.391L250 465.223L351.279 465.39L401.918 465.478L452.557 465.722L401.918 465.967L351.279 466.055L250 466.221L148.721 466.054L98.0824 465.965L47.4434 465.722Z" fill="#263238"/>
<path d="M434.136 56.625H65.8652V289.606H434.136V56.625Z" fill="white"/>
<path d="M434.135 289.605C434.074 289.663 65.7852 289.716 65.7122 289.758C65.6322 289.704 65.6722 56.7152 65.6152 56.6242V56.3752H65.8642C65.9052 56.3392 434.182 56.5532 434.231 56.5272C434.315 56.5812 434.076 289.534 434.135 289.605ZM434.135 289.605C434.155 289.654 433.907 56.1972 434.135 56.7212L65.8652 56.8732L66.1142 56.6242C66.0872 56.5482 66.2192 290.275 65.8662 289.453C65.8652 289.453 434.135 289.605 434.135 289.605Z" fill="#263238"/>
<path d="M434.136 56.625H65.8652V65.59H434.136V56.625Z" fill="#263238"/>
<path d="M74.5104 61.1068C74.5104 62.1048 73.7014 62.9128 72.7044 62.9128C71.7074 62.9128 70.8984 62.1038 70.8984 61.1068C70.8984 60.1098 71.7074 59.3008 72.7044 59.3008C73.7024 59.3008 74.5104 60.1088 74.5104 61.1068Z" fill="#DD9183"/>
<path d="M81.8854 61.1068C81.8854 62.1048 81.0764 62.9128 80.0794 62.9128C79.0814 62.9128 78.2734 62.1038 78.2734 61.1068C78.2734 60.1098 79.0814 59.3008 80.0794 59.3008C81.0764 59.3008 81.8854 60.1088 81.8854 61.1068Z" fill="white"/>
<path d="M89.2604 61.1068C89.2604 62.1048 88.4514 62.9128 87.4544 62.9128C86.4574 62.9128 85.6484 62.1038 85.6484 61.1068C85.6484 60.1098 86.4574 59.3008 87.4544 59.3008C88.4514 59.3008 89.2604 60.1088 89.2604 61.1068Z" fill="#455A64"/>
<path d="M177.352 178.344H139.292V228.253H177.352V178.344Z" fill="#EBEBEB"/>
<path d="M223.191 178.344H185.131V228.253H223.191V178.344Z" fill="#EBEBEB"/>
<path d="M269.03 178.344H230.97V228.253H269.03V178.344Z" fill="#EBEBEB"/>
<path d="M314.869 178.344H276.809V228.253H314.869V178.344Z" fill="#EBEBEB"/>
<path d="M360.707 178.344H322.647V228.253H360.707V178.344Z" fill="#EBEBEB"/>
<path d="M163.822 200.725C165.648 202.513 166.542 204.898 166.542 207.282C166.542 209.63 165.611 212.014 163.822 213.802C162.034 215.628 159.65 216.522 157.302 216.522C157.227 216.522 157.227 216.522 157.227 216.522C154.917 216.522 152.496 215.628 150.744 213.802C149.887 213.019 149.887 211.678 150.744 210.821C151.527 210.002 152.905 210.002 153.725 210.821C154.693 211.828 155.96 212.311 157.302 212.311C158.568 212.311 159.873 211.827 160.841 210.821C161.81 209.852 162.331 208.549 162.331 207.282C162.331 205.941 161.847 204.675 160.841 203.706C159.872 202.699 158.605 202.252 157.302 202.252C156.035 202.252 154.693 202.699 153.725 203.706C152.905 204.525 151.564 204.525 150.744 203.706C150.595 203.557 150.483 203.37 150.334 203.221C150.334 203.147 150.334 203.109 150.297 203.109C150.297 203.034 150.26 202.96 150.222 202.923C150.222 202.811 150.185 202.737 150.185 202.662C150.185 202.625 150.148 202.625 150.148 202.587C150.111 202.364 150.111 202.14 150.148 201.954L151.265 192.305C151.377 191.672 151.712 191.15 152.196 190.814C152.271 190.777 152.308 190.777 152.345 190.739C152.382 190.702 152.42 190.702 152.457 190.664C152.755 190.516 153.053 190.441 153.426 190.441H164.417C165.609 190.441 166.54 191.372 166.54 192.565C166.54 193.683 165.609 194.652 164.417 194.652H155.251L154.804 198.34C155.624 198.117 156.481 198.005 157.301 198.005C159.65 198.005 162.034 198.899 163.822 200.725Z" fill="#C7C7C7"/>
<path d="M209.648 200.689C211.473 202.477 212.367 204.861 212.367 207.209C212.367 209.555 211.473 211.94 209.648 213.766C207.859 215.554 205.475 216.486 203.091 216.486C200.744 216.486 198.359 215.554 196.571 213.766C195.752 212.947 195.752 211.605 196.571 210.785C197.391 209.966 198.732 209.966 199.552 210.785C200.521 211.754 201.788 212.237 203.091 212.237C204.395 212.237 205.661 211.753 206.668 210.785C207.674 209.78 208.158 208.512 208.158 207.209C208.158 205.905 207.674 204.637 206.668 203.669C205.699 202.663 204.433 202.216 203.129 202.18C202.533 202.217 201.974 201.956 201.601 201.509C201.564 201.509 201.564 201.509 201.564 201.472C200.707 200.652 200.707 199.348 201.489 198.491L205.289 194.616H199.253C198.098 194.616 197.167 193.685 197.167 192.492C197.167 191.337 198.098 190.406 199.253 190.406H210.244C211.436 190.406 212.368 191.337 212.368 192.492C212.368 192.864 212.257 193.2 212.107 193.499C211.996 193.685 211.884 193.871 211.735 194.02L207.041 198.864C208.008 199.31 208.902 199.907 209.648 200.689Z" fill="#C7C7C7"/>
<path d="M255.487 200.689C257.312 202.477 258.206 204.861 258.206 207.209C258.206 209.555 257.312 211.94 255.487 213.766C253.698 215.554 251.313 216.486 248.929 216.486C246.582 216.486 244.198 215.554 242.409 213.766C241.59 212.947 241.59 211.605 242.409 210.785C243.229 209.966 244.57 209.966 245.39 210.785C246.359 211.754 247.626 212.237 248.929 212.237C250.233 212.237 251.5 211.753 252.506 210.785C253.511 209.78 253.996 208.512 253.996 207.209C253.996 205.905 253.511 204.637 252.506 203.669C251.537 202.663 250.271 202.216 248.967 202.18C248.371 202.217 247.812 201.956 247.439 201.509C247.402 201.509 247.402 201.509 247.402 201.472C246.545 200.652 246.545 199.348 247.327 198.491L251.127 194.616H245.092C243.937 194.616 243.005 193.685 243.005 192.492C243.005 191.337 243.937 190.406 245.092 190.406H256.082C257.275 190.406 258.206 191.337 258.206 192.492C258.206 192.864 258.094 193.2 257.945 193.499C257.834 193.685 257.722 193.871 257.573 194.02L252.879 198.864C253.847 199.31 254.741 199.907 255.487 200.689Z" fill="#C7C7C7"/>
<path d="M304.743 207.658C304.743 212.538 300.756 216.525 295.876 216.525C290.958 216.525 286.934 212.539 286.934 207.658C286.934 204.566 288.499 201.846 290.921 200.244C290.138 199.237 289.691 197.933 289.691 196.555C289.691 193.202 292.448 190.445 295.876 190.445C299.229 190.445 301.986 193.202 301.986 196.555C301.986 197.933 301.539 199.237 300.757 200.244C303.141 201.845 304.743 204.565 304.743 207.658ZM300.682 207.658C300.682 205.013 298.521 202.814 295.876 202.814C293.193 202.814 291.032 205.012 290.995 207.658C291.032 210.303 293.193 212.464 295.876 212.464C298.521 212.463 300.682 210.303 300.682 207.658ZM293.753 196.555C293.753 197.71 294.684 198.679 295.877 198.679C296.994 198.679 297.926 197.71 297.926 196.555C297.926 195.437 296.995 194.506 295.877 194.506C294.684 194.506 293.753 195.437 293.753 196.555Z" fill="#C7C7C7"/>
<path d="M277.062 245.719H222.938V262.674H277.062V245.719Z" fill="#DD9183"/>
<path d="M234.474 255.512C234.625 255.327 234.901 255.302 235.086 255.453C235.454 255.754 236.091 256.107 236.686 256.1C237.105 256.1 237.482 255.973 237.734 255.789C237.985 255.604 238.094 255.395 238.094 255.186C238.094 255.078 238.068 255.001 238.018 254.917C237.968 254.833 237.892 254.75 237.767 254.665C237.524 254.507 237.113 254.364 236.619 254.272H236.602C236.209 254.197 235.839 254.096 235.521 253.945C235.203 253.794 234.927 253.585 234.743 253.292C234.617 253.091 234.55 252.856 234.55 252.605C234.55 252.102 234.834 251.668 235.22 251.382C235.614 251.098 236.125 250.938 236.669 250.938C237.474 250.938 238.068 251.33 238.496 251.607C238.688 251.741 238.747 252.009 238.613 252.202C238.487 252.403 238.219 252.462 238.018 252.328C237.591 252.043 237.181 251.792 236.669 251.792C236.292 251.792 235.957 251.909 235.73 252.076C235.504 252.243 235.412 252.428 235.412 252.604C235.412 252.704 235.429 252.772 235.47 252.839C235.512 252.906 235.588 252.981 235.696 253.055C235.915 253.207 236.291 253.34 236.744 253.424H236.761C237.188 253.507 237.581 253.617 237.917 253.776C238.26 253.943 238.562 254.162 238.755 254.472C238.88 254.673 238.956 254.923 238.956 255.183C238.956 255.719 238.654 256.181 238.236 256.482C237.825 256.784 237.281 256.96 236.685 256.96C235.78 256.951 235.019 256.499 234.54 256.122C234.357 255.972 234.331 255.696 234.474 255.512Z" fill="white"/>
<path d="M242.674 256.97C241.325 256.97 240.253 255.881 240.253 254.549V251.567C240.253 251.307 240.454 251.105 240.714 251.105C240.966 251.105 241.183 251.307 241.183 251.567V254.549C241.183 255.371 241.853 256.041 242.675 256.041C243.504 256.041 244.167 255.371 244.167 254.549V251.567C244.167 251.307 244.377 251.105 244.636 251.105C244.896 251.105 245.096 251.307 245.096 251.567V254.549C245.095 255.881 244.014 256.97 242.674 256.97Z" fill="white"/>
<path d="M247.06 256.507V251.564C247.06 251.304 247.27 251.102 247.522 251.102C247.53 251.102 247.53 251.102 247.546 251.102C247.546 251.102 247.546 251.102 247.555 251.102H248.711C249.591 251.102 250.303 251.814 250.303 252.694C250.303 253.054 250.186 253.382 249.984 253.649C250.487 253.968 250.83 254.529 250.83 255.165C250.83 256.163 250.026 256.966 249.037 256.966H247.554C247.545 256.966 247.545 256.958 247.545 256.958C247.528 256.958 247.528 256.966 247.521 256.966C247.27 256.968 247.06 256.758 247.06 256.507ZM247.991 253.374H248.711C249.08 253.374 249.373 253.064 249.373 252.695C249.373 252.327 249.08 252.034 248.711 252.034H247.991V253.374ZM247.991 256.038H249.038C249.515 256.029 249.901 255.652 249.901 255.166C249.901 254.689 249.515 254.312 249.038 254.303H247.991V256.038Z" fill="white"/>
<path d="M257.078 251.567V256.51C257.078 256.761 256.861 256.97 256.609 256.97C256.349 256.97 256.149 256.76 256.149 256.51V252.983L254.943 254.658C254.85 254.784 254.717 254.851 254.566 254.851H254.557H254.549C254.397 254.851 254.256 254.784 254.163 254.658L252.965 252.983V256.51C252.965 256.761 252.755 256.97 252.496 256.97C252.245 256.97 252.036 256.76 252.036 256.51V251.567C252.036 251.315 252.246 251.105 252.496 251.105C252.505 251.105 252.505 251.105 252.522 251.105C252.656 251.105 252.806 251.172 252.89 251.298L254.558 253.61L256.226 251.298C256.317 251.172 256.452 251.105 256.603 251.105C256.603 251.105 256.603 251.105 256.611 251.105C256.86 251.114 257.078 251.315 257.078 251.567Z" fill="white"/>
<path d="M259.161 251.567C259.161 251.307 259.362 251.105 259.621 251.105C259.873 251.105 260.09 251.307 260.09 251.567V256.51C260.09 256.77 259.873 256.97 259.621 256.97C259.361 256.97 259.161 256.769 259.161 256.51V251.567Z" fill="white"/>
<path d="M265.242 252.036H263.91V256.51C263.91 256.77 263.709 256.97 263.45 256.97C263.198 256.97 262.988 256.769 262.988 256.51V252.036H261.665C261.405 252.036 261.205 251.817 261.205 251.567C261.205 251.307 261.406 251.105 261.665 251.105H265.242C265.494 251.105 265.702 251.307 265.702 251.567C265.702 251.817 265.494 252.036 265.242 252.036Z" fill="white"/>
<path d="M257.054 97.475V105.088H254.903V97.475C254.903 94.58 252.704 92.226 249.999 92.226C247.294 92.226 245.095 94.58 245.095 97.475V105.088H242.944V97.475C242.944 93.329 246.109 89.957 249.999 89.957C253.889 89.957 257.054 93.329 257.054 97.475Z" fill="#EBEBEB"/>
<path d="M242.944 99.4531L245.095 99.5391V105.086H242.944V99.4531Z" fill="#C7C7C7"/>
<path d="M257.054 100.029V105.088H254.903V99.9414L257.054 100.029Z" fill="#C7C7C7"/>
<path d="M259.812 102.27H240.187V118.557H259.812V102.27Z" fill="#DD9183"/>
<path d="M250.829 110.31L251.651 114.207H248.164L248.986 110.31C248.495 109.999 248.164 109.458 248.164 108.837C248.164 107.865 248.945 107.094 249.907 107.094C250.869 107.094 251.65 107.865 251.65 108.837C251.651 109.458 251.32 109.999 250.829 110.31Z" fill="#263238"/>
<path d="M143.623 159.535C143.623 159.417 143.723 159.316 143.843 159.316H143.87H145.653C146.659 159.316 147.472 160.139 147.472 161.144C147.472 162.149 146.658 162.963 145.653 162.963L144.071 162.982V165.496C144.071 165.615 143.971 165.716 143.843 165.716C143.724 165.716 143.623 165.616 143.623 165.496V159.535ZM145.652 162.533C146.411 162.524 147.032 161.902 147.032 161.143C147.032 160.384 146.41 159.763 145.652 159.763H144.07V162.533H145.652Z" fill="#263238"/>
<path d="M148.915 159.535C148.915 159.417 149.016 159.316 149.134 159.316C149.262 159.316 149.363 159.416 149.363 159.535V165.495C149.363 165.614 149.263 165.715 149.134 165.715C149.016 165.715 148.915 165.615 148.915 165.495V159.535Z" fill="#263238"/>
<path d="M151.218 163.483C151.218 162.24 152.187 161.234 153.393 161.234C154.545 161.234 155.459 162.148 155.551 163.319V163.328V163.355C155.551 163.474 155.451 163.556 155.332 163.556H151.658C151.704 164.534 152.471 165.275 153.394 165.275C153.988 165.275 154.537 164.964 154.839 164.461C154.903 164.351 155.04 164.333 155.132 164.388C155.232 164.461 155.269 164.589 155.205 164.699C154.821 165.312 154.154 165.714 153.395 165.714C152.187 165.714 151.218 164.708 151.218 163.483ZM151.685 163.126H155.076C154.93 162.285 154.217 161.673 153.394 161.673C152.553 161.673 151.849 162.276 151.685 163.126Z" fill="#263238"/>
<path d="M160.862 161.454V165.494C160.862 165.613 160.762 165.714 160.643 165.714C160.524 165.714 160.424 165.614 160.424 165.494V164.827C160.04 165.357 159.428 165.714 158.742 165.714C157.563 165.714 156.621 164.699 156.621 163.474C156.621 162.249 157.563 161.234 158.742 161.234C159.428 161.234 160.04 161.581 160.424 162.112V161.454C160.424 161.326 160.524 161.235 160.643 161.235C160.762 161.235 160.862 161.327 160.862 161.454ZM160.423 163.475C160.423 162.47 159.665 161.665 158.741 161.665C157.827 161.665 157.059 162.47 157.059 163.475C157.059 164.48 157.827 165.276 158.741 165.276C159.664 165.276 160.423 164.48 160.423 163.475Z" fill="#263238"/>
<path d="M162.452 164.782C162.525 164.691 162.662 164.672 162.763 164.754C163.074 164.982 163.568 165.275 164.134 165.275C164.481 165.275 164.783 165.165 164.985 165.001C165.204 164.855 165.323 164.654 165.323 164.452C165.314 164.242 165.231 164.096 165.003 163.904C164.811 163.758 164.491 163.648 164.052 163.575L164.033 163.566C163.631 163.493 163.275 163.401 163.018 163.219C162.735 163.054 162.534 162.762 162.534 162.414C162.534 162.057 162.735 161.747 163.018 161.536C163.283 161.353 163.658 161.234 164.115 161.234C164.691 161.234 165.102 161.499 165.45 161.719C165.55 161.792 165.578 161.929 165.514 162.03C165.45 162.13 165.313 162.158 165.212 162.094C164.883 161.874 164.554 161.646 164.115 161.646C163.75 161.646 163.457 161.746 163.265 161.902C163.082 162.048 162.982 162.231 162.982 162.414C162.982 162.597 163.064 162.725 163.238 162.862C163.439 162.999 163.741 163.109 164.152 163.173H164.17C164.6 163.237 164.947 163.365 165.258 163.539C165.551 163.731 165.761 164.079 165.761 164.453C165.761 164.828 165.551 165.13 165.25 165.358C164.939 165.587 164.573 165.715 164.134 165.715C163.412 165.706 162.845 165.367 162.48 165.075C162.387 164.992 162.378 164.874 162.452 164.782Z" fill="#263238"/>
<path d="M166.939 163.483C166.939 162.24 167.908 161.234 169.115 161.234C170.267 161.234 171.181 162.148 171.272 163.319V163.328V163.355C171.272 163.474 171.172 163.556 171.053 163.556H167.379C167.425 164.534 168.192 165.275 169.115 165.275C169.709 165.275 170.258 164.964 170.56 164.461C170.624 164.351 170.761 164.333 170.852 164.388C170.952 164.461 170.989 164.589 170.925 164.699C170.541 165.312 169.874 165.714 169.115 165.714C167.909 165.714 166.939 164.708 166.939 163.483ZM167.406 163.126H170.797C170.651 162.285 169.937 161.673 169.115 161.673C168.274 161.673 167.57 162.276 167.406 163.126Z" fill="#263238"/>
<path d="M175.248 163.483C175.248 162.24 176.217 161.234 177.424 161.234C178.576 161.234 179.49 162.148 179.581 163.319V163.328V163.355C179.581 163.474 179.481 163.556 179.362 163.556H175.688C175.734 164.534 176.501 165.275 177.425 165.275C178.019 165.275 178.568 164.964 178.869 164.461C178.933 164.351 179.07 164.333 179.162 164.388C179.262 164.461 179.299 164.589 179.235 164.699C178.851 165.312 178.184 165.714 177.425 165.714C176.217 165.714 175.248 164.708 175.248 163.483ZM175.714 163.126H179.105C178.959 162.285 178.246 161.673 177.423 161.673C176.583 161.673 175.878 162.276 175.714 163.126Z" fill="#263238"/>
<path d="M184.334 163.063C184.334 162.304 183.721 161.683 182.954 161.683C182.195 161.683 181.582 162.304 181.564 163.063V165.494V165.531C181.555 165.567 181.546 165.604 181.518 165.631C181.481 165.686 181.417 165.713 181.353 165.713H181.298C181.234 165.695 181.179 165.649 181.152 165.594C181.143 165.585 181.143 165.576 181.143 165.566C181.143 165.557 181.134 165.548 181.134 165.548V165.493V163.062V162.988V161.462C181.134 161.343 181.226 161.242 181.353 161.242C181.471 161.242 181.563 161.343 181.563 161.462V161.892C181.892 161.498 182.395 161.243 182.953 161.243C183.958 161.243 184.772 162.066 184.772 163.062V165.493C184.772 165.621 184.672 165.713 184.552 165.713C184.434 165.713 184.333 165.621 184.333 165.493V163.063H184.334Z" fill="#263238"/>
<path d="M188.301 161.453C188.301 161.563 188.191 161.673 188.081 161.673H187.505V164.936C187.505 165.156 187.724 165.265 187.833 165.265C187.943 165.265 188.062 165.384 188.062 165.493C188.062 165.603 187.943 165.713 187.833 165.713C187.385 165.713 187.048 165.384 187.048 164.936V161.673H186.49C186.271 161.673 186.271 161.563 186.271 161.453C186.271 161.343 186.271 161.234 186.49 161.234H187.048V159.571C187.048 159.461 187.158 159.352 187.267 159.352C187.386 159.352 187.505 159.462 187.505 159.571V161.234H188.081C188.191 161.234 188.301 161.344 188.301 161.453Z" fill="#263238"/>
<path d="M189.707 163.483C189.707 162.24 190.676 161.234 191.883 161.234C193.035 161.234 193.949 162.148 194.04 163.319V163.328V163.355C194.04 163.474 193.94 163.556 193.821 163.556H190.147C190.193 164.534 190.96 165.275 191.883 165.275C192.477 165.275 193.026 164.964 193.328 164.461C193.392 164.351 193.529 164.333 193.62 164.388C193.72 164.461 193.757 164.589 193.693 164.699C193.309 165.312 192.642 165.714 191.883 165.714C190.677 165.714 189.707 164.708 189.707 163.483ZM190.174 163.126H193.565C193.419 162.285 192.706 161.673 191.883 161.673C191.042 161.673 190.338 162.276 190.174 163.126Z" fill="#263238"/>
<path d="M195.402 161.462C195.402 161.334 195.502 161.242 195.63 161.242C195.74 161.242 195.841 161.334 195.841 161.462V162.449C195.859 162.412 195.877 162.375 195.905 162.339C196.243 161.809 196.837 161.242 197.697 161.242C197.816 161.242 197.917 161.334 197.917 161.462C197.917 161.58 197.816 161.681 197.697 161.681C197.112 161.681 196.71 162.01 196.399 162.412C196.097 162.814 195.923 163.271 195.859 163.454C195.841 163.491 195.841 163.509 195.841 163.527V165.492C195.841 165.62 195.74 165.712 195.63 165.712C195.502 165.712 195.402 165.62 195.402 165.492V161.462Z" fill="#263238"/>
<path d="M203.719 161.453C203.719 161.563 203.609 161.673 203.5 161.673H202.924V164.936C202.924 165.156 203.144 165.265 203.253 165.265C203.363 165.265 203.481 165.384 203.481 165.493C203.481 165.603 203.363 165.713 203.253 165.713C202.805 165.713 202.467 165.384 202.467 164.936V161.673H201.909C201.69 161.673 201.69 161.563 201.69 161.453C201.69 161.343 201.69 161.234 201.909 161.234H202.467V159.571C202.467 159.461 202.577 159.352 202.686 159.352C202.805 159.352 202.924 159.462 202.924 159.571V161.234H203.5C203.609 161.234 203.719 161.344 203.719 161.453Z" fill="#263238"/>
<path d="M208.921 162.997C208.921 162.211 208.281 161.682 207.495 161.682C206.718 161.682 206.078 162.211 206.078 162.997V165.493V165.52C206.078 165.539 206.069 165.547 206.069 165.557C206.06 165.575 206.06 165.583 206.05 165.592C206.023 165.647 205.977 165.684 205.913 165.702C205.913 165.702 205.904 165.712 205.895 165.712H205.877H205.85C205.786 165.712 205.722 165.685 205.676 165.639C205.658 165.612 205.649 165.592 205.64 165.564C205.631 165.537 205.631 165.519 205.631 165.492V162.997V162.924V159.532C205.631 159.414 205.731 159.312 205.85 159.312C205.978 159.312 206.078 159.413 206.078 159.532V161.891C206.416 161.489 206.928 161.232 207.495 161.232C208.528 161.232 209.369 161.963 209.369 162.995V165.491C209.369 165.61 209.269 165.711 209.141 165.711C209.022 165.711 208.922 165.611 208.922 165.491L208.921 162.997Z" fill="#263238"/>
<path d="M210.913 163.483C210.913 162.24 211.882 161.234 213.088 161.234C214.24 161.234 215.154 162.148 215.246 163.319V163.328V163.355C215.246 163.474 215.146 163.556 215.026 163.556H211.352C211.398 164.534 212.165 165.275 213.088 165.275C213.682 165.275 214.231 164.964 214.533 164.461C214.597 164.351 214.734 164.333 214.826 164.388C214.926 164.461 214.963 164.589 214.899 164.699C214.515 165.312 213.848 165.714 213.089 165.714C211.882 165.714 210.913 164.708 210.913 163.483ZM211.379 163.126H214.77C214.624 162.285 213.911 161.673 213.088 161.673C212.247 161.673 211.543 162.276 211.379 163.126Z" fill="#263238"/>
<path d="M222.448 159.223C224.157 159.223 225.501 160.676 225.511 162.468C225.502 164.26 224.158 165.713 222.448 165.713C220.72 165.713 219.367 164.26 219.358 162.468C219.367 160.676 220.72 159.223 222.448 159.223ZM222.448 165.266C223.856 165.266 225.044 164.032 225.053 162.469C225.044 160.887 223.856 159.681 222.448 159.681C220.994 159.681 219.806 160.887 219.806 162.469C219.806 164.031 220.994 165.266 222.448 165.266Z" fill="#263238"/>
<path d="M228.563 159.764H226.634C226.515 159.764 226.415 159.664 226.415 159.535C226.415 159.417 226.515 159.316 226.634 159.316H230.93C231.049 159.316 231.149 159.416 231.149 159.535C231.149 159.663 231.049 159.764 230.93 159.764H229.001V165.495C229.001 165.614 228.9 165.715 228.781 165.715C228.662 165.715 228.562 165.615 228.562 165.495V159.764H228.563Z" fill="#263238"/>
<path d="M232.83 159.535C232.83 159.417 232.93 159.316 233.05 159.316H233.077H234.86C235.865 159.316 236.679 160.139 236.679 161.144C236.679 162.149 235.865 162.963 234.86 162.963L233.278 162.982V165.496C233.278 165.615 233.177 165.716 233.05 165.716C232.931 165.716 232.83 165.616 232.83 165.496V159.535ZM234.86 162.533C235.618 162.524 236.24 161.902 236.24 161.143C236.24 160.384 235.618 159.763 234.86 159.763H233.278V162.533H234.86Z" fill="#263238"/>
<path d="M240.481 163.465C240.481 162.221 241.505 161.234 242.784 161.234C243.314 161.234 243.817 161.417 244.21 161.728C244.301 161.792 244.32 161.929 244.237 162.03C244.164 162.112 244.036 162.139 243.935 162.066C243.615 161.81 243.213 161.664 242.783 161.664C241.741 161.664 240.919 162.478 240.919 163.465C240.919 164.47 241.742 165.275 242.783 165.275C243.213 165.275 243.615 165.129 243.935 164.881C244.035 164.808 244.164 164.836 244.237 164.918C244.319 165.018 244.301 165.156 244.191 165.238C243.816 165.53 243.313 165.713 242.783 165.713C241.505 165.714 240.481 164.726 240.481 163.465Z" fill="#263238"/>
<path d="M247.793 161.234C248.972 161.234 249.914 162.258 249.914 163.474C249.914 164.69 248.973 165.714 247.793 165.714C246.623 165.714 245.672 164.69 245.672 163.474C245.673 162.258 246.623 161.234 247.793 161.234ZM247.793 165.275C248.707 165.275 249.475 164.47 249.475 163.474C249.475 162.478 248.707 161.664 247.793 161.664C246.879 161.664 246.111 162.478 246.111 163.474C246.111 164.47 246.88 165.275 247.793 165.275Z" fill="#263238"/>
<path d="M255.179 164.846C254.786 165.376 254.164 165.714 253.46 165.714C252.254 165.714 251.294 164.709 251.294 163.484C251.294 162.241 252.254 161.235 253.46 161.235C254.164 161.235 254.785 161.582 255.179 162.113V159.535C255.179 159.417 255.28 159.316 255.407 159.316C255.526 159.316 255.627 159.416 255.627 159.535V163.393V163.485V165.496C255.627 165.615 255.527 165.716 255.407 165.716C255.28 165.716 255.179 165.616 255.179 165.496V164.846ZM255.179 163.557V163.411C255.142 162.451 254.384 161.683 253.46 161.683C252.519 161.683 251.741 162.487 251.741 163.484C251.741 164.471 252.519 165.267 253.46 165.267C254.384 165.267 255.142 164.508 255.179 163.557Z" fill="#263238"/>
<path d="M257.171 163.483C257.171 162.24 258.14 161.234 259.347 161.234C260.498 161.234 261.413 162.148 261.505 163.319V163.328V163.355C261.505 163.474 261.403 163.556 261.285 163.556H257.61C257.656 164.534 258.423 165.275 259.347 165.275C259.941 165.275 260.49 164.964 260.791 164.461C260.855 164.351 260.992 164.333 261.083 164.388C261.185 164.461 261.221 164.589 261.157 164.699C260.773 165.312 260.106 165.714 259.347 165.714C258.14 165.714 257.171 164.708 257.171 163.483ZM257.637 163.126H261.028C260.882 162.285 260.17 161.673 259.346 161.673C258.505 161.673 257.801 162.276 257.637 163.126Z" fill="#263238"/>
<path d="M265.489 164.782C265.562 164.691 265.699 164.672 265.8 164.754C266.111 164.982 266.605 165.275 267.171 165.275C267.519 165.275 267.82 165.165 268.021 165.001C268.241 164.855 268.36 164.654 268.36 164.452C268.351 164.242 268.269 164.096 268.04 163.904C267.848 163.758 267.528 163.648 267.089 163.575L267.07 163.566C266.668 163.493 266.311 163.401 266.055 163.219C265.772 163.054 265.57 162.762 265.57 162.414C265.57 162.057 265.772 161.747 266.055 161.536C266.32 161.353 266.695 161.234 267.153 161.234C267.729 161.234 268.14 161.499 268.487 161.719C268.589 161.792 268.615 161.929 268.551 162.03C268.487 162.13 268.35 162.158 268.25 162.094C267.921 161.874 267.591 161.646 267.153 161.646C266.787 161.646 266.494 161.746 266.303 161.902C266.12 162.048 266.019 162.231 266.019 162.414C266.019 162.597 266.101 162.725 266.275 162.862C266.476 162.999 266.778 163.109 267.189 163.173H267.208C267.637 163.237 267.985 163.365 268.295 163.539C268.588 163.731 268.798 164.079 268.798 164.453C268.798 164.828 268.588 165.13 268.286 165.358C267.975 165.587 267.61 165.715 267.171 165.715C266.449 165.706 265.882 165.367 265.516 165.075C265.425 164.992 265.415 164.874 265.489 164.782Z" fill="#263238"/>
<path d="M269.977 163.483C269.977 162.24 270.946 161.234 272.153 161.234C273.305 161.234 274.219 162.148 274.311 163.319V163.328V163.355C274.311 163.474 274.209 163.556 274.091 163.556H270.416C270.462 164.534 271.229 165.275 272.152 165.275C272.746 165.275 273.295 164.964 273.597 164.461C273.661 164.351 273.798 164.333 273.889 164.388C273.991 164.461 274.027 164.589 273.962 164.699C273.578 165.312 272.911 165.714 272.152 165.714C270.946 165.714 269.977 164.708 269.977 163.483ZM270.443 163.126H273.835C273.688 162.285 272.976 161.673 272.152 161.673C271.311 161.673 270.607 162.276 270.443 163.126Z" fill="#263238"/>
<path d="M279.062 163.063C279.062 162.304 278.449 161.683 277.682 161.683C276.923 161.683 276.311 162.304 276.292 163.063V165.494V165.531C276.283 165.567 276.273 165.604 276.246 165.631C276.209 165.686 276.146 165.713 276.081 165.713H276.026C275.962 165.695 275.907 165.649 275.88 165.594C275.871 165.585 275.871 165.576 275.871 165.566C275.871 165.557 275.862 165.548 275.862 165.548V165.493V163.062V162.988V161.462C275.862 161.343 275.953 161.242 276.082 161.242C276.201 161.242 276.292 161.343 276.292 161.462V161.892C276.621 161.498 277.123 161.243 277.682 161.243C278.687 161.243 279.501 162.066 279.501 163.062V165.493C279.501 165.621 279.399 165.713 279.282 165.713C279.163 165.713 279.062 165.621 279.062 165.493V163.063Z" fill="#263238"/>
<path d="M283.029 161.453C283.029 161.563 282.919 161.673 282.81 161.673H282.234V164.936C282.234 165.156 282.453 165.265 282.562 165.265C282.671 165.265 282.791 165.384 282.791 165.493C282.791 165.603 282.672 165.713 282.562 165.713C282.115 165.713 281.776 165.384 281.776 164.936V161.673H281.219C280.999 161.673 280.999 161.563 280.999 161.453C280.999 161.343 280.999 161.234 281.219 161.234H281.776V159.571C281.776 159.461 281.886 159.352 281.996 159.352C282.115 159.352 282.234 159.462 282.234 159.571V161.234H282.81C282.919 161.234 283.029 161.344 283.029 161.453Z" fill="#263238"/>
<path d="M289.427 161.453C289.427 161.563 289.317 161.673 289.207 161.673H288.632V164.936C288.632 165.156 288.85 165.265 288.96 165.265C289.07 165.265 289.188 165.384 289.188 165.493C289.188 165.603 289.07 165.713 288.96 165.713C288.513 165.713 288.173 165.384 288.173 164.936V161.673H287.616C287.396 161.673 287.396 161.563 287.396 161.453C287.396 161.343 287.396 161.234 287.616 161.234H288.173V159.571C288.173 159.461 288.283 159.352 288.393 159.352C288.512 159.352 288.632 159.462 288.632 159.571V161.234H289.207C289.318 161.234 289.427 161.344 289.427 161.453Z" fill="#263238"/>
<path d="M293.293 161.234C294.472 161.234 295.414 162.258 295.414 163.474C295.414 164.69 294.473 165.714 293.293 165.714C292.123 165.714 291.172 164.69 291.172 163.474C291.172 162.258 292.123 161.234 293.293 161.234ZM293.293 165.275C294.207 165.275 294.975 164.47 294.975 163.474C294.975 162.478 294.208 161.664 293.293 161.664C292.379 161.664 291.611 162.478 291.611 163.474C291.611 164.47 292.379 165.275 293.293 165.275Z" fill="#263238"/>
<path d="M299.462 161.445C299.462 161.326 299.562 161.234 299.672 161.234C299.8 161.234 299.901 161.326 299.901 161.445V163.876C299.901 164.644 300.513 165.256 301.272 165.256C302.04 165.256 302.652 164.643 302.662 163.876V161.445C302.662 161.408 302.671 161.363 302.698 161.335C302.698 161.326 302.707 161.316 302.707 161.308C302.716 161.308 302.716 161.299 302.726 161.299C302.744 161.272 302.781 161.253 302.808 161.244H302.827C302.836 161.244 302.845 161.235 302.854 161.235H302.882H302.909C302.946 161.244 302.983 161.262 303.019 161.281C303.038 161.299 303.065 161.327 303.074 161.354C303.093 161.381 303.102 161.418 303.102 161.446V163.877V163.959V165.357C303.102 166.527 302.151 167.46 300.972 167.46C300.643 167.46 300.332 167.378 300.048 167.25C299.948 167.186 299.902 167.058 299.957 166.958C300.012 166.848 300.131 166.821 300.24 166.848C300.459 166.958 300.716 167.022 300.972 167.022C301.904 167.022 302.654 166.282 302.663 165.358V165.065C302.324 165.449 301.832 165.705 301.273 165.705C300.277 165.696 299.463 164.882 299.463 163.877V161.445H299.462Z" fill="#263238"/>
<path d="M306.848 161.234C308.027 161.234 308.969 162.258 308.969 163.474C308.969 164.69 308.028 165.714 306.848 165.714C305.678 165.714 304.727 164.69 304.727 163.474C304.727 162.258 305.677 161.234 306.848 161.234ZM306.848 165.275C307.762 165.275 308.53 164.47 308.53 163.474C308.53 162.478 307.763 161.664 306.848 161.664C305.934 161.664 305.166 162.478 305.166 163.474C305.166 164.47 305.933 165.275 306.848 165.275Z" fill="#263238"/>
<path d="M310.413 161.446C310.413 161.318 310.513 161.227 310.633 161.227C310.751 161.227 310.851 161.318 310.851 161.446V163.887C310.851 164.655 311.464 165.267 312.223 165.277C312.99 165.268 313.613 164.655 313.613 163.887V161.446C313.613 161.318 313.723 161.227 313.832 161.227C313.96 161.227 314.061 161.318 314.061 161.446V163.887C314.061 164.892 313.247 165.715 312.224 165.715C311.219 165.715 310.414 164.892 310.414 163.887V161.446H310.413Z" fill="#263238"/>
<path d="M316.107 161.462C316.107 161.334 316.207 161.242 316.336 161.242C316.446 161.242 316.546 161.334 316.546 161.462V162.449C316.564 162.412 316.582 162.375 316.61 162.339C316.948 161.809 317.542 161.242 318.401 161.242C318.52 161.242 318.621 161.334 318.621 161.462C318.621 161.58 318.521 161.681 318.401 161.681C317.816 161.681 317.413 162.01 317.103 162.412C316.802 162.814 316.628 163.271 316.564 163.454C316.546 163.491 316.546 163.509 316.546 163.527V165.492C316.546 165.62 316.446 165.712 316.336 165.712C316.208 165.712 316.107 165.62 316.107 165.492V161.462Z" fill="#263238"/>
<path d="M326.061 163.063C326.061 162.304 325.448 161.683 324.681 161.683C323.922 161.683 323.31 162.304 323.291 163.063V165.494V165.531C323.282 165.567 323.272 165.604 323.246 165.631C323.209 165.686 323.145 165.713 323.081 165.713H323.026C322.962 165.695 322.907 165.649 322.88 165.594C322.871 165.585 322.871 165.576 322.871 165.566C322.871 165.557 322.862 165.548 322.862 165.548V165.493V163.062V162.988V161.462C322.862 161.343 322.953 161.242 323.082 161.242C323.201 161.242 323.292 161.343 323.292 161.462V161.892C323.621 161.498 324.124 161.243 324.682 161.243C325.687 161.243 326.501 162.066 326.501 163.062V165.493C326.501 165.621 326.399 165.713 326.281 165.713C326.162 165.713 326.062 165.621 326.062 165.493V163.063H326.061Z" fill="#263238"/>
<path d="M328.373 161.446C328.373 161.318 328.473 161.227 328.593 161.227C328.711 161.227 328.811 161.318 328.811 161.446V163.887C328.811 164.655 329.424 165.267 330.183 165.277C330.95 165.268 331.573 164.655 331.573 163.887V161.446C331.573 161.318 331.683 161.227 331.792 161.227C331.92 161.227 332.021 161.318 332.021 161.446V163.887C332.021 164.892 331.207 165.715 330.184 165.715C329.179 165.715 328.374 164.892 328.374 163.887V161.446H328.373Z" fill="#263238"/>
<path d="M340.476 163.063C340.457 162.304 339.854 161.673 339.086 161.673C338.327 161.673 337.706 162.304 337.706 163.063V165.504V165.531C337.706 165.54 337.697 165.549 337.697 165.549V165.567C337.678 165.622 337.633 165.659 337.587 165.686C337.551 165.704 337.513 165.713 337.477 165.713H337.449H337.431C337.422 165.713 337.412 165.704 337.412 165.704C337.393 165.704 337.376 165.686 337.357 165.677C337.348 165.677 337.338 165.668 337.33 165.659L337.302 165.632C337.293 165.623 337.293 165.614 337.284 165.614C337.284 165.605 337.284 165.605 337.275 165.595C337.275 165.595 337.275 165.586 337.266 165.577C337.266 165.568 337.266 165.559 337.257 165.55V165.523V165.505V163.064C337.257 162.305 336.645 161.674 335.877 161.674C335.109 161.674 334.497 162.305 334.497 163.064V165.505C334.497 165.578 334.461 165.642 334.397 165.678C334.388 165.687 334.361 165.705 334.342 165.705C334.333 165.714 334.323 165.714 334.306 165.714H334.278H334.251C334.168 165.705 334.095 165.632 334.068 165.549V165.503V163.062V162.988V161.452C334.068 161.334 334.168 161.242 334.278 161.242C334.406 161.242 334.498 161.334 334.498 161.452V161.882C334.827 161.489 335.32 161.242 335.878 161.242C336.573 161.242 337.167 161.626 337.478 162.193C337.798 161.627 338.402 161.242 339.087 161.242C340.093 161.242 340.905 162.055 340.905 163.061V165.502C340.905 165.612 340.814 165.712 340.687 165.712C340.568 165.712 340.477 165.612 340.477 165.502L340.476 163.063Z" fill="#263238"/>
<path d="M342.759 163.572V163.481V163.389V159.531C342.759 159.413 342.859 159.312 342.978 159.312C343.105 159.312 343.207 159.412 343.207 159.531V162.109C343.599 161.579 344.222 161.231 344.925 161.231C346.132 161.231 347.092 162.237 347.092 163.48C347.092 164.705 346.132 165.71 344.925 165.71C344.222 165.71 343.599 165.372 343.207 164.842V165.492C343.207 165.611 343.105 165.712 342.978 165.712C342.859 165.712 342.759 165.612 342.759 165.492V163.572ZM343.208 163.481C343.208 164.468 343.985 165.264 344.926 165.264C345.877 165.264 346.645 164.469 346.645 163.481C346.645 162.484 345.877 161.68 344.926 161.68C344.003 161.68 343.244 162.448 343.208 163.408V163.481Z" fill="#263238"/>
<path d="M348.472 163.483C348.472 162.24 349.441 161.234 350.648 161.234C351.799 161.234 352.714 162.148 352.806 163.319V163.328V163.355C352.806 163.474 352.704 163.556 352.586 163.556H348.911C348.957 164.534 349.724 165.275 350.648 165.275C351.242 165.275 351.791 164.964 352.092 164.461C352.156 164.351 352.293 164.333 352.384 164.388C352.486 164.461 352.522 164.589 352.458 164.699C352.074 165.312 351.407 165.714 350.648 165.714C349.441 165.714 348.472 164.708 348.472 163.483ZM348.938 163.126H352.329C352.183 162.285 351.471 161.673 350.647 161.673C349.807 161.673 349.103 162.276 348.938 163.126Z" fill="#263238"/>
<path d="M354.166 161.462C354.166 161.334 354.266 161.242 354.395 161.242C354.505 161.242 354.605 161.334 354.605 161.462V162.449C354.623 162.412 354.641 162.375 354.669 162.339C355.007 161.809 355.601 161.242 356.46 161.242C356.579 161.242 356.68 161.334 356.68 161.462C356.68 161.58 356.579 161.681 356.46 161.681C355.875 161.681 355.472 162.01 355.162 162.412C354.861 162.814 354.687 163.271 354.622 163.454C354.604 163.491 354.604 163.509 354.604 163.527V165.492C354.604 165.62 354.504 165.712 354.394 165.712C354.266 165.712 354.165 165.62 354.165 165.492L354.166 161.462Z" fill="#263238"/>
<path d="M205.178 141.438C205.143 141.403 205.108 141.385 205.054 141.35C205.054 141.332 205.036 141.332 205.036 141.297C205.001 141.262 204.966 141.227 204.948 141.191C204.948 141.191 204.93 141.191 204.93 141.173C204.912 141.137 204.877 141.067 204.841 141.032L200.516 130.723C200.304 130.247 200.534 129.664 201.046 129.47C201.523 129.258 202.088 129.488 202.3 129.982L205.742 138.155L209.184 129.982C209.396 129.488 209.979 129.258 210.455 129.47C210.949 129.665 211.179 130.247 210.985 130.723L206.625 141.032C206.607 141.067 206.59 141.138 206.554 141.173C206.554 141.191 206.554 141.191 206.536 141.191C206.518 141.226 206.466 141.261 206.448 141.297C206.43 141.333 206.43 141.333 206.413 141.35C206.378 141.385 206.342 141.403 206.307 141.438C206.307 141.438 206.307 141.438 206.272 141.456C206.237 141.474 206.183 141.527 206.131 141.545C206.113 141.545 206.113 141.545 206.096 141.563C206.043 141.563 206.008 141.581 205.955 141.598C205.955 141.598 205.937 141.598 205.92 141.598C205.85 141.616 205.796 141.616 205.743 141.616C205.69 141.616 205.619 141.616 205.566 141.598C205.566 141.598 205.548 141.598 205.531 141.598C205.496 141.58 205.425 141.563 205.39 141.563C205.39 141.545 205.372 141.545 205.372 141.545C205.372 141.545 205.372 141.545 205.354 141.545C205.319 141.527 205.248 141.474 205.195 141.439C205.195 141.439 205.196 141.438 205.178 141.438Z" fill="#263238"/>
<path d="M212.351 137.202C212.369 134.801 214.24 132.789 216.658 132.789C218.953 132.789 220.771 134.501 220.912 136.884C220.912 136.902 220.912 136.937 220.912 136.972C220.912 137.008 220.912 137.096 220.894 137.131C220.841 137.554 220.47 137.837 219.976 137.837H214.363C214.452 138.243 214.646 138.702 214.963 139.002C215.334 139.426 216.04 139.743 216.657 139.796C217.293 139.849 218.052 139.69 218.493 139.355C218.864 138.967 219.588 139.02 219.817 139.302C220.046 139.549 220.223 140.079 219.817 140.449C218.952 141.243 217.911 141.614 216.657 141.614C214.24 141.597 212.369 139.602 212.351 137.202ZM214.275 136.337H219.27C219.093 135.631 218.193 134.59 216.657 134.466C215.158 134.536 214.416 135.613 214.275 136.337Z" fill="#263238"/>
<path d="M228.79 133.726C228.79 134.22 228.383 134.662 227.854 134.662C227.448 134.662 227.095 134.768 226.795 134.998C226.459 135.21 226.195 135.51 225.983 135.845C225.559 136.41 225.347 137.081 225.259 137.328V140.682C225.259 141.194 224.817 141.618 224.288 141.618C223.776 141.618 223.352 141.194 223.352 140.682V133.727C223.352 133.215 223.775 132.809 224.288 132.809C224.817 132.809 225.259 133.215 225.259 133.727V133.851C225.365 133.727 225.506 133.586 225.63 133.498C226.212 133.11 226.971 132.792 227.854 132.809C228.383 132.808 228.79 133.214 228.79 133.726Z" fill="#263238"/>
<path d="M233.029 130.582C233.029 131.112 232.623 131.553 232.076 131.553C231.546 131.553 231.123 131.111 231.123 130.582V130.211C231.123 129.682 231.547 129.258 232.076 129.258C232.623 129.258 233.029 129.682 233.029 130.211V130.582ZM233.029 133.777V140.662C233.029 141.192 232.623 141.615 232.076 141.615C231.546 141.615 231.123 141.191 231.123 140.662V133.777C231.123 133.212 231.547 132.806 232.076 132.806C232.623 132.806 233.029 133.212 233.029 133.777Z" fill="#263238"/>
<path d="M238.962 132.207V132.454H239.492C240.022 132.454 240.463 132.878 240.463 133.425C240.463 133.954 240.022 134.396 239.492 134.396H238.962V140.627C238.962 141.157 238.538 141.598 237.991 141.598C237.444 141.598 237.02 141.157 237.02 140.627V134.396H236.561C236.014 134.396 235.573 133.954 235.573 133.425C235.573 132.878 236.014 132.454 236.561 132.454H237.02V132.207C237.02 131.554 237.09 130.989 237.355 130.477C237.602 129.947 238.096 129.541 238.626 129.383C238.979 129.277 239.315 129.242 239.685 129.242C240.215 129.242 240.656 129.684 240.656 130.213C240.656 130.76 240.215 131.202 239.685 131.202C239.456 131.202 239.297 131.22 239.226 131.255C239.155 131.273 239.137 131.29 239.12 131.308C239.103 131.307 238.962 131.554 238.962 132.207Z" fill="#263238"/>
<path d="M244.384 130.582C244.384 131.112 243.978 131.553 243.431 131.553C242.901 131.553 242.478 131.111 242.478 130.582V130.211C242.478 129.682 242.902 129.258 243.431 129.258C243.978 129.258 244.384 129.682 244.384 130.211V130.582ZM244.384 133.777V140.662C244.384 141.192 243.978 141.615 243.431 141.615C242.901 141.615 242.478 141.191 242.478 140.662V133.777C242.478 133.212 242.902 132.806 243.431 132.806C243.979 132.806 244.384 133.212 244.384 133.777Z" fill="#263238"/>
<path d="M246.804 137.22C246.804 134.766 248.852 132.807 251.288 132.789C252.346 132.789 253.335 133.177 254.094 133.76C254.5 134.078 254.57 134.678 254.289 135.066C253.936 135.49 253.37 135.561 252.965 135.243C252.506 134.908 251.941 134.678 251.289 134.678C249.859 134.678 248.676 135.86 248.676 137.22C248.676 138.579 249.859 139.744 251.289 139.744C251.924 139.744 252.507 139.515 252.965 139.179C253.353 138.879 253.936 138.95 254.289 139.373C254.571 139.761 254.5 140.326 254.094 140.679C253.335 141.226 252.346 141.615 251.288 141.615C248.852 141.615 246.804 139.637 246.804 137.22Z" fill="#263238"/>
<path d="M264.972 137.223V140.683C264.972 141.195 264.549 141.619 264.037 141.619C263.577 141.619 263.225 141.283 263.119 140.86C262.448 141.337 261.654 141.619 260.771 141.619C259.571 141.619 258.529 141.124 257.77 140.33C257.011 139.518 256.57 138.424 256.57 137.224C256.57 136.006 257.011 134.911 257.77 134.117C258.529 133.305 259.571 132.793 260.771 132.793C261.653 132.793 262.448 133.093 263.119 133.57C263.226 133.129 263.578 132.793 264.037 132.793C264.549 132.793 264.972 133.216 264.972 133.746V137.223ZM263.101 137.223C263.101 136.482 262.837 135.846 262.412 135.405C261.989 134.928 261.389 134.681 260.771 134.681C260.135 134.681 259.536 134.928 259.13 135.405C258.707 135.846 258.459 136.482 258.459 137.223C258.459 137.947 258.706 138.582 259.13 139.041C259.536 139.483 260.136 139.73 260.771 139.73C261.389 139.73 261.989 139.483 262.412 139.041C262.837 138.582 263.101 137.946 263.101 137.223Z" fill="#263238"/>
<path d="M272.408 133.759C272.408 134.289 271.949 134.73 271.419 134.73H270.978V139.655C271.526 139.655 271.949 140.096 271.949 140.643C271.949 141.19 271.526 141.614 270.978 141.614C269.901 141.614 269.019 140.731 269.019 139.655V134.73H268.507C267.959 134.73 267.536 134.289 267.536 133.759C267.536 133.212 267.959 132.788 268.507 132.788H269.019V130.229C269.019 129.682 269.46 129.258 270.008 129.258C270.555 129.258 270.978 129.682 270.978 130.229V132.788H271.419C271.949 132.789 272.408 133.212 272.408 133.759Z" fill="#263238"/>
<path d="M277.425 130.582C277.425 131.112 277.019 131.553 276.472 131.553C275.943 131.553 275.518 131.111 275.518 130.582V130.211C275.518 129.682 275.943 129.258 276.472 129.258C277.019 129.258 277.425 129.682 277.425 130.211V130.582ZM277.425 133.777V140.662C277.425 141.192 277.019 141.615 276.472 141.615C275.943 141.615 275.518 141.191 275.518 140.662V133.777C275.518 133.212 275.943 132.806 276.472 132.806C277.019 132.806 277.425 133.212 277.425 133.777Z" fill="#263238"/>
<path d="M281.275 140.329C280.516 139.552 280.056 138.458 280.056 137.223C280.056 136.022 280.516 134.981 281.275 134.134C282.069 133.305 283.092 132.793 284.311 132.793C285.476 132.793 286.534 133.305 287.258 134.134C288.053 134.982 288.494 136.023 288.494 137.223C288.494 138.458 288.053 139.553 287.258 140.329C286.534 141.159 285.476 141.671 284.311 141.671C283.092 141.671 282.069 141.159 281.275 140.329ZM281.98 137.223C281.98 137.982 282.21 138.6 282.616 139.094C283.057 139.517 283.64 139.747 284.311 139.747C284.928 139.747 285.494 139.518 285.935 139.094C286.376 138.599 286.624 137.982 286.624 137.223C286.624 136.499 286.377 135.863 285.935 135.387C285.494 134.999 284.928 134.716 284.311 134.716C283.64 134.716 283.057 134.999 282.616 135.387C282.21 135.863 281.98 136.499 281.98 137.223Z" fill="#263238"/>
<path d="M298.861 136.461V140.68C298.861 141.192 298.455 141.616 297.943 141.616C297.449 141.616 297.008 141.192 297.008 140.68V136.461C297.008 135.472 296.179 134.678 295.172 134.678C294.183 134.678 293.406 135.472 293.406 136.461V140.68C293.406 140.733 293.406 140.786 293.371 140.857C293.283 141.28 292.895 141.616 292.436 141.616C291.906 141.616 291.5 141.192 291.5 140.68V136.461V133.725C291.5 133.213 291.906 132.789 292.436 132.789C292.807 132.789 293.142 133.001 293.301 133.336C293.831 133.001 294.484 132.789 295.172 132.789C297.219 132.789 298.861 134.466 298.861 136.461Z" fill="#263238"/>
<path d="M479.231 77.2539C479.231 77.2539 472.661 129.856 461.863 141.692C448.9 155.891 439.493 153.815 434.259 161.136C434.248 161.136 434.248 161.147 434.248 161.147C429.014 153.815 419.607 155.902 406.633 141.692C395.835 129.856 389.276 77.2539 389.276 77.2539C417.73 63.4409 434.248 47.9609 434.248 47.9609C434.248 47.9609 434.248 47.9609 434.259 47.9719C434.767 48.4469 451.219 63.6619 479.231 77.2539Z" fill="#DD9183"/>
<path opacity="0.1" d="M434.259 47.9729V161.137C434.248 161.137 434.248 161.148 434.248 161.148C429.014 153.816 419.607 155.903 406.633 141.693C395.835 129.857 389.276 77.2549 389.276 77.2549C417.73 63.4409 434.248 47.9609 434.248 47.9609C434.248 47.9609 434.248 47.9609 434.259 47.9729Z" fill="black"/>
<path d="M396.256 81.4902C396.256 81.4902 401.805 125.925 410.926 135.928C421.886 147.94 429.837 146.176 434.26 152.363C438.682 146.176 446.634 147.941 457.594 135.928C466.715 125.925 472.253 81.4902 472.253 81.4902C448.218 69.8182 434.26 56.7422 434.26 56.7422C434.26 56.7422 420.291 69.8182 396.256 81.4902Z" fill="#DD9183"/>
<path opacity="0.2" d="M472.241 81.4909C472.241 81.4909 466.693 125.921 457.569 135.929C446.619 147.932 438.676 146.179 434.248 152.348V56.7539C434.675 57.1549 448.578 69.9989 472.241 81.4909Z" fill="white"/>
<path d="M434.253 122.174C443.984 122.174 451.873 114.285 451.873 104.554C451.873 94.8223 443.984 86.9336 434.253 86.9336C424.522 86.9336 416.633 94.8223 416.633 104.554C416.633 114.285 424.522 122.174 434.253 122.174Z" fill="#455A64"/>
<path d="M432.244 116.002L424.397 107.841L427.309 105.042L431.635 109.541L440.96 95.2344L444.344 97.4404L432.244 116.002Z" fill="white"/>
<path d="M472.241 153.417L469.749 153.877L469.192 156.504L468.636 153.877L466.144 153.415L468.625 152.809L469.192 150.328L469.76 152.809L472.241 153.417Z" fill="#DD9183"/>
<path d="M398.43 133.444L395.939 133.904L395.382 136.531L394.825 133.904L392.333 133.442L394.814 132.836L395.382 130.355L395.949 132.836L398.43 133.444Z" fill="#DD9183"/>
<path d="M409.803 64.1974L407.311 64.6584L406.754 67.2854L406.197 64.6584L403.705 64.1964L406.186 63.5904L406.754 61.1094L407.322 63.5904L409.803 64.1974Z" fill="#DD9183"/>
<path d="M467.781 141.601L466.389 141.859L466.077 143.327L465.766 141.859L464.374 141.601L465.76 141.262L466.077 139.875L466.395 141.262L467.781 141.601Z" fill="#DD9183"/>
<path d="M477.413 112.374L476.02 112.632L475.709 114.1L475.398 112.632L474.005 112.374L475.392 112.035L475.709 110.648L476.026 112.035L477.413 112.374Z" fill="#DD9183"/>
<path d="M465.591 61.1088L464.199 61.3668L463.888 62.8348L463.576 61.3668L462.184 61.1078L463.57 60.7688L463.888 59.3828L464.205 60.7688L465.591 61.1088Z" fill="#DD9183"/>
<path d="M430.018 167.461L428.625 167.718L428.314 169.186L428.003 167.718L426.61 167.46L427.997 167.121L428.314 165.734L428.631 167.121L430.018 167.461Z" fill="#DD9183"/>
<path d="M390.688 136.863L389.296 137.121L388.984 138.589L388.673 137.121L387.28 136.863L388.667 136.524L388.984 135.137L389.302 136.524L390.688 136.863Z" fill="#DD9183"/>
<path d="M392.855 96.1645L391.463 96.4215L391.151 97.8895L390.84 96.4215L389.448 96.1635L390.834 95.8245L391.151 94.4375L391.469 95.8245L392.855 96.1645Z" fill="#DD9183"/>
<path d="M451.276 148.191C450.756 148.191 450.756 148.998 451.276 148.998C451.796 148.998 451.797 148.191 451.276 148.191Z" fill="#DD9183"/>
<path d="M387.08 75.0156C386.56 75.0156 386.56 75.8226 387.08 75.8226C387.599 75.8236 387.6 75.0156 387.08 75.0156Z" fill="#DD9183"/>
<path d="M463.887 150.465C463.367 150.465 463.367 151.272 463.887 151.272C464.406 151.272 464.407 150.465 463.887 150.465Z" fill="#DD9183"/>
<path d="M422.993 87.4102C422.474 87.4102 422.473 88.2172 422.993 88.2172C423.512 88.2182 423.513 87.4102 422.993 87.4102Z" fill="#DD9183"/>
<path d="M385.621 103.668C385.101 103.668 385.101 104.475 385.621 104.475C386.14 104.475 386.141 103.668 385.621 103.668Z" fill="#DD9183"/>
<path d="M376.206 99.2695C375.839 99.2695 375.838 99.8405 376.206 99.8405C376.573 99.8405 376.574 99.2695 376.206 99.2695Z" fill="#DD9183"/>
<path d="M453.244 55.8398C452.877 55.8398 452.876 56.4108 453.244 56.4108C453.611 56.4108 453.612 55.8398 453.244 55.8398Z" fill="#DD9183"/>
<path d="M413.38 153.613C413.013 153.613 413.012 154.184 413.38 154.184C413.747 154.184 413.748 153.613 413.38 153.613Z" fill="#DD9183"/>
<path d="M404.453 148.363C403.457 148.363 403.455 149.911 404.453 149.911C405.449 149.911 405.451 148.363 404.453 148.363Z" fill="#DD9183"/>
<path d="M212.206 216.008V232.829H216.642V240.495L224.308 232.829H276.376V216.008H212.206Z" fill="white"/>
<path d="M212.206 216.008C212.247 221.679 212.415 227.285 212.416 232.829L212.206 232.619L216.642 232.607L216.864 232.606L216.865 232.829L216.886 240.495L216.471 240.323L224.116 232.636C224.203 232.542 224.191 232.555 224.309 232.556C237.28 232.519 263.408 232.478 276.377 232.468L276.016 232.829L276.065 216.008L276.376 216.319C260.38 216.29 228.2 216.123 212.206 216.008ZM212.206 216.008L244.208 215.807L276.376 215.696L276.686 215.695L276.687 216.008L276.736 232.829L276.737 233.19L276.375 233.189L250.341 233.159C250.481 233.065 223.543 233.259 224.5 233.021L216.813 240.665L216.396 241.08L216.398 240.493L216.419 232.827L216.641 233.049L212.205 233.037L211.995 233.036V232.826C211.997 227.159 212.165 221.551 212.206 216.008Z" fill="#263238"/>
<path d="M223.425 222.094V224.35H222.788V222.094C222.788 221.236 222.137 220.539 221.335 220.539C220.534 220.539 219.882 221.236 219.882 222.094V224.35H219.245V222.094C219.245 220.866 220.183 219.867 221.335 219.867C222.488 219.866 223.425 220.865 223.425 222.094Z" fill="#263238"/>
<path d="M219.245 222.68L219.882 222.706V224.349H219.245V222.68Z" fill="#263238"/>
<path d="M223.425 222.85V224.349H222.788V222.824L223.425 222.85Z" fill="#263238"/>
<path d="M224.242 223.516H218.428V228.341H224.242V223.516Z" fill="#263238"/>
<path d="M233.516 222.422C232.68 223.984 231.469 225.2 229.905 226.033C230.738 224.468 231.954 223.258 233.516 222.422Z" fill="#263238"/>
<path d="M229.905 222.422C231.467 223.258 232.683 224.468 233.516 226.033C231.951 225.2 230.741 223.984 229.905 222.422Z" fill="#263238"/>
<path d="M234.264 224.23C232.568 224.743 230.853 224.747 229.157 224.23C230.852 223.713 232.568 223.717 234.264 224.23Z" fill="#263238"/>
<path d="M231.71 221.676C232.223 223.372 232.227 225.087 231.71 226.783C231.193 225.087 231.197 223.371 231.71 221.676Z" fill="#263238"/>
<path d="M242.324 222.422C241.488 223.984 240.278 225.2 238.713 226.033C239.546 224.468 240.763 223.258 242.324 222.422Z" fill="#263238"/>
<path d="M238.713 222.422C240.275 223.258 241.491 224.468 242.324 226.033C240.76 225.2 239.55 223.984 238.713 222.422Z" fill="#263238"/>
<path d="M243.072 224.23C241.376 224.743 239.661 224.747 237.965 224.23C239.661 223.713 241.377 223.717 243.072 224.23Z" fill="#263238"/>
<path d="M240.519 221.676C241.032 223.372 241.036 225.087 240.519 226.783C240.002 225.087 240.006 223.371 240.519 221.676Z" fill="#263238"/>
<path d="M251.133 222.422C250.297 223.984 249.087 225.2 247.522 226.033C248.355 224.468 249.571 223.258 251.133 222.422Z" fill="#263238"/>
<path d="M247.522 222.422C249.084 223.258 250.3 224.468 251.133 226.033C249.569 225.2 248.358 223.984 247.522 222.422Z" fill="#263238"/>
<path d="M251.881 224.23C250.185 224.743 248.47 224.747 246.774 224.23C248.469 223.713 250.185 223.717 251.881 224.23Z" fill="#263238"/>
<path d="M249.328 221.676C249.841 223.372 249.845 225.087 249.328 226.783C248.81 225.087 248.814 223.371 249.328 221.676Z" fill="#263238"/>
<path d="M259.942 222.422C259.106 223.984 257.895 225.2 256.331 226.033C257.164 224.468 258.38 223.258 259.942 222.422Z" fill="#263238"/>
<path d="M256.331 222.422C257.893 223.258 259.109 224.468 259.942 226.033C258.377 225.2 257.167 223.984 256.331 222.422Z" fill="#263238"/>
<path d="M260.69 224.23C258.994 224.743 257.279 224.747 255.583 224.23C257.278 223.713 258.994 223.717 260.69 224.23Z" fill="#263238"/>
<path d="M258.136 221.676C258.649 223.372 258.653 225.087 258.136 226.783C257.619 225.087 257.623 223.371 258.136 221.676Z" fill="#263238"/>
<path d="M268.751 222.422C267.915 223.984 266.705 225.2 265.14 226.033C265.973 224.468 267.19 223.258 268.751 222.422Z" fill="#263238"/>
<path d="M265.14 222.422C266.702 223.258 267.918 224.468 268.751 226.033C267.187 225.2 265.976 223.984 265.14 222.422Z" fill="#263238"/>
<path d="M269.499 224.23C267.803 224.743 266.088 224.747 264.392 224.23C266.088 223.713 267.804 223.717 269.499 224.23Z" fill="#263238"/>
<path d="M266.945 221.676C267.458 223.372 267.462 225.087 266.945 226.783C266.427 225.087 266.432 223.371 266.945 221.676Z" fill="#263238"/>
<path d="M141.908 419.16L84.1641 465.721H87.4181L154.107 419.16H141.908Z" fill="#C7C7C7"/>
<path d="M147.333 419.16L118.8 465.721H122.053L157.025 419.16H147.333Z" fill="#C7C7C7"/>
<path d="M161.322 419.16L189.855 465.721H186.602L151.631 419.16H161.322Z" fill="#C7C7C7"/>
<path d="M166.307 419.16L224.05 465.721H220.797L154.107 419.16H166.307Z" fill="#C7C7C7"/>
<path d="M262.681 402.082V388.46L183.386 385.207L141.501 273.379H45.5332L79.4882 402.082L160.614 424.854H165.697L262.681 402.082Z" fill="#455A64"/>
<path opacity="0.1" d="M45.5332 273.379H56.5132L91.8912 390.696L163.663 411.029L262.681 388.46V402.082L165.697 424.854H160.614L79.4882 402.082L45.5332 273.379Z" fill="black"/>
<path d="M219.512 486.893C217.089 485.971 162.659 441.375 161.658 438.363C161.272 437.222 167.305 428.916 174.879 419.087C176.514 416.964 178.216 414.782 179.957 412.576C191.241 398.238 203.549 383.289 203.549 383.289L240.046 413.015L215.45 441.484L210.056 447.738C210.056 447.738 223.259 474.133 224.002 477.555C224.732 480.967 221.934 487.815 219.512 486.893Z" fill="#AD6359"/>
<path d="M219.512 486.891C217.089 485.969 162.659 441.373 161.658 438.361C161.195 436.97 170.195 424.997 179.957 412.574L215.449 441.482L210.055 447.736C210.055 447.736 223.258 474.131 224.001 477.553C224.732 480.965 221.934 487.813 219.512 486.891Z" fill="#EBEBEB"/>
<path d="M219.512 486.892C217.089 485.97 162.659 441.374 161.658 438.362C161.272 437.221 167.305 428.915 174.879 419.086L210.055 447.736C210.055 447.736 223.258 474.131 224.001 477.553C224.732 480.966 221.934 487.814 219.512 486.892Z" fill="#DD9183"/>
<path d="M220.515 484.075C211.574 476.375 174.787 446.164 165.365 439.232C165.288 439.175 165.247 439.225 165.318 439.289C174.013 447.114 211.044 477.026 220.393 484.224C220.59 484.377 220.704 484.237 220.515 484.075Z" fill="#263238"/>
<path d="M222.104 472.725C220.012 470.864 217.056 470.159 214.82 470.481C212.672 470.791 210.276 471.737 208.79 473.682C208.747 473.738 208.846 473.821 208.9 473.772C212.346 470.628 218.164 470.153 222.01 472.84C222.088 472.894 222.176 472.789 222.104 472.725Z" fill="#263238"/>
<path d="M212.85 451.541C209.239 448.498 203.95 446.318 199.233 447.446C199.05 447.49 199.115 447.749 199.269 447.782C203.965 448.785 208.142 450.088 212.544 452.043C212.855 452.18 213.109 451.759 212.85 451.541Z" fill="#263238"/>
<path d="M214.769 454.952C211.159 451.909 205.869 449.729 201.152 450.856C200.969 450.9 201.034 451.159 201.188 451.192C205.884 452.195 210.061 453.498 214.463 455.453C214.774 455.59 215.028 455.169 214.769 454.952Z" fill="#263238"/>
<path d="M216.688 458.362C213.078 455.319 207.787 453.139 203.071 454.266C202.888 454.31 202.953 454.569 203.107 454.602C207.803 455.605 211.98 456.908 216.382 458.863C216.693 459.001 216.946 458.58 216.688 458.362Z" fill="#263238"/>
<path d="M218.606 461.769C214.996 458.726 209.706 456.546 204.989 457.673C204.806 457.717 204.871 457.976 205.025 458.009C209.72 459.012 213.898 460.315 218.3 462.27C218.612 462.408 218.865 461.987 218.606 461.769Z" fill="#263238"/>
<path d="M174.789 432.47C170.682 429.125 165.476 435.502 169.59 438.853C173.697 442.198 178.903 435.821 174.789 432.47Z" fill="white"/>
<path d="M224.781 445.033C224.189 441.986 220.633 441.576 218.189 442.233C214.231 443.298 210.002 445.872 207.219 448.853C207.151 448.927 207.184 449.006 207.248 449.051C207.111 449.377 207.241 449.85 207.663 449.884C211.736 450.216 216.05 451.076 220.104 450.147C222.471 449.605 225.342 447.915 224.781 445.033ZM213.941 449.124C211.934 449.009 209.944 448.797 207.933 448.757C210.076 447.472 212.153 446.1 214.424 445.032C215.508 444.523 216.631 444.019 217.776 443.662C219.558 443.105 225.643 442.99 222.751 447.261C221.158 449.615 216.334 449.26 213.941 449.124Z" fill="#263238"/>
<path d="M197.036 442.774C199.816 445.868 203.837 447.65 207.358 449.725C207.723 449.94 208.101 449.628 208.177 449.283C208.255 449.283 208.328 449.237 208.314 449.138C207.756 445.098 205.781 440.558 203.159 437.408C201.54 435.463 198.397 433.75 196.157 435.899C194.04 437.933 195.413 440.968 197.036 442.774ZM196.535 438.889C196.631 433.732 201.539 437.331 202.675 438.812C203.405 439.764 204.034 440.822 204.626 441.863C205.868 444.045 206.775 446.362 207.787 448.647C206.12 447.522 204.371 446.549 202.664 445.486C200.629 444.22 196.481 441.732 196.535 438.889Z" fill="#263238"/>
<path d="M277.953 357.17C275.195 376.287 227.337 430.984 221.807 437.257C220.991 438.181 220.548 438.685 220.548 438.685L181.882 408.216L182.338 407.642L217.256 363.056L114.743 361.206L154.036 331.413C154.036 331.413 157.172 333.273 163.748 332.394C186.414 329.358 237.515 322.645 249.538 323.276C265.047 324.104 280.483 339.631 277.953 357.17Z" fill="#263238"/>
<path d="M229.804 346.475C228.455 347.809 227.37 349.484 226.203 350.976C224.969 352.554 223.715 354.117 222.483 355.696C222.471 355.712 222.459 355.727 222.447 355.743C222.668 355.279 222.884 354.812 223.113 354.352C223.898 352.775 224.531 351.144 225.455 349.639C225.512 349.547 225.371 349.459 225.313 349.55C224.364 351.044 223.267 352.462 222.451 354.037C222.067 354.779 221.703 355.528 221.363 356.291C221.177 356.709 220.986 357.127 220.818 357.552C220.741 357.746 220.645 357.953 220.587 358.163C220.034 358.896 219.488 359.633 218.957 360.382C217.78 362.044 216.736 363.804 215.545 365.453C215.481 365.542 215.622 365.626 215.687 365.542C216.892 363.993 218.24 362.551 219.464 361.014C220.71 359.449 221.893 357.839 223.062 356.217C224.203 354.634 225.321 353.035 226.459 351.45C227.606 349.855 228.963 348.284 229.9 346.554C229.933 346.494 229.857 346.423 229.804 346.475Z" fill="#37474F"/>
<path d="M225.885 429.704C223.682 427.783 221.322 426.016 219.005 424.234C216.679 422.445 214.344 420.669 211.999 418.905C207.306 415.376 202.634 411.816 197.893 408.352C195.288 406.449 192.666 404.572 189.963 402.811C189.842 402.733 189.715 402.925 189.822 403.016C194.28 406.83 199.018 410.296 203.706 413.817C208.403 417.344 213.112 420.859 217.862 424.315C220.461 426.207 223.049 428.159 225.759 429.888C225.867 429.958 225.98 429.787 225.885 429.704Z" fill="#37474F"/>
<path d="M142.663 280.918C153.297 301.168 165.916 322.658 177.877 325.771C189.254 328.733 216.322 300.385 220.913 290.974C222.496 287.729 201.066 273.516 198.033 275.904C192.316 280.405 179.8 294.671 178.018 294.314C176.163 293.935 161.048 280.427 147.349 269.059C139.045 262.169 135.297 266.89 142.663 280.918Z" fill="#AD6359"/>
<path d="M201.9 243.008L193.709 271.679C193.374 272.517 193.778 273.22 194.611 273.246L209.524 273.715C210.357 273.741 211.306 273.081 211.641 272.243L219.832 243.572C220.168 242.732 219.763 242.031 218.931 242.005L204.018 241.536C203.185 241.509 202.236 242.168 201.9 243.008Z" fill="#A6A6A6"/>
<path d="M203.671 243.047L195.481 271.718C195.146 272.556 195.55 273.259 196.383 273.285L211.296 273.754C212.129 273.78 213.078 273.12 213.413 272.282L221.604 243.611C221.94 242.771 221.535 242.07 220.702 242.044L205.789 241.575C204.956 241.549 204.007 242.207 203.671 243.047Z" fill="#DBDBDB"/>
<path d="M207.717 244.496C207.68 245.195 207.082 245.732 206.383 245.694C205.684 245.656 205.147 245.059 205.185 244.36C205.222 243.661 205.819 243.124 206.519 243.162C207.218 243.2 207.755 243.797 207.717 244.496Z" fill="#455A64"/>
<path d="M227.813 274.741C229.071 266.407 228.115 264.075 232.912 257.605C236.06 253.36 234.7 249.528 229.748 251.914C221.649 255.817 217.768 266.227 217.461 270.225L227.813 274.741Z" fill="#AD6359"/>
<path d="M217.061 296.582C217.061 296.582 224.837 287.502 227.057 278.754C228.592 272.704 230.463 259.17 217.239 246.049C214.102 242.937 207.425 240.727 210.702 247.67C213.03 252.602 215.996 255.027 216.828 258.142C216.828 258.142 208.002 256.339 205.006 259.603C203.668 261.062 200.107 265.129 197.787 268.69C197.787 268.69 198.427 269.404 199.367 270.193C199.367 270.193 196.857 273.506 197.384 279.804L217.061 296.582Z" fill="#AD6359"/>
<path d="M227.601 272.745C226.122 269.827 222.883 263.696 218.489 259.602C213.609 255.054 202.981 247.609 199.662 251.247C197.228 253.914 201.035 257.113 201.035 257.113C201.035 257.113 195.994 254.962 194.322 257.852C192.798 260.486 195.892 262.784 195.892 262.784C195.892 262.784 192.61 262.005 191.631 264.824C190.453 268.215 197.526 269.292 199.301 273.758C199.699 274.761 227.601 272.745 227.601 272.745Z" fill="#AD6359"/>
<path d="M214.543 265.56C212.702 263.044 207.055 258.403 201.166 257.069C201.033 257.039 200.938 257.124 201.054 257.177C207.227 260.022 212.402 263.85 214.5 265.606C214.529 265.63 214.564 265.589 214.543 265.56Z" fill="#263238"/>
<path d="M209.81 270.354C207.999 268.346 201.964 263.823 195.95 262.676C195.816 262.651 195.727 262.742 195.845 262.79C202.416 265.497 207.57 268.774 209.77 270.402C209.8 270.425 209.834 270.38 209.81 270.354Z" fill="#263238"/>
<path d="M190.65 279.59L212.974 303.261C212.974 303.261 189.398 329.693 178.329 326.929C167.26 324.165 146.33 294.203 139.62 275.18C134.977 262.017 142.302 264.13 149.991 270.584C157.68 277.037 177.792 293.054 178.671 292.816C179.55 292.576 190.65 279.59 190.65 279.59Z" fill="#DD9183"/>
<path opacity="0.1" d="M183.089 326.683C181.348 327.155 179.735 327.283 178.328 326.929C167.262 324.165 146.33 294.203 139.622 275.18C136.563 266.504 138.698 264.468 142.72 265.943C154.78 283.836 170.833 307.817 183.089 326.683Z" fill="black"/>
<path d="M205.732 307.196C202.499 303.932 189.756 290.092 187.206 286.915C187.029 286.695 187.125 286.529 187.339 286.735C197.263 296.283 202.849 303.701 205.856 307.064C205.932 307.148 205.814 307.278 205.732 307.196Z" fill="#263238"/>
<path d="M167.487 344.998C167.487 344.998 94.1982 358.401 93.8222 357.953C93.4852 357.562 101.887 278.278 126.763 264.879C130.707 262.755 140.226 261.504 144.289 265.65C155.874 277.474 168.448 343.923 167.487 344.998Z" fill="#DD9183"/>
<path d="M166.724 338.429L94.5469 350.812C94.8209 348.633 95.1819 346.031 95.6339 343.106L165.393 331.137C165.927 333.901 166.372 336.368 166.724 338.429Z" fill="#EBEBEB"/>
<path d="M164.615 327.266L96.2793 338.992C96.4903 337.695 96.7193 336.357 96.9683 334.979L163.831 323.508C164.11 324.79 164.368 326.052 164.615 327.266Z" fill="#EBEBEB"/>
<path d="M141.053 277.725C136.963 277.705 131.75 270.186 130.285 264.76C130.187 264.388 131.527 261.047 132.964 256.91C133.826 254.396 134.727 251.577 135.363 248.945L150.902 256.946C150.902 256.946 147.946 262.071 146.864 266.667C146.778 267.052 146.73 267.418 146.716 267.774C146.709 267.825 146.709 267.889 146.696 267.959C146.537 270.091 145.007 277.742 141.053 277.725Z" fill="#AD6359"/>
<path d="M150.908 256.945C150.908 256.945 147.948 262.067 146.866 266.672C146.783 267.051 146.725 267.418 146.72 267.776C146.717 267.827 146.714 267.891 146.698 267.953C146.164 267.913 145.594 267.807 144.978 267.634C135.428 265.096 135.592 252.549 135.818 249.176L150.908 256.945Z" fill="#263238"/>
<path d="M134.696 230.826C132.209 236.61 133.463 254.25 137.295 258.575C142.85 264.845 152.896 266.494 158.463 259.599C163.86 252.915 161.819 229.955 157.45 225.927C151.015 219.994 138.37 222.282 134.696 230.826Z" fill="#AD6359"/>
<path d="M150.795 243.514C150.782 243.47 150.708 243.578 150.714 243.626C150.86 244.8 150.829 246.17 149.8 246.659C149.768 246.674 149.777 246.733 149.816 246.724C151.099 246.421 151.121 244.603 150.795 243.514Z" fill="#263238"/>
<path d="M149.63 242.383C147.722 242.413 147.924 246.227 149.691 246.198C151.43 246.17 151.229 242.357 149.63 242.383Z" fill="#263238"/>
<path d="M157.732 243.137C157.739 243.091 157.827 243.188 157.828 243.237C157.853 244.42 158.081 245.771 159.17 246.107C159.204 246.118 159.204 246.177 159.164 246.173C157.85 246.059 157.566 244.262 157.732 243.137Z" fill="#263238"/>
<path d="M158.722 241.847C160.614 241.602 160.964 245.405 159.211 245.631C157.485 245.855 157.136 242.052 158.722 241.847Z" fill="#263238"/>
<path d="M148.032 240.717C148.545 240.559 148.991 240.328 149.482 240.119C150.036 239.884 150.5 239.753 150.844 239.227C151.028 238.945 150.92 238.462 150.663 238.258C150.064 237.782 149.314 237.902 148.636 238.159C147.9 238.437 147.405 238.84 147.011 239.519C146.628 240.177 147.356 240.926 148.032 240.717Z" fill="#263238"/>
<path d="M160.095 239.849C159.562 239.791 159.08 239.648 158.559 239.536C157.97 239.41 157.489 239.369 157.053 238.918C156.819 238.676 156.834 238.182 157.048 237.932C157.545 237.351 158.304 237.327 159.019 237.451C159.794 237.585 160.357 237.886 160.873 238.479C161.371 239.053 160.798 239.926 160.095 239.849Z" fill="#263238"/>
<path d="M150.096 254.019C150.337 254.333 150.563 254.751 150.983 254.847C151.386 254.94 151.89 254.824 152.284 254.733C152.323 254.724 152.355 254.769 152.326 254.8C151.958 255.206 151.278 255.396 150.749 255.223C150.232 255.054 150.035 254.559 149.976 254.056C149.967 253.986 150.06 253.974 150.096 254.019Z" fill="#263238"/>
<path d="M151.405 250.542C152.12 251.532 153.122 252.041 154.184 252.19C154.658 252.26 155.153 252.25 155.634 252.18C155.729 252.173 156.071 252.105 156.165 252.08C156.302 252.053 156.371 251.935 156.388 251.803L156.387 251.795C156.384 251.751 156.177 249.273 156.177 249.273C156.518 249.422 158.253 250.095 158.201 249.621C157.758 245.7 157.266 241.34 155.998 237.531C155.963 237.403 155.766 237.444 155.784 237.573C156.06 241.358 157 245.069 157.338 248.867C156.787 248.69 155.885 248.356 155.409 248.391C155.341 248.411 155.747 251.477 155.74 251.503C154.222 251.779 153.046 251.378 151.509 250.431C151.418 250.367 151.329 250.452 151.405 250.542Z" fill="#263238"/>
<path d="M155.25 252.008C155.25 252.008 154.406 253.156 153.246 253.573C152.819 253.728 152.358 253.79 151.874 253.663C150.881 253.406 150.853 252.495 151.032 251.715C151.177 251.074 151.473 250.52 151.473 250.52C151.473 250.52 152.926 251.872 155.25 252.008Z" fill="#263238"/>
<path d="M153.246 253.573C152.819 253.728 152.358 253.79 151.874 253.663C150.881 253.406 150.853 252.495 151.032 251.715C152.096 251.821 153.152 252.539 153.246 253.573Z" fill="#FF9CBD"/>
<path d="M133.07 246.758C137.668 247.115 140.109 241.648 139.065 237.227C139.065 237.227 151.283 238.94 151.942 229.125C151.942 229.125 154.848 233.586 160.394 233.772L161.201 237.221C162.458 236.868 163.82 233.312 160.771 230.492C160.771 230.492 160.595 225.596 157.009 222.632C153.423 219.668 149.823 221.573 149.823 221.573C149.823 221.573 146.972 219.157 142.462 219.701C137.952 220.244 136.067 224.34 136.067 224.34C136.067 224.34 129.999 225.453 128.936 229.749C127.873 234.045 130.076 236.947 130.076 236.947C130.076 236.947 128.543 238.626 129.288 242.305C129.767 244.67 131.69 246.651 133.07 246.758Z" fill="#263238"/>
<path d="M151.678 228.25C151.753 229.052 151.779 229.856 151.688 230.648C151.637 231.442 151.465 232.219 151.227 232.964C150.723 234.445 149.734 235.736 148.369 236.467C147.042 237.304 145.411 237.425 143.852 237.566C143.06 237.536 142.259 237.563 141.463 237.488C140.668 237.402 139.873 237.296 139.066 237.226C139.846 237.422 140.638 237.583 141.43 237.764C142.228 237.896 143.044 237.92 143.856 238.002C145.471 237.948 147.177 237.824 148.649 236.96C150.111 236.129 151.204 234.691 151.642 233.093C152.074 231.497 152.058 229.817 151.678 228.25Z" fill="#263238"/>
<path d="M157.942 233.973C156.584 233.467 155.318 232.831 154.247 231.948C153.699 231.522 153.241 231 152.826 230.444C152.393 229.891 152.122 229.24 151.812 228.578C151.893 229.296 152.074 230.033 152.457 230.676C152.812 231.331 153.306 231.917 153.887 232.385C154.469 232.852 155.114 233.237 155.805 233.498C156.492 233.761 157.21 233.95 157.942 233.973Z" fill="#263238"/>
<path d="M148.471 249.475C146.179 249.364 144.159 247.713 143.681 245.364C143.116 242.585 144.917 239.864 147.695 239.299C150.474 238.733 153.194 240.534 153.76 243.313C154.325 246.091 152.524 248.812 149.746 249.378C149.316 249.465 148.889 249.496 148.471 249.475ZM148.936 239.888C148.574 239.87 148.203 239.897 147.832 239.973C145.425 240.463 143.865 242.82 144.354 245.227C144.845 247.633 147.203 249.196 149.608 248.704C152.016 248.214 153.575 245.857 153.086 243.449C152.671 241.414 150.922 239.984 148.936 239.888Z" fill="#DD9183"/>
<path d="M160.241 248.607C158.276 248.512 156.59 246.412 156.406 243.735C156.313 242.384 156.611 241.083 157.245 240.074C157.899 239.029 158.833 238.414 159.875 238.343C160.92 238.269 161.926 238.753 162.717 239.699C163.482 240.614 163.954 241.861 164.046 243.211C164.239 246.04 162.684 248.459 160.578 248.604C160.465 248.611 160.353 248.612 160.241 248.607ZM160.183 239.026C160.096 239.022 160.009 239.023 159.922 239.029C159.106 239.085 158.362 239.586 157.827 240.439C157.271 241.327 157.01 242.481 157.092 243.688C157.261 246.139 158.797 248.038 160.531 247.918C162.259 247.8 163.527 245.709 163.36 243.259C163.277 242.052 162.861 240.944 162.189 240.14C161.612 239.449 160.908 239.061 160.183 239.026Z" fill="#DD9183"/>
<path d="M153.628 243.918L153.151 243.423C153.884 242.716 155.624 241.714 156.968 242.969L156.499 243.471C155.296 242.345 153.696 243.854 153.628 243.918Z" fill="#DD9183"/>
<path d="M131.884 246.921L131.253 246.648C131.381 246.354 132.542 243.764 134.057 243.41C135.473 243.083 143.701 243.197 144.094 243.207L144.076 243.894C141.423 243.825 135.307 243.824 134.214 244.079C133.213 244.313 132.193 246.21 131.884 246.921Z" fill="#DD9183"/>
<path d="M137.41 246.448C137.41 246.448 133.996 240.492 131.328 241.66C128.66 242.828 130.875 251.215 133.76 252.595C136.644 253.975 137.974 251.329 137.974 251.329L137.41 246.448Z" fill="#AD6359"/>
<path d="M132.023 244.048C131.976 244.039 131.96 244.106 132 244.126C134.017 245.162 134.944 247.202 135.534 249.284C134.981 248.453 134.172 247.953 133.068 248.6C133.01 248.634 133.054 248.724 133.114 248.717C133.988 248.611 134.593 248.815 135.11 249.554C135.477 250.077 135.701 250.717 135.945 251.305C136.026 251.501 136.373 251.431 136.321 251.209C136.317 251.193 136.312 251.176 136.309 251.159C136.602 248.495 134.864 244.574 132.023 244.048Z" fill="#263238"/>
<path d="M146.943 269.834C146.941 269.799 146.888 269.797 146.886 269.833C146.721 273.167 146.112 280.872 140.743 279.815C138.58 279.389 136.738 277.867 135.222 276.406C133.665 274.907 130.282 270.713 128.049 266.113C128.005 266.023 127.877 266.09 127.906 266.189C128.271 267.444 129.247 269.693 130.518 271.761C131.741 273.752 133.178 275.637 134.917 277.247C136.546 278.755 138.518 280.289 140.82 280.634C143.01 280.962 144.761 279.836 145.629 277.961C146.769 275.498 147.068 272.501 146.943 269.834Z" fill="#263238"/>
<path d="M118.543 271.216C107.099 281.247 77.7712 320.716 84.9722 329.174C92.2252 337.692 137.437 331.761 150.454 327.089C154.326 325.699 142.594 301.249 138.305 300.275C134.734 299.464 115.397 306.066 114.969 304.949C114.485 303.687 118.312 295.108 124.372 279.492C131.358 261.487 123.598 266.785 118.543 271.216Z" fill="#AD6359"/>
<path d="M157.412 294.68C166.52 294.33 168.912 295.638 176.441 291.261C181.382 288.389 185.336 290.311 182.177 295.346C177.009 303.581 165.353 306.5 161.021 306.348L157.412 294.68Z" fill="#AD6359"/>
<path d="M132.687 300.934C132.687 300.934 143.341 296.342 153.01 295.009C159.696 294.088 174.466 293.704 186.977 309.494C189.944 313.239 191.517 320.68 184.448 316.324C179.427 313.229 177.178 309.75 173.93 308.481C173.93 308.481 174.806 318.184 170.938 321.01C169.21 322.273 164.411 325.61 160.304 327.675C160.304 327.675 159.614 326.902 158.879 325.797C158.879 325.797 155.016 328.096 148.312 326.772L132.687 300.934Z" fill="#AD6359"/>
<path d="M159.532 295.148C162.49 297.089 168.69 301.307 172.561 306.521C176.861 312.313 183.584 324.629 179.276 327.76C176.117 330.055 173.137 325.579 173.137 325.579C173.137 325.579 174.843 331.255 171.535 332.705C168.521 334.026 166.423 330.424 166.423 330.424C166.423 330.424 166.866 334.045 163.718 334.758C159.932 335.616 159.625 327.886 155.04 325.441C154.011 324.891 159.532 295.148 159.532 295.148Z" fill="#AD6359"/>
<path d="M165.684 310.044C168.166 312.325 172.475 318.952 173.2 325.442C173.216 325.589 173.114 325.68 173.07 325.549C170.755 318.574 167.264 312.551 165.629 310.084C165.607 310.052 165.656 310.019 165.684 310.044Z" fill="#263238"/>
<path d="M159.963 314.554C161.902 316.742 166.038 323.771 166.547 330.373C166.558 330.52 166.449 330.605 166.412 330.472C164.293 323.084 161.391 317.151 159.906 314.591C159.886 314.557 159.938 314.526 159.963 314.554Z" fill="#263238"/>
<path d="M173.939 308.422C176.779 309.577 178.539 311.205 180.837 313.168C181.974 314.139 183.129 315.095 184.368 315.935C185.496 316.7 187.156 317.851 188.528 316.968C189.291 316.477 189.383 315.453 189.307 314.631C189.221 313.707 188.494 311.945 188.032 311.139C188.009 311.098 188.079 311.056 188.103 311.097C188.532 311.816 189.355 313.427 189.565 314.239C189.754 314.974 189.876 315.819 189.6 316.55C189.008 318.121 187.083 318.142 185.78 317.563C185 317.217 184.28 316.711 183.588 316.217C182.919 315.739 182.274 315.229 181.641 314.703C180.344 313.623 179.11 312.47 177.826 311.375C176.415 310.172 175.419 309.554 173.883 308.516C173.833 308.48 173.883 308.399 173.939 308.422Z" fill="#263238"/>
<path d="M179.034 319.335C178.444 317.59 175.04 310.227 173.871 308.485C173.841 308.44 173.902 308.393 173.937 308.434C176.002 310.826 179.092 316.938 179.762 318.864C180.424 320.768 181.164 323.19 180.96 325.217C180.654 328.276 178.567 328.651 177.802 328.726C176.889 328.815 176.004 328.536 175.242 328.039C174.394 327.486 173.625 326.437 173.105 325.585C173.078 325.54 173.139 325.489 173.171 325.534C174.11 326.845 175.751 328.211 177.435 328.159C178.166 328.137 178.929 327.882 179.429 327.328C180.017 326.678 180.151 325.758 180.165 324.914C180.196 323.002 179.64 321.127 179.034 319.335Z" fill="#263238"/>
<path d="M132.686 300.932L143.854 332.134C143.854 332.134 87.2317 339.015 83.4207 328.897C79.6097 318.779 104.901 283.21 115.694 273.196C128.202 261.591 129.202 266.065 125.595 277.102C121.819 288.657 115.103 305.243 115.103 305.243L132.686 300.932Z" fill="#DD9183"/>
<path d="M97.4758 311.486C100.212 309.95 103.099 308.677 106.027 307.553C108.927 306.44 111.933 305.644 114.962 304.969C116.692 304.584 118.435 304.283 120.179 303.97C120.232 303.96 120.245 304.042 120.192 304.053C117.142 304.683 114.133 305.583 111.178 306.559C108.234 307.532 105.313 308.556 102.408 309.636C100.764 310.247 99.1498 310.936 97.5278 311.601C97.4508 311.632 97.4068 311.525 97.4758 311.486Z" fill="#263238"/>
<path d="M132.546 300.831C132.26 300.876 116.615 304.356 116.095 304.538C116.181 304.316 119.706 296.536 120.231 295.398C120.283 295.285 120.33 295.169 120.381 295.056C120.71 294.558 121.042 294.062 121.351 293.551C121.747 292.896 122.138 292.237 122.531 291.58C122.543 291.56 122.514 291.539 122.501 291.559C122.08 292.197 121.658 292.834 121.24 293.474C121.047 293.77 120.863 294.072 120.682 294.375C121.032 293.569 121.372 292.76 121.712 291.946C122.254 290.65 122.753 289.34 123.249 288.025C123.265 287.983 123.202 287.961 123.183 288.002C122.144 290.27 121.034 292.504 119.988 294.768C118.944 297.029 114.959 305.363 114.984 305.358C115.009 305.383 132.254 301.146 132.588 301.044C132.719 301.004 132.687 300.809 132.546 300.831Z" fill="#263238"/>
<path d="M131.619 320.361C130.394 316.881 129.196 313.39 127.842 309.954C127.073 308.002 126.314 306.046 125.526 304.101C125.496 304.028 125.367 304.068 125.39 304.145C126.481 307.687 127.584 311.236 128.837 314.728C130.083 318.202 131.301 321.686 132.593 325.144C133.328 327.11 134.119 329.047 134.972 330.967C134.989 331.005 135.055 330.985 135.043 330.944C134.07 327.363 132.852 323.865 131.619 320.361Z" fill="#263238"/>
<path d="M144.522 332.673C144.059 331.701 143.492 330.309 142.989 329.357C142.856 329.105 142.669 329.136 142.77 329.397C143.108 330.271 143.364 331.243 143.696 332.139C142.903 332.216 142.109 332.275 141.316 332.36C140.399 332.458 139.483 332.561 138.567 332.656C136.772 332.842 134.974 333.01 133.175 333.159C129.532 333.461 125.883 333.686 122.23 333.833C114.909 334.128 107.557 334.157 100.243 333.692C98.1972 333.562 96.1522 333.392 94.1152 333.159C92.0462 332.923 89.8122 332.654 88.1212 332.266C88.0672 332.254 88.0472 332.345 88.1012 332.362C89.8412 332.905 91.4722 333.297 93.2722 333.567C95.1092 333.843 96.9552 334.068 98.8052 334.233C102.49 334.56 106.192 334.691 109.89 334.722C117.224 334.784 124.564 334.527 131.878 333.979C133.927 333.826 135.975 333.648 138.02 333.446C139.052 333.344 140.084 333.242 141.114 333.121C142.144 332.999 144.6 332.839 144.522 332.673Z" fill="#263238"/>
<path d="M217.469 331.977H146.182V335.17H217.469V331.977Z" fill="#C7C7C7"/>
<path d="M217.468 331.977V335.17H169.011L171.454 331.977H217.468Z" fill="#A6A6A6"/>
<path d="M178.812 335.171H241.203L250.231 291.152H187.839L178.812 335.171Z" fill="#A6A6A6"/>
<path d="M181.728 335.171H244.12L253.148 291.152H190.756L181.728 335.171Z" fill="#C7C7C7"/>
<path d="M223.063 311.524C223.128 313.604 221.736 315.59 219.954 315.962C218.172 316.334 216.675 314.951 216.61 312.871C216.545 310.791 217.937 308.804 219.719 308.432C221.501 308.06 222.998 309.444 223.063 311.524Z" fill="white"/>
<path d="M362.757 426.548C361.827 428.968 317.056 483.254 314.041 484.246C312.899 484.628 304.613 478.569 294.808 470.963C292.69 469.321 290.514 467.612 288.313 465.864C274.011 454.534 259.102 442.178 259.102 442.178L288.946 405.777L317.336 430.465L323.572 435.879C323.572 435.879 350.01 422.761 353.434 422.029C356.848 421.309 363.686 424.129 362.757 426.548Z" fill="#AD6359"/>
<path d="M362.757 426.547C361.826 428.967 317.055 483.253 314.04 484.245C312.648 484.703 300.705 475.664 288.312 465.863L317.335 430.464L323.571 435.878C323.571 435.878 350.009 422.76 353.433 422.028C356.848 421.308 363.686 424.128 362.757 426.547Z" fill="#EBEBEB"/>
<path d="M362.757 426.547C361.827 428.967 317.056 483.253 314.041 484.245C312.899 484.627 304.613 478.568 294.808 470.962L323.572 435.879C323.572 435.879 350.01 422.761 353.434 422.029C356.848 421.308 363.686 424.128 362.757 426.547Z" fill="#DD9183"/>
<path d="M359.942 425.533C352.214 434.449 321.884 471.138 314.922 480.539C314.865 480.615 314.915 480.656 314.979 480.586C322.832 471.917 352.864 434.982 360.092 425.656C360.244 425.459 360.105 425.345 359.942 425.533Z" fill="#263238"/>
<path d="M348.601 423.909C346.733 425.995 346.019 428.949 346.334 431.186C346.636 433.335 347.575 435.734 349.515 437.227C349.571 437.27 349.655 437.171 349.606 437.117C346.473 433.661 346.017 427.842 348.716 424.004C348.769 423.925 348.665 423.837 348.601 423.909Z" fill="#263238"/>
<path d="M327.386 433.094C324.331 436.695 322.135 441.978 323.247 446.698C323.29 446.881 323.549 446.817 323.583 446.663C324.601 441.97 325.918 437.797 327.886 433.401C328.025 433.091 327.605 432.836 327.386 433.094Z" fill="#263238"/>
<path d="M330.803 431.188C327.748 434.789 325.551 440.072 326.664 444.792C326.707 444.975 326.966 444.911 327 444.756C328.018 440.064 329.335 435.891 331.303 431.494C331.441 431.185 331.021 430.93 330.803 431.188Z" fill="#263238"/>
<path d="M334.218 429.278C331.163 432.879 328.966 438.162 330.079 442.882C330.122 443.065 330.381 443.001 330.415 442.847C331.433 438.155 332.75 433.982 334.719 429.586C334.856 429.276 334.436 429.02 334.218 429.278Z" fill="#263238"/>
<path d="M337.632 427.372C334.577 430.973 332.381 436.255 333.493 440.976C333.536 441.159 333.796 441.095 333.829 440.941C334.847 436.249 336.164 432.076 338.133 427.679C338.27 427.369 337.85 427.114 337.632 427.372Z" fill="#263238"/>
<path d="M308.191 471.095C304.833 475.191 311.193 480.417 314.557 476.314C317.916 472.217 311.555 466.991 308.191 471.095Z" fill="white"/>
<path d="M320.913 421.143C317.864 421.726 317.442 425.281 318.092 427.726C319.144 431.687 321.705 435.925 324.676 438.717C324.75 438.786 324.829 438.752 324.874 438.689C325.199 438.826 325.672 438.699 325.708 438.276C326.053 434.204 326.927 429.892 326.011 425.835C325.478 423.468 323.797 420.592 320.913 421.143ZM324.969 431.996C324.848 434.003 324.629 435.992 324.582 438.003C323.303 435.856 321.939 433.775 320.878 431.5C320.372 430.414 319.872 429.29 319.518 428.143C318.967 426.36 318.871 420.274 323.133 423.18C325.484 424.782 325.113 429.604 324.969 431.996Z" fill="#263238"/>
<path d="M318.565 448.881C321.668 446.111 323.462 442.095 325.549 438.581C325.765 438.217 325.455 437.838 325.11 437.761C325.11 437.683 325.065 437.61 324.965 437.623C320.923 438.168 316.377 440.128 313.219 442.74C311.269 444.353 309.546 447.49 311.688 449.737C313.714 451.861 316.754 450.498 318.565 448.881ZM314.678 449.37C309.521 449.258 313.136 444.361 314.621 443.23C315.575 442.503 316.635 441.878 317.678 441.289C319.864 440.055 322.184 439.154 324.473 438.15C323.342 439.814 322.364 441.559 321.296 443.263C320.023 445.292 317.521 449.432 314.678 449.37Z" fill="#263238"/>
<path d="M315.867 424.899L282.641 464.283L182.415 392.915L172.545 385.883C172.545 385.883 169.704 387.745 165.432 390.04C159.499 393.226 150.812 397.246 143.159 398.278C130.32 400.019 110.997 399.58 100.372 385.005C91.4226 372.733 94.4836 356.9 94.4836 356.9L108.628 351.029C108.628 351.029 142.265 323.69 163.845 323.116C173.011 322.863 186.267 329.969 198.533 337.373C210.789 344.767 315.867 424.899 315.867 424.899Z" fill="#263238"/>
<path d="M172.545 385.883C172.545 385.883 169.704 387.745 165.432 390.04C158.041 380.97 142.359 364.468 141.884 363.883L172.545 385.883Z" fill="#37474F"/>
<path d="M120.942 341.89C118.935 343.248 116.991 344.693 115.01 346.088C113.062 347.46 111.051 348.747 109.197 350.248C107.311 351.775 105.521 353.408 103.741 355.057C102.882 355.852 102.03 356.654 101.2 357.478C100.377 358.295 99.4575 359.114 98.7715 360.051C98.7075 360.138 98.8325 360.245 98.9165 360.192C99.8745 359.594 100.738 358.768 101.61 358.053C102.552 357.281 103.482 356.496 104.42 355.719C106.228 354.219 108.071 352.763 109.875 351.258C111.667 349.764 113.331 348.125 115.106 346.611C117.007 344.991 119.008 343.485 120.98 341.953C121.018 341.925 120.983 341.862 120.942 341.89Z" fill="#37474F"/>
<path d="M305.605 421.107C303.592 423.226 301.727 425.509 299.848 427.749C297.962 429.997 296.088 432.255 294.226 434.523C290.501 439.062 286.746 443.579 283.084 448.168C281.072 450.689 279.086 453.23 277.212 455.856C277.129 455.973 277.315 456.108 277.411 456.006C281.411 451.714 285.075 447.128 288.792 442.593C292.516 438.05 296.227 433.494 299.882 428.896C301.882 426.379 303.942 423.877 305.785 421.243C305.858 421.135 305.692 421.015 305.605 421.107Z" fill="#37474F"/>
<path d="M230.279 426.883C225.192 422.773 213.611 414.728 208.332 410.866C203.08 407.024 197.831 403.172 192.498 399.443C190.967 398.372 189.422 397.323 187.879 396.27C186.339 395.219 184.734 394.246 183.226 393.156C183.138 393.093 183.057 393.239 183.143 393.302C184.528 394.32 185.833 395.46 187.194 396.516C188.493 397.524 189.781 398.545 191.091 399.539C193.647 401.48 196.229 403.385 198.807 405.297C204.035 409.174 209.302 413.004 214.625 416.75C217.647 418.877 226.956 425.172 230.047 427.196C230.229 427.316 230.454 427.024 230.279 426.883Z" fill="#37474F"/>
<path d="M263.193 384.63C258.494 380.638 247.766 372.946 242.836 369.249C237.849 365.509 232.888 361.736 227.881 358.022C222.913 354.338 217.946 350.655 212.978 346.971C208.162 343.4 203.371 339.772 198.278 336.6C195.491 334.864 192.63 333.252 189.687 331.795C186.828 330.38 183.857 328.94 180.793 328.035C180.701 328.008 180.649 328.142 180.73 328.189C183.242 329.632 185.884 330.853 188.427 332.247C190.941 333.625 193.416 335.074 195.849 336.589C200.905 339.739 205.672 343.305 210.462 346.839C220.409 354.178 230.335 361.547 240.355 368.786C245.961 372.837 257.134 381.202 262.963 384.934C263.146 385.052 263.36 384.772 263.193 384.63Z" fill="#37474F"/>
</svg>
