<svg width="20" height="21" viewBox="0 0 20 21" fill="none" xmlns="http://www.w3.org/2000/svg">
<g id="Password">
<path id="Vector" d="M10.0007 14.6654C9.55862 14.6654 9.1347 14.4898 8.82214 14.1772C8.50958 13.8646 8.33398 13.4407 8.33398 12.9987C8.33398 12.0737 9.07565 11.332 10.0007 11.332C10.4427 11.332 10.8666 11.5076 11.1792 11.8202C11.4917 12.1327 11.6673 12.5567 11.6673 12.9987C11.6673 13.4407 11.4917 13.8646 11.1792 14.1772C10.8666 14.4898 10.4427 14.6654 10.0007 14.6654ZM15.0007 17.1654V8.83203H5.00065V17.1654H15.0007ZM15.0007 7.16536C15.4427 7.16536 15.8666 7.34096 16.1792 7.65352C16.4917 7.96608 16.6673 8.39 16.6673 8.83203V17.1654C16.6673 17.6074 16.4917 18.0313 16.1792 18.3439C15.8666 18.6564 15.4427 18.832 15.0007 18.832H5.00065C4.55862 18.832 4.1347 18.6564 3.82214 18.3439C3.50958 18.0313 3.33398 17.6074 3.33398 17.1654V8.83203C3.33398 7.90703 4.07565 7.16536 5.00065 7.16536H5.83398V5.4987C5.83398 4.39363 6.27297 3.33382 7.05437 2.55242C7.83577 1.77102 8.89558 1.33203 10.0007 1.33203C10.5478 1.33203 11.0896 1.43981 11.5952 1.6492C12.1007 1.85859 12.56 2.16551 12.9469 2.55242C13.3338 2.93933 13.6408 3.39866 13.8501 3.90418C14.0595 4.40971 14.1673 4.95152 14.1673 5.4987V7.16536H15.0007ZM10.0007 2.9987C9.33761 2.9987 8.70172 3.26209 8.23288 3.73093C7.76404 4.19977 7.50065 4.83566 7.50065 5.4987V7.16536H12.5007V5.4987C12.5007 4.83566 12.2373 4.19977 11.7684 3.73093C11.2996 3.26209 10.6637 2.9987 10.0007 2.9987Z" fill="#636366"/>
</g>
</svg>
