<svg width="24" height="24" viewBox="0 0 24 24" fill="none" xmlns="http://www.w3.org/2000/svg">
<g id="right arrow">
<path id="Vector" d="M4.45499 11.67C4.24431 11.4591 4.12598 11.1731 4.12598 10.875C4.12598 10.5769 4.24431 10.2909 4.45499 10.08L10.83 3.705C11.0409 3.49433 11.3269 3.37599 11.625 3.37599C11.9231 3.37599 12.209 3.49433 12.42 3.705L18.795 10.08C18.9936 10.2934 19.1018 10.5755 19.0967 10.8669C19.0917 11.1584 18.9739 11.4366 18.768 11.643C18.5616 11.8489 18.2834 11.9667 17.9919 11.9717C17.7005 11.9768 17.4184 11.8686 17.205 11.67L12.75 7.215V18.375C12.75 18.6734 12.6315 18.9595 12.4205 19.1705C12.2095 19.3815 11.9234 19.5 11.625 19.5C11.3266 19.5 11.0405 19.3815 10.8295 19.1705C10.6185 18.9595 10.5 18.6734 10.5 18.375V7.215L6.04499 11.67C5.83405 11.8807 5.54811 11.999 5.24999 11.999C4.95186 11.999 4.66592 11.8807 4.45499 11.67Z" fill="#FBFEFC"/>
</g>
</svg>
