<svg width="400" height="400" viewBox="0 0 400 400" fill="none" xmlns="http://www.w3.org/2000/svg">
<path d="M373.511 252.962H242.421V177.086H373.511V252.962ZM243.221 252.162H372.711V177.886H243.221V252.162Z" fill="#E0E0E0"/>
<path d="M346.471 217.543H259.963V220.081H346.471V217.543Z" fill="#F0F0F0"/>
<path d="M352.428 227H259.963V229.769H352.428V227Z" fill="#F0F0F0"/>
<path d="M352.428 236.566H259.963V239.335H352.428V236.566Z" fill="#F0F0F0"/>
<path d="M290.196 203.809H259.963V210.392H290.196V203.809Z" fill="#F0F0F0"/>
<path d="M373.112 177.484H242.821V189.564H373.112V177.484Z" fill="#E0E0E0"/>
<path d="M363.086 187.76C362.919 187.601 364.598 185.576 366.834 183.238C369.072 180.898 371.02 179.132 371.186 179.291C371.353 179.45 369.674 181.475 367.436 183.814C365.2 186.152 363.252 187.919 363.086 187.76Z" fill="white"/>
<path d="M371.187 187.76C371.021 187.919 369.073 186.152 366.836 183.814C364.598 181.474 362.919 179.45 363.086 179.291C363.252 179.133 365.199 180.898 367.437 183.238C369.674 185.576 371.354 187.601 371.187 187.76Z" fill="white"/>
<path d="M212.182 27.2422H81.8906V102.318H212.182V27.2422Z" fill="#E6E6E6"/>
<path d="M185.54 67.3008H99.0332V69.8384H185.54V67.3008Z" fill="#F0F0F0"/>
<path d="M191.499 76.7578H99.0332V79.5258H191.499V76.7578Z" fill="#F0F0F0"/>
<path d="M191.499 86.3242H99.0332V89.0922H191.499V86.3242Z" fill="#F0F0F0"/>
<path d="M129.267 53.5625H99.0332V60.1457H129.267V53.5625Z" fill="#F0F0F0"/>
<path d="M212.182 27.2422H81.8906V39.3206H212.182V27.2422Z" fill="#E0E0E0"/>
<path d="M201.709 37.4599C201.542 37.3007 203.221 35.2759 205.457 32.9375C207.695 30.5983 209.643 28.8319 209.809 28.9903C209.976 29.1495 208.297 31.1735 206.059 33.5127C203.824 35.8511 201.875 37.6183 201.709 37.4599Z" fill="white"/>
<path d="M209.81 37.4592C209.644 37.6184 207.696 35.8512 205.459 33.5128C203.221 31.1736 201.543 29.1488 201.709 28.9904C201.875 28.8312 203.823 30.5984 206.06 32.9376C208.298 35.2752 209.977 37.3 209.81 37.4592Z" fill="white"/>
<path d="M162.836 166.712H31.7451V90.8359H162.836V166.712ZM32.5451 165.912H162.036V91.6359H32.5451V165.912Z" fill="#E0E0E0"/>
<path d="M135.795 131.293H49.2871V133.831H135.795V131.293Z" fill="#F0F0F0"/>
<path d="M141.754 140.75H49.2871V143.518H141.754V140.75Z" fill="#F0F0F0"/>
<path d="M141.754 150.316H49.2871V153.084H141.754V150.316Z" fill="#F0F0F0"/>
<path d="M79.5207 117.559H49.2871V124.143H79.5207V117.559Z" fill="#F0F0F0"/>
<path d="M162.436 91.2344H32.1455V103.314H162.436V91.2344Z" fill="#E0E0E0"/>
<path d="M314.125 184.098H160.282V321.822H314.125V184.098Z" fill="#E6E6E6"/>
<path d="M168.015 140.711H47.5049V265.918H168.015V140.711Z" fill="#F0F0F0"/>
<path d="M168.015 140.711H47.5049V154.353H168.015V140.711Z" fill="#E0E0E0"/>
<path d="M57.4573 147.391C57.4573 148.852 56.3245 150.036 54.9269 150.036C53.5293 150.036 52.3965 148.852 52.3965 147.391C52.3965 145.93 53.5293 144.746 54.9269 144.746C56.3245 144.746 57.4573 145.93 57.4573 147.391Z" fill="white"/>
<path d="M67.719 147.391C67.719 148.852 66.5862 150.036 65.1886 150.036C63.791 150.036 62.6582 148.852 62.6582 147.391C62.6582 145.93 63.791 144.746 65.1886 144.746C66.5862 144.746 67.719 145.93 67.719 147.391Z" fill="white"/>
<path d="M77.9827 147.391C77.9827 148.852 76.8499 150.036 75.4523 150.036C74.0547 150.036 72.9219 148.852 72.9219 147.391C72.9219 145.93 74.0547 144.746 75.4523 144.746C76.8499 144.746 77.9827 145.93 77.9827 147.391Z" fill="white"/>
<path d="M356.308 54.6289H202.465V207.958H356.308V54.6289Z" fill="#F0F0F0"/>
<path d="M356.308 54.6289H202.465V72.5889H356.308V54.6289Z" fill="#E0E0E0"/>
<path d="M215.567 63.423C215.567 65.3462 214.076 66.9054 212.236 66.9054C210.396 66.9054 208.905 65.3462 208.905 63.423C208.905 61.4998 210.396 59.9414 212.236 59.9414C214.075 59.9414 215.567 61.5006 215.567 63.423Z" fill="white"/>
<path d="M228.102 61.0679C229.461 62.4279 229.509 64.5847 228.209 65.8847C226.908 67.1855 224.751 67.1375 223.392 65.7783C222.033 64.4183 221.984 62.2615 223.285 60.9607C224.585 59.6599 226.741 59.7079 228.102 61.0679Z" fill="white"/>
<path d="M242.589 63.423C242.589 65.3462 241.098 66.9054 239.258 66.9054C237.418 66.9054 235.928 65.3462 235.928 63.423C235.928 61.4998 237.418 59.9414 239.258 59.9414C241.098 59.9414 242.589 61.5006 242.589 63.423Z" fill="white"/>
<path d="M323.074 362.506C323.074 362.62 267.522 362.714 199.012 362.714C130.478 362.714 74.9385 362.621 74.9385 362.506C74.9385 362.39 130.478 362.297 199.012 362.297C267.522 362.298 323.074 362.391 323.074 362.506Z" fill="#263238"/>
<path d="M268.943 264.57C256.585 255.936 253.781 239.91 254.27 225.503C254.351 223.098 254.087 220.563 255.231 218.453C256.375 216.343 259.044 214.902 261.197 215.914C262.983 216.755 263.761 218.832 264.76 220.55C266.089 222.836 268.07 224.728 270.4 225.937C271.931 226.731 273.826 227.218 275.338 226.384C277.412 225.239 277.656 222.374 277.642 219.982C277.614 215.524 277.587 211.066 277.559 206.609C277.543 204.218 277.537 201.775 278.28 199.506C279.024 197.236 280.667 195.127 282.943 194.49C285.219 193.853 288.031 195.164 288.512 197.506C288.712 198.48 288.514 199.491 288.58 200.484C288.647 201.477 289.109 202.575 290.052 202.852C291.007 203.133 291.964 202.454 292.679 201.754C295.147 199.34 296.823 196.229 298.388 193.135C299.954 190.042 301.473 186.874 303.713 184.24C305.953 181.606 309.051 179.519 312.476 179.325C315.902 179.131 319.551 181.245 320.417 184.608C321.285 187.98 319.318 191.401 317.177 194.13C314.001 198.18 310.244 201.762 306.061 204.726C305.307 205.262 304.49 205.84 304.202 206.726C303.683 208.32 305.193 209.904 306.767 210.428C308.55 211.022 310.484 210.837 312.349 211.056C314.214 211.275 316.235 212.098 316.939 213.861C317.919 216.306 315.875 218.868 313.863 220.546C309.835 223.906 305.235 226.562 300.327 228.359C298.568 229.003 296.716 229.568 295.298 230.804C293.879 232.041 293.023 234.19 293.88 235.874C294.738 237.561 296.938 238.1 298.781 237.758C300.623 237.416 302.273 236.415 304.03 235.753C307.316 234.512 311.561 234.738 313.667 237.579C315.05 239.446 315.172 242.046 314.472 244.272C313.773 246.498 312.354 248.415 310.847 250.183C305.579 256.364 298.835 261.339 291.21 263.983C283.586 266.626 276.521 267.342 268.943 264.57Z" fill="#DD9183"/>
<path d="M316.961 181.329C316.967 181.334 316.888 181.412 316.729 181.556C316.553 181.713 316.317 181.923 316.019 182.189C315.393 182.743 314.469 183.56 313.308 184.644C310.984 186.805 307.719 190.056 304.173 194.504C302.393 196.721 300.544 199.23 298.607 201.961C296.675 204.696 294.629 207.631 292.593 210.797C290.558 213.962 288.521 217.354 286.693 221.019C285.771 222.847 284.949 224.761 284.109 226.711C283.275 228.661 282.429 230.64 281.572 232.642C278.173 240.662 275.185 248.416 273.049 255.658C270.901 262.894 269.622 269.601 269.063 275.283C268.489 280.968 268.607 285.608 268.839 288.792C268.964 290.384 269.086 291.62 269.198 292.453C269.245 292.853 269.281 293.168 269.309 293.405C269.331 293.619 269.339 293.73 269.332 293.732C269.324 293.733 269.301 293.625 269.264 293.412C269.226 293.177 269.175 292.864 269.11 292.466C268.969 291.635 268.82 290.401 268.668 288.806C268.384 285.62 268.217 280.963 268.753 275.253C269.275 269.546 270.527 262.806 272.661 255.541C274.781 248.271 277.767 240.494 281.169 232.468C282.026 230.465 282.874 228.485 283.709 226.534C284.548 224.589 285.379 222.659 286.309 220.822C288.153 217.139 290.205 213.739 292.256 210.573C294.305 207.405 296.365 204.473 298.311 201.745C300.264 199.021 302.132 196.516 303.932 194.305C307.519 189.869 310.83 186.64 313.193 184.517C314.373 183.45 315.315 182.653 315.961 182.121C316.273 181.869 316.516 181.671 316.7 181.521C316.868 181.388 316.957 181.322 316.961 181.329Z" fill="#263238"/>
<path d="M286.435 220.802C286.405 220.807 286.324 220.444 286.201 219.782C286.076 219.121 285.925 218.16 285.757 216.968C285.419 214.586 285.065 211.282 284.687 207.637C284.309 203.99 283.909 200.7 283.536 198.331C283.353 197.146 283.194 196.188 283.077 195.527C282.962 194.865 282.913 194.496 282.943 194.488C282.973 194.482 283.078 194.839 283.244 195.491C283.413 196.142 283.619 197.094 283.841 198.276C284.295 200.641 284.747 203.939 285.124 207.589C285.487 211.187 285.815 214.441 286.066 216.928C286.186 218.051 286.289 218.997 286.371 219.756C286.441 220.425 286.466 220.798 286.435 220.802Z" fill="#263238"/>
<path d="M317.185 215.059C317.186 215.089 316.748 215.14 315.959 215.206C315.17 215.276 314.028 215.372 312.62 215.535C309.804 215.839 305.928 216.395 301.679 217.196C297.43 218.004 293.616 218.9 290.876 219.627C289.502 219.98 288.399 220.297 287.635 220.511C286.872 220.728 286.445 220.835 286.435 220.806C286.425 220.776 286.835 220.615 287.584 220.346C288.334 220.081 289.427 219.718 290.793 219.324C293.52 218.516 297.336 217.57 301.598 216.758C305.86 215.956 309.757 215.446 312.59 215.222C314.006 215.099 315.155 215.05 315.949 215.034C316.744 215.02 317.184 215.028 317.185 215.059Z" fill="#263238"/>
<path d="M273.04 254.974C273.026 254.98 272.955 254.851 272.829 254.599C272.687 254.298 272.513 253.931 272.304 253.486C271.852 252.518 271.233 251.1 270.492 249.338C269.009 245.815 267.112 240.885 265.094 235.416C263.074 229.945 261.226 225.003 259.818 221.455C259.128 219.731 258.56 218.311 258.138 217.257C257.957 216.799 257.809 216.422 257.687 216.111C257.588 215.848 257.543 215.707 257.557 215.699C257.572 215.694 257.643 215.823 257.768 216.075C257.911 216.376 258.084 216.743 258.294 217.187C258.746 218.155 259.364 219.573 260.105 221.335C261.589 224.858 263.485 229.788 265.504 235.259C267.524 240.729 269.372 245.67 270.78 249.219C271.47 250.943 272.037 252.363 272.46 253.416C272.64 253.874 272.788 254.252 272.911 254.562C273.009 254.827 273.055 254.967 273.04 254.974Z" fill="#263238"/>
<path d="M313.903 241.804C313.907 241.82 313.767 241.876 313.497 241.972C313.178 242.079 312.785 242.21 312.311 242.369C311.215 242.724 309.735 243.204 307.935 243.787C304.24 244.985 299.156 246.699 293.542 248.6C287.925 250.502 282.821 252.17 279.1 253.292C277.24 253.853 275.731 254.292 274.682 254.574C274.197 254.701 273.797 254.806 273.471 254.892C273.193 254.96 273.045 254.988 273.041 254.974C273.037 254.96 273.177 254.902 273.447 254.806C273.765 254.7 274.158 254.568 274.633 254.409C275.729 254.054 277.208 253.575 279.008 252.991C282.703 251.793 287.788 250.079 293.404 248.177C299.019 246.276 304.122 244.608 307.843 243.486C309.703 242.924 311.212 242.485 312.262 242.203C312.747 242.076 313.146 241.97 313.472 241.885C313.75 241.818 313.898 241.79 313.903 241.804Z" fill="#263238"/>
<path d="M297.232 47.7424L293.11 49.2168L291.348 43.8336C288.096 33.904 277.72 28.5912 268.23 31.9864C258.734 35.3832 253.657 46.224 256.908 56.1536L258.671 61.5368L254.535 63.016C251.319 64.1664 249.578 67.8736 250.68 71.2392L262.148 106.272C263.267 109.689 266.818 111.51 270.034 110.36L312.733 95.0856C316.001 93.9168 317.744 90.2008 316.624 86.7848L305.156 51.752C304.052 48.3864 300.5 46.5728 297.232 47.7424ZM264.688 53.3696C262.906 47.928 265.687 41.9856 270.893 40.1232C276.095 38.2624 281.778 41.1768 283.56 46.6184L285.322 52.0024L266.45 58.7528L264.688 53.3696ZM288.695 84.452L291.624 93.3984C291.747 93.7768 291.531 94.1632 291.165 94.2944L287.068 95.76C286.754 95.872 286.352 95.7064 286.229 95.328L283.3 86.3816C280.127 86.2472 277.181 84.144 276.079 80.7784C274.663 76.4512 276.878 71.72 281.031 70.2344C285.181 68.7496 289.704 71.0696 291.121 75.3976C292.223 78.7632 291.128 82.3128 288.695 84.452Z" fill="#DD9183"/>
<path d="M292.93 49.1203C292.969 49.2283 285.29 52.1035 275.779 55.5403C266.266 58.9787 258.526 61.6779 258.486 61.5699C258.447 61.4619 266.125 58.5875 275.638 55.1491C285.147 51.7123 292.89 49.0123 292.93 49.1203Z" fill="#263238"/>
<path d="M301.997 50.5938C302.004 50.5914 302.036 50.6626 302.089 50.8034C302.15 50.9666 302.227 51.173 302.322 51.4306C302.528 52.0138 302.813 52.825 303.176 53.8554C303.912 55.997 304.958 59.0442 306.246 62.7978C307.53 66.5874 309.056 71.085 310.748 76.0778C311.584 78.5842 312.496 81.1882 313.372 83.9386C313.777 85.321 314.113 86.7986 313.972 88.329C313.901 89.0882 313.695 89.8522 313.325 90.5434C312.948 91.2298 312.423 91.8338 311.813 92.3258C310.584 93.309 309.144 93.8834 307.753 94.3986C306.357 94.9002 304.98 95.3946 303.629 95.8802C300.925 96.8474 298.317 97.781 295.832 98.6714C290.865 100.439 286.39 102.033 282.62 103.375C278.876 104.692 275.837 105.761 273.702 106.512C272.669 106.866 271.855 107.145 271.271 107.345C271.01 107.43 270.8 107.498 270.635 107.551C270.49 107.596 270.416 107.615 270.413 107.608C270.411 107.602 270.481 107.569 270.62 107.511C270.783 107.447 270.988 107.367 271.242 107.266C271.821 107.048 272.626 106.744 273.648 106.359C275.772 105.578 278.796 104.467 282.522 103.098C286.282 101.731 290.747 100.11 295.703 98.3106C298.185 97.413 300.791 96.4722 303.492 95.4962C304.842 95.009 306.216 94.513 307.611 94.0098C308.991 93.4986 310.392 92.9314 311.552 92.0018C312.127 91.5378 312.612 90.9778 312.96 90.3458C313.301 89.709 313.493 89.0042 313.561 88.2898C313.696 86.8522 313.379 85.4162 312.982 84.0546C312.12 81.3314 311.208 78.7042 310.384 76.201C308.724 71.1986 307.228 66.6898 305.968 62.8922C304.732 59.121 303.728 56.0594 303.024 53.9082C302.692 52.8674 302.431 52.0474 302.244 51.4586C302.164 51.1954 302.1 50.985 302.051 50.8178C302.008 50.6714 301.99 50.5962 301.997 50.5938Z" fill="#263238"/>
<path d="M279.473 39.564C279.452 39.5992 279.048 39.3488 278.262 39.032C277.474 38.7312 276.281 38.38 274.77 38.332C273.268 38.2768 271.441 38.5088 269.617 39.3056C267.799 40.0928 266.009 41.4904 264.727 43.392C263.42 45.2864 262.848 47.4784 262.847 49.4664C262.831 51.4632 263.255 53.2416 263.662 54.7008C264.083 56.1616 264.515 57.3208 264.799 58.1256C265.086 58.9304 265.241 59.3776 265.213 59.3888C265.187 59.3984 264.982 58.972 264.647 58.1848C264.317 57.396 263.843 56.2504 263.38 54.7856C262.932 53.3224 262.468 51.5216 262.463 49.464C262.442 47.4176 263.027 45.1184 264.382 43.1576C265.711 41.1864 267.575 39.7488 269.465 38.9528C271.362 38.1488 273.246 37.9424 274.784 38.0368C276.333 38.124 277.543 38.5296 278.326 38.8824C278.713 39.072 279.009 39.2272 279.195 39.3576C279.386 39.4816 279.481 39.5512 279.473 39.564Z" fill="#263238"/>
<path d="M279.836 70.8677C279.831 70.8573 279.97 70.7885 280.242 70.6661C280.511 70.5405 280.924 70.3797 281.476 70.2221C282.024 70.0501 282.726 69.9253 283.555 69.8765C284.382 69.8357 285.355 69.9213 286.362 70.2949C288.406 71.0133 290.29 73.1029 291.214 75.8717C291.659 77.2701 291.698 78.8941 291.251 80.4645C290.774 82.0285 289.899 83.5285 288.635 84.7893L288.688 84.5773C289.75 87.4933 290.907 90.6669 292.112 93.9685L292.185 94.1693L291.982 94.2373C291.402 94.4317 290.78 94.6405 290.154 94.8501C288.806 95.3013 287.477 95.7461 286.173 96.1829L285.976 96.2485L285.911 96.0509C284.815 92.7341 283.614 89.6069 282.742 86.6181L282.915 86.7541C281.278 86.6445 279.806 85.9573 278.634 85.0613C277.457 84.1565 276.555 83.0333 275.947 81.8517C275.35 80.6661 275.049 79.4077 275.099 78.2485C275.129 77.0901 275.396 76.0413 275.77 75.1573C276.517 73.3741 277.629 72.2525 278.453 71.6405C279.292 71.0269 279.836 70.8677 279.836 70.8677C279.855 70.9037 279.328 71.1045 278.527 71.7373C277.742 72.3693 276.682 73.4925 275.984 75.2445C275.287 76.9541 274.985 79.4117 276.231 81.7053C276.829 82.8389 277.71 83.9165 278.848 84.7797C279.982 85.6341 281.396 86.2781 282.935 86.3725L283.07 86.3805L283.108 86.5085C283.99 89.4765 285.198 92.5909 286.303 95.9213L286.041 95.7901C287.344 95.3533 288.673 94.9069 290.021 94.4549C290.647 94.2453 291.269 94.0365 291.85 93.8421L291.72 94.1101C290.524 90.8053 289.374 87.6285 288.318 84.7109L288.275 84.5933L288.37 84.4989C289.567 83.3157 290.439 81.8485 290.898 80.3605C291.335 78.8589 291.31 77.3157 290.895 75.9685C290.021 73.2813 288.223 71.2381 286.274 70.5205C285.311 70.1445 284.369 70.0421 283.559 70.0637C282.748 70.0925 282.054 70.1957 281.507 70.3461C280.41 70.6293 279.85 70.9029 279.836 70.8677Z" fill="#263238"/>
<path d="M255.112 301.856L175.208 301.486C165.597 301.442 157.841 293.617 157.882 284.007L158.729 83.6837C158.77 74.0677 166.6 66.307 176.215 66.3518L256.12 66.7206C265.73 66.7654 273.485 74.5902 273.444 84.1998L272.597 284.523C272.558 294.139 264.728 301.901 255.112 301.856Z" fill="#455A64"/>
<path d="M256.006 73.6346L240.514 73.5634C238.436 73.5538 236.744 75.3074 236.735 77.4786L236.723 80.289C236.714 82.461 235.022 84.2138 232.944 84.2042L202.747 84.065C200.669 84.0554 198.992 82.2866 199.001 80.1146L199.013 77.3042C199.022 75.1322 197.345 73.3634 195.267 73.3538L189.819 73.3282L176.259 73.2658C169.526 73.2346 164.042 78.6698 164.013 85.4042L163.187 280.934C163.158 287.665 168.59 293.145 175.32 293.176L255.066 293.544C261.799 293.575 267.283 288.14 267.312 281.406L268.139 85.8754C268.167 79.1458 262.736 73.6666 256.006 73.6346Z" fill="white"/>
<path d="M245.274 267.462L185.975 267.188C185.361 267.185 184.866 266.517 184.87 265.695L184.936 250.182C184.939 249.36 185.44 248.697 186.053 248.699L245.353 248.974C245.967 248.977 246.462 249.645 246.458 250.466L246.393 265.979C246.389 266.801 245.889 267.465 245.274 267.462Z" fill="#DD9183"/>
<path d="M206.025 256.911C205.991 256.619 205.852 256.391 205.607 256.229C205.362 256.066 205.06 255.984 204.703 255.982C204.441 255.981 204.213 256.023 204.016 256.106C203.822 256.19 203.67 256.305 203.559 256.453C203.451 256.6 203.397 256.768 203.396 256.957C203.395 257.114 203.432 257.25 203.507 257.363C203.583 257.475 203.681 257.569 203.799 257.644C203.918 257.718 204.043 257.779 204.173 257.828C204.304 257.874 204.424 257.912 204.533 257.942L205.132 258.106C205.286 258.147 205.456 258.204 205.644 258.276C205.834 258.347 206.016 258.445 206.188 258.569C206.362 258.691 206.506 258.847 206.618 259.038C206.731 259.229 206.787 259.463 206.785 259.739C206.784 260.058 206.699 260.346 206.531 260.603C206.365 260.86 206.122 261.063 205.802 261.213C205.484 261.364 205.099 261.438 204.645 261.436C204.223 261.434 203.857 261.364 203.548 261.226C203.241 261.088 203 260.897 202.824 260.652C202.65 260.407 202.552 260.123 202.531 259.8L203.269 259.804C203.287 260.027 203.361 260.212 203.491 260.358C203.623 260.503 203.79 260.611 203.991 260.683C204.195 260.754 204.414 260.789 204.648 260.79C204.921 260.791 205.166 260.748 205.384 260.661C205.601 260.572 205.774 260.448 205.901 260.289C206.029 260.128 206.093 259.94 206.094 259.725C206.095 259.529 206.04 259.369 205.931 259.245C205.822 259.122 205.679 259.021 205.5 258.944C205.322 258.866 205.129 258.798 204.922 258.739L204.196 258.528C203.736 258.394 203.371 258.203 203.103 257.955C202.835 257.708 202.702 257.386 202.704 256.988C202.705 256.657 202.796 256.37 202.976 256.124C203.157 255.877 203.4 255.686 203.704 255.551C204.01 255.414 204.352 255.347 204.729 255.348C205.109 255.35 205.447 255.42 205.742 255.558C206.038 255.694 206.271 255.879 206.443 256.114C206.617 256.35 206.708 256.616 206.717 256.914L206.025 256.911ZM208.694 255.447L208.669 261.351L207.954 261.347L207.979 255.444L208.694 255.447ZM214.808 255.476L214.783 261.379L214.091 261.376L210.894 256.726L210.836 256.726L210.817 261.361L210.102 261.357L210.127 255.454L210.819 255.457L214.028 260.119L214.085 260.119L214.105 255.472L214.808 255.476ZM220.266 257.345C220.203 257.151 220.121 256.977 220.017 256.823C219.916 256.666 219.795 256.533 219.653 256.423C219.513 256.313 219.354 256.229 219.176 256.17C218.997 256.112 218.801 256.082 218.588 256.081C218.238 256.079 217.92 256.168 217.633 256.348C217.346 256.527 217.117 256.792 216.946 257.143C216.776 257.494 216.689 257.925 216.687 258.436C216.685 258.947 216.769 259.379 216.938 259.731C217.108 260.084 217.338 260.351 217.63 260.533C217.921 260.715 218.249 260.807 218.614 260.808C218.952 260.81 219.251 260.739 219.509 260.596C219.769 260.451 219.971 260.247 220.117 259.982C220.264 259.716 220.338 259.402 220.34 259.041L220.559 259.088L218.783 259.08L218.786 258.445L221.034 258.456L221.031 259.09C221.029 259.576 220.924 259.998 220.715 260.357C220.507 260.715 220.222 260.993 219.858 261.189C219.496 261.383 219.08 261.479 218.611 261.477C218.089 261.475 217.63 261.35 217.235 261.102C216.842 260.854 216.536 260.503 216.317 260.048C216.1 259.594 215.993 259.055 215.995 258.433C215.997 257.966 216.062 257.546 216.188 257.174C216.316 256.8 216.497 256.482 216.728 256.219C216.96 255.957 217.234 255.757 217.549 255.618C217.865 255.479 218.212 255.41 218.591 255.412C218.902 255.414 219.192 255.462 219.461 255.557C219.731 255.651 219.972 255.784 220.183 255.956C220.395 256.126 220.572 256.329 220.713 256.566C220.854 256.801 220.951 257.062 221.004 257.349L220.266 257.345ZM206.635 265.438L207.35 265.441L207.333 269.35C207.331 269.753 207.235 270.113 207.043 270.43C206.854 270.744 206.586 270.991 206.242 271.172C205.897 271.351 205.493 271.44 205.03 271.438C204.567 271.436 204.164 271.343 203.82 271.161C203.477 270.977 203.211 270.727 203.022 270.411C202.835 270.093 202.743 269.732 202.744 269.329L202.761 265.42L203.476 265.424L203.459 269.274C203.458 269.563 203.521 269.82 203.646 270.045C203.772 270.268 203.952 270.445 204.186 270.575C204.422 270.703 204.704 270.768 205.033 270.769C205.361 270.771 205.644 270.708 205.881 270.583C206.118 270.455 206.299 270.28 206.425 270.058C206.553 269.833 206.617 269.577 206.619 269.289L206.635 265.438ZM208.752 271.351L208.777 265.448L210.772 265.457C211.235 265.459 211.613 265.545 211.906 265.713C212.202 265.88 212.42 266.105 212.561 266.388C212.702 266.671 212.771 266.986 212.77 267.334C212.769 267.682 212.696 267.998 212.553 268.281C212.411 268.565 212.193 268.791 211.898 268.959C211.604 269.125 211.227 269.206 210.767 269.204L209.338 269.198L209.34 268.564L210.747 268.57C211.064 268.572 211.319 268.518 211.512 268.409C211.704 268.301 211.844 268.153 211.931 267.967C212.021 267.779 212.066 267.567 212.067 267.331C212.068 267.095 212.024 266.883 211.937 266.696C211.851 266.509 211.711 266.363 211.518 266.256C211.324 266.148 211.067 266.093 210.746 266.091L209.489 266.085L209.467 271.354L208.752 271.351Z" fill="#E8E8E3"/>
<path d="M197.793 131.095L177.22 131L177.202 134.775L197.776 134.87L197.793 131.095Z" fill="#DD9183"/>
<path opacity="0.1" d="M197.793 131.095L177.22 131L177.202 134.775L197.776 134.87L197.793 131.095Z" fill="black"/>
<path d="M258.124 154.262C258.121 154.246 258.296 154.272 258.594 154.152C258.875 154.043 259.318 153.702 259.369 153.075C259.367 151.799 259.363 149.945 259.358 147.564C259.358 146.365 259.357 145.034 259.356 143.578C259.357 143.214 259.357 142.842 259.357 142.462C259.367 142.074 259.367 141.713 259.133 141.414C258.923 141.118 258.563 140.928 258.187 140.926C257.776 140.926 257.359 140.925 256.934 140.924C253.53 140.918 249.657 140.91 245.379 140.902C228.24 140.838 204.589 140.75 178.466 140.654C178.121 140.651 177.784 140.82 177.584 141.099C177.362 141.382 177.371 141.716 177.376 142.145C177.373 142.957 177.369 143.766 177.366 144.573C177.359 146.186 177.351 147.789 177.345 149.379C177.342 150.175 177.338 150.967 177.334 151.757C177.347 152.135 177.297 152.588 177.367 152.882C177.447 153.202 177.69 153.474 177.992 153.602C178.15 153.666 178.297 153.689 178.487 153.687L179.073 153.69L180.24 153.696C181.017 153.7 181.791 153.704 182.561 153.708C188.722 153.741 194.665 153.773 200.327 153.802C211.647 153.871 221.842 153.934 230.409 153.986C238.96 154.053 245.886 154.108 250.689 154.146C253.071 154.174 254.927 154.195 256.203 154.21C256.822 154.222 257.298 154.231 257.636 154.238C257.959 154.247 258.124 154.262 258.124 154.262C258.124 154.262 257.959 154.276 257.635 154.281C257.297 154.284 256.821 154.289 256.202 154.295C254.925 154.298 253.07 154.303 250.687 154.309C245.883 154.302 238.959 154.293 230.407 154.282C221.839 154.254 211.644 154.222 200.324 154.187C194.663 154.165 188.719 154.142 182.559 154.118C181.788 154.114 181.015 154.111 180.238 154.108L179.07 154.103L178.484 154.101C178.284 154.105 178.036 154.074 177.831 153.984C177.413 153.808 177.079 153.434 176.967 152.988C176.904 152.762 176.919 152.533 176.918 152.348L176.92 151.757C176.923 150.967 176.927 150.174 176.93 149.379C176.936 147.788 176.943 146.186 176.949 144.573C176.952 143.766 176.955 142.957 176.959 142.145C176.965 141.937 176.947 141.754 176.979 141.506C177.015 141.272 177.105 141.046 177.247 140.855C177.521 140.469 177.993 140.233 178.467 140.238C204.589 140.382 228.24 140.514 245.378 140.608C249.658 140.639 253.53 140.667 256.934 140.692C257.359 140.695 257.777 140.698 258.187 140.702C258.635 140.706 259.061 140.937 259.306 141.289C259.58 141.634 259.578 142.106 259.562 142.464C259.559 142.844 259.556 143.216 259.553 143.58C259.539 145.036 259.528 146.366 259.518 147.565C259.488 149.949 259.466 151.806 259.45 153.082C259.38 153.75 258.901 154.092 258.606 154.192C258.296 154.302 258.124 154.262 258.124 154.262Z" fill="#E0E0E0"/>
<path d="M220.376 145.697L182.741 145.523L182.725 149.052L220.359 149.225L220.376 145.697Z" fill="#DD9183"/>
<path opacity="0.2" d="M220.376 145.697L182.741 145.523L182.725 149.052L220.359 149.225L220.376 145.697Z" fill="white"/>
<path d="M197.648 165.548L177.074 165.453L177.057 169.228L197.63 169.323L197.648 165.548Z" fill="#DD9183"/>
<path opacity="0.1" d="M197.648 165.548L177.074 165.453L177.057 169.228L197.63 169.323L197.648 165.548Z" fill="black"/>
<path d="M257.596 188.71C257.594 188.695 257.764 188.71 258.07 188.62C258.361 188.525 258.829 188.285 259.084 187.714C259.221 187.432 259.234 187.09 259.222 186.699C259.221 186.31 259.219 185.886 259.217 185.428C259.216 184.507 259.213 183.447 259.211 182.257C259.211 181.062 259.21 179.736 259.21 178.286C259.21 177.922 259.21 177.552 259.21 177.174C259.228 176.791 259.181 176.437 258.977 176.118C258.785 175.804 258.472 175.555 258.107 175.444C257.749 175.33 257.321 175.392 256.898 175.375C253.506 175.369 249.647 175.361 245.381 175.353C228.303 175.29 204.733 175.202 178.701 175.106C177.978 175.088 177.31 175.678 177.241 176.393C177.217 177.154 177.228 177.994 177.22 178.788C177.213 180.395 177.205 181.993 177.199 183.578C177.196 184.37 177.192 185.161 177.189 185.947C177.202 186.34 177.146 186.75 177.239 187.064C177.329 187.395 177.541 187.69 177.823 187.884C178.117 188.082 178.434 188.154 178.818 188.14L179.982 188.146C180.757 188.15 181.527 188.154 182.295 188.158C188.435 188.19 194.357 188.222 199.999 188.251C211.28 188.32 221.439 188.382 229.977 188.434C238.498 188.502 245.399 188.556 250.186 188.594C252.561 188.622 254.409 188.643 255.681 188.658C256.297 188.67 256.772 188.679 257.109 188.686C257.431 188.694 257.596 188.71 257.596 188.71C257.596 188.71 257.431 188.723 257.109 188.728C256.772 188.731 256.297 188.736 255.68 188.742C254.409 188.746 252.56 188.75 250.185 188.757C245.399 188.75 238.497 188.741 229.975 188.73C221.437 188.703 211.278 188.671 199.997 188.636C194.355 188.614 188.433 188.59 182.293 188.566C181.525 188.563 180.755 188.56 179.981 188.557L178.817 188.552C178.425 188.573 177.945 188.478 177.591 188.226C177.229 187.978 176.958 187.599 176.841 187.174C176.722 186.726 176.793 186.336 176.776 185.946C176.779 185.159 176.781 184.369 176.785 183.576C176.791 181.99 176.798 180.394 176.804 178.786C176.813 177.971 176.797 177.198 176.827 176.343C176.916 175.422 177.775 174.665 178.703 174.688C204.735 174.832 228.304 174.962 245.382 175.057C249.647 175.088 253.505 175.116 256.898 175.142C257.317 175.164 257.74 175.096 258.173 175.229C258.591 175.359 258.944 175.646 259.16 176.004C259.389 176.355 259.439 176.804 259.416 177.174C259.413 177.552 259.41 177.922 259.407 178.286C259.394 179.737 259.382 181.063 259.372 182.258C259.359 183.449 259.349 184.508 259.339 185.429C259.333 185.887 259.329 186.311 259.325 186.699C259.332 187.081 259.309 187.459 259.159 187.748C258.877 188.342 258.383 188.576 258.081 188.661C257.764 188.74 257.596 188.71 257.596 188.71Z" fill="#E0E0E0"/>
<path d="M197.494 201.481L176.92 201.387L176.903 205.162L197.476 205.257L197.494 201.481Z" fill="#DD9183"/>
<path opacity="0.1" d="M197.494 201.481L176.92 201.387L176.903 205.162L197.476 205.257L197.494 201.481Z" fill="black"/>
<path d="M257.443 224.642C257.442 224.628 257.612 224.643 257.918 224.554C258.209 224.458 258.676 224.218 258.931 223.646C259.068 223.365 259.082 223.023 259.07 222.632C259.068 222.243 259.066 221.819 259.065 221.361C259.063 220.44 259.062 219.38 259.059 218.19C259.058 216.995 259.058 215.669 259.058 214.218C259.058 213.855 259.058 213.484 259.058 213.105C259.075 212.722 259.03 212.369 258.825 212.05C258.632 211.736 258.32 211.487 257.955 211.375C257.598 211.262 257.17 211.324 256.746 211.306C253.354 211.299 249.494 211.292 245.23 211.284C228.15 211.221 204.582 211.134 178.55 211.037C177.826 211.019 177.158 211.609 177.089 212.324C177.065 213.085 177.076 213.926 177.069 214.719C177.062 216.326 177.054 217.924 177.048 219.509C177.045 220.302 177.041 221.09 177.038 221.878C177.051 222.27 176.994 222.681 177.087 222.995C177.178 223.326 177.389 223.622 177.671 223.815C177.965 224.013 178.282 224.086 178.666 224.071L179.83 224.077C180.605 224.081 181.375 224.085 182.143 224.089C188.282 224.122 194.205 224.153 199.847 224.182C211.128 224.252 221.287 224.314 229.825 224.366C238.346 224.433 245.247 224.487 250.034 224.525C252.409 224.553 254.258 224.575 255.529 224.59C256.146 224.602 256.621 224.61 256.958 224.617C257.278 224.628 257.443 224.642 257.443 224.642C257.443 224.642 257.278 224.656 256.957 224.661C256.619 224.664 256.145 224.669 255.528 224.675C254.256 224.678 252.407 224.683 250.033 224.69C245.246 224.682 238.346 224.674 229.822 224.662C221.285 224.636 211.126 224.604 199.845 224.569C194.202 224.546 188.28 224.523 182.141 224.499C181.373 224.496 180.602 224.492 179.828 224.489L178.664 224.484C178.273 224.505 177.792 224.41 177.438 224.158C177.076 223.909 176.806 223.531 176.689 223.106C176.57 222.658 176.641 222.267 176.623 221.878C176.626 221.091 176.63 220.301 176.633 219.509C176.639 217.923 176.646 216.326 176.652 214.718C176.662 213.905 176.646 213.132 176.675 212.276C176.764 211.355 177.623 210.598 178.551 210.622C204.583 210.766 228.151 210.896 245.23 210.99C249.494 211.022 253.354 211.05 256.746 211.074C257.165 211.096 257.588 211.029 258.021 211.162C258.438 211.292 258.791 211.578 259.008 211.938C259.238 212.289 259.287 212.738 259.264 213.107C259.261 213.486 259.258 213.856 259.254 214.219C259.242 215.67 259.23 216.997 259.22 218.19C259.207 219.382 259.197 220.442 259.187 221.362C259.182 221.82 259.176 222.245 259.171 222.633C259.178 223.015 259.155 223.393 259.006 223.682C258.724 224.275 258.23 224.51 257.928 224.594C257.612 224.672 257.443 224.642 257.443 224.642Z" fill="#E0E0E0"/>
<path d="M220.232 180.146L182.597 179.973L182.58 183.501L220.216 183.675L220.232 180.146Z" fill="#DD9183"/>
<path opacity="0.2" d="M220.232 180.146L182.597 179.973L182.58 183.501L220.216 183.675L220.232 180.146Z" fill="white"/>
<path d="M186.009 218.11C186.005 219.079 185.265 219.861 184.356 219.857C183.448 219.852 182.715 219.064 182.719 218.095C182.723 217.126 183.463 216.343 184.372 216.348C185.28 216.352 186.013 217.14 186.009 218.11Z" fill="#DD9183"/>
<path d="M191.108 218.134C191.104 219.102 190.364 219.885 189.455 219.881C188.546 219.877 187.813 219.088 187.817 218.118C187.821 217.15 188.561 216.367 189.47 216.371C190.379 216.374 191.112 217.164 191.108 218.134Z" fill="#DD9183"/>
<path d="M196.206 218.157C196.202 219.126 195.462 219.909 194.554 219.904C193.645 219.9 192.912 219.111 192.916 218.142C192.92 217.173 193.66 216.391 194.569 216.395C195.477 216.399 196.21 217.187 196.206 218.157Z" fill="#DD9183"/>
<path d="M201.303 218.18C201.299 219.149 200.559 219.932 199.651 219.928C198.742 219.924 198.009 219.135 198.014 218.165C198.018 217.196 198.758 216.414 199.666 216.418C200.574 216.423 201.308 217.212 201.303 218.18Z" fill="#DD9183"/>
<path d="M206.403 218.204C206.399 219.173 205.659 219.956 204.75 219.951C203.841 219.947 203.107 219.158 203.111 218.189C203.116 217.22 203.856 216.437 204.764 216.441C205.673 216.446 206.406 217.235 206.403 218.204Z" fill="#DD9183"/>
<path d="M211.5 218.227C211.496 219.197 210.756 219.979 209.848 219.974C208.939 219.97 208.206 219.182 208.21 218.213C208.214 217.243 208.954 216.462 209.862 216.465C210.772 216.469 211.504 217.258 211.5 218.227Z" fill="#DD9183"/>
<path d="M216.6 218.25C216.595 219.219 215.855 220.002 214.947 219.998C214.038 219.993 213.306 219.204 213.31 218.236C213.314 217.266 214.054 216.484 214.962 216.488C215.87 216.492 216.603 217.281 216.6 218.25Z" fill="#DD9183"/>
<path d="M221.697 218.273C221.693 219.243 220.953 220.025 220.045 220.021C219.136 220.017 218.402 219.229 218.407 218.259C218.411 217.29 219.151 216.508 220.059 216.512C220.968 216.516 221.701 217.305 221.697 218.273Z" fill="#DD9183"/>
<path d="M226.795 218.298C226.791 219.266 226.051 220.049 225.143 220.045C224.234 220.041 223.501 219.252 223.505 218.282C223.51 217.314 224.25 216.532 225.158 216.535C226.066 216.538 226.799 217.328 226.795 218.298Z" fill="#DD9183"/>
<g opacity="0.2">
<path d="M186.009 218.11C186.005 219.079 185.265 219.861 184.356 219.857C183.448 219.852 182.715 219.064 182.719 218.095C182.723 217.126 183.463 216.343 184.372 216.348C185.28 216.352 186.013 217.14 186.009 218.11Z" fill="white"/>
<path d="M191.108 218.134C191.104 219.102 190.364 219.885 189.455 219.881C188.546 219.877 187.813 219.088 187.817 218.118C187.821 217.15 188.561 216.367 189.47 216.371C190.379 216.374 191.112 217.164 191.108 218.134Z" fill="white"/>
<path d="M196.206 218.157C196.202 219.126 195.462 219.909 194.554 219.904C193.645 219.9 192.912 219.111 192.916 218.142C192.92 217.173 193.66 216.391 194.569 216.395C195.477 216.399 196.21 217.187 196.206 218.157Z" fill="white"/>
<path d="M201.303 218.18C201.299 219.149 200.559 219.932 199.651 219.928C198.742 219.924 198.009 219.135 198.014 218.165C198.018 217.196 198.758 216.414 199.666 216.418C200.574 216.423 201.308 217.212 201.303 218.18Z" fill="white"/>
<path d="M206.403 218.204C206.399 219.173 205.659 219.956 204.75 219.951C203.841 219.947 203.107 219.158 203.111 218.189C203.116 217.22 203.856 216.437 204.764 216.441C205.673 216.446 206.406 217.235 206.403 218.204Z" fill="white"/>
<path d="M211.5 218.227C211.496 219.197 210.756 219.979 209.848 219.974C208.939 219.97 208.206 219.182 208.21 218.213C208.214 217.243 208.954 216.462 209.862 216.465C210.772 216.469 211.504 217.258 211.5 218.227Z" fill="white"/>
<path d="M216.6 218.25C216.595 219.219 215.855 220.002 214.947 219.998C214.038 219.993 213.306 219.204 213.31 218.236C213.314 217.266 214.054 216.484 214.962 216.488C215.87 216.492 216.603 217.281 216.6 218.25Z" fill="white"/>
<path d="M221.697 218.273C221.693 219.243 220.953 220.025 220.045 220.021C219.136 220.017 218.402 219.229 218.407 218.259C218.411 217.29 219.151 216.508 220.059 216.512C220.968 216.516 221.701 217.305 221.697 218.273Z" fill="white"/>
<path d="M226.795 218.298C226.791 219.266 226.051 220.049 225.143 220.045C224.234 220.041 223.501 219.252 223.505 218.282C223.51 217.314 224.25 216.532 225.158 216.535C226.066 216.538 226.799 217.328 226.795 218.298Z" fill="white"/>
</g>
<path d="M219.555 102.807C220.632 102.355 221.397 101.245 221.404 99.9371C221.411 98.2235 220.114 96.8283 218.507 96.8203C216.901 96.8131 215.592 98.1963 215.585 99.9099C215.58 101.23 216.351 102.354 217.439 102.807C212.961 103.481 213.164 108.348 213.164 108.348L223.752 108.396C223.752 108.396 223.993 103.477 219.555 102.807Z" fill="#DD9183"/>
<path opacity="0.1" d="M219.555 102.807C220.632 102.355 221.397 101.245 221.404 99.9371C221.411 98.2235 220.114 96.8283 218.507 96.8203C216.901 96.8131 215.592 98.1963 215.585 99.9099C215.58 101.23 216.351 102.354 217.439 102.807C212.961 103.481 213.164 108.348 213.164 108.348L223.752 108.396C223.752 108.396 223.993 103.477 219.555 102.807Z" fill="black"/>
<path d="M236.764 111.58L199.01 111.406L198.989 115.921L236.743 116.094L236.764 111.58Z" fill="#DD9183"/>
<path opacity="0.2" d="M236.764 111.58L199.01 111.406L198.989 115.921L236.743 116.094L236.764 111.58Z" fill="white"/>
<path d="M97.9723 134.94C97.9723 134.948 97.8459 134.961 97.6011 134.981C97.3363 135.001 96.9755 135.027 96.5123 135.061C96.0315 135.069 95.4467 135.173 94.7571 135.295C94.4139 135.365 94.0347 135.393 93.6475 135.507C93.2587 135.615 92.8451 135.729 92.4075 135.851C90.6811 136.396 88.6019 137.261 86.5083 138.777C84.4203 140.281 82.3315 142.433 80.7035 145.239C79.8475 146.618 79.2267 148.211 78.6691 149.885C78.2155 151.589 77.8139 153.4 77.7835 155.308C77.6987 156.259 77.7947 157.225 77.8347 158.208C77.8603 158.699 77.9659 159.185 78.0291 159.681C78.0963 160.176 78.1691 160.673 78.3099 161.162C78.7147 163.151 79.5251 165.101 80.5499 166.969C82.5987 170.719 86.0419 173.95 90.2939 175.823C92.4211 176.761 94.7731 177.268 97.1651 177.366C99.5595 177.518 102.012 177.133 104.337 176.334L105.04 176.076L105.133 176.042L105.217 176.085C108.659 177.833 112.035 179.546 115.307 181.207L115.007 181.463C113.929 178.119 112.885 174.877 111.883 171.766L111.844 171.646L111.933 171.557C114.476 169.011 116.248 165.917 117.231 162.75C118.215 159.573 118.383 156.338 117.999 153.373C117.615 150.402 116.644 147.701 115.349 145.427C114.055 143.147 112.445 141.295 110.793 139.849C109.122 138.413 107.389 137.44 105.836 136.695C104.246 136.029 102.828 135.603 101.65 135.376C101.061 135.275 100.537 135.186 100.08 135.109C99.6275 135.077 99.2419 135.05 98.9227 135.028C98.6251 135.005 98.3907 134.987 98.2131 134.973C98.0539 134.957 97.9723 134.946 97.9723 134.94C97.9723 134.934 98.0539 134.933 98.2139 134.935C98.3915 134.94 98.6267 134.947 98.9259 134.955C99.2467 134.968 99.6355 134.984 100.091 135.002C100.552 135.071 101.081 135.149 101.675 135.238C102.866 135.446 104.302 135.855 105.917 136.509C107.493 137.243 109.256 138.211 110.96 139.651C112.645 141.101 114.289 142.967 115.616 145.272C116.943 147.57 117.945 150.309 118.348 153.325C118.751 156.335 118.593 159.625 117.601 162.861C116.611 166.087 114.815 169.245 112.226 171.846L112.276 171.637C113.283 174.746 114.332 177.987 115.415 181.329L115.573 181.818L115.115 181.586C111.842 179.927 108.466 178.216 105.022 176.469L105.199 176.478L104.48 176.742C102.103 177.56 99.5947 177.951 97.1475 177.796C94.7035 177.694 92.2987 177.173 90.1267 176.212C85.7835 174.294 82.2803 170.989 80.2027 167.163C79.1627 165.257 78.3459 163.269 77.9387 161.245C77.7979 160.747 77.7259 160.241 77.6587 159.737C77.5963 159.233 77.4915 158.737 77.4667 158.238C77.4291 157.24 77.3355 156.257 77.4259 155.291C77.4651 153.353 77.8803 151.514 78.3507 149.787C78.9251 148.089 79.5651 146.477 80.4411 145.083C82.1091 142.247 84.2419 140.083 86.3691 138.58C88.5011 137.065 90.6123 136.213 92.3611 135.689C92.8035 135.573 93.2227 135.464 93.6163 135.361C94.0075 135.253 94.3907 135.23 94.7371 135.168C95.4339 135.058 96.0227 134.967 96.5067 134.973C96.9723 134.957 97.3355 134.946 97.6019 134.937C97.8467 134.932 97.9723 134.933 97.9723 134.94Z" fill="#DD9183"/>
<path d="M102.534 153.621H101.056L97.8296 149.124V146.173C97.8296 146.173 95.5448 146.032 95.8128 149.897C96.0816 153.761 95.7912 152.777 95.7912 152.777C95.7912 152.777 90.9392 152.796 90.536 153.217C90.2424 153.524 90.1104 158.344 90.0592 160.957C90.0336 162.273 90.8408 163.497 92.0648 163.809C92.2384 163.853 92.4144 163.879 92.5872 163.879C93.7976 163.879 99.9808 162.895 99.9808 162.895H102.534V153.621Z" fill="#DD9183"/>
<path d="M106.766 152.809L105.857 162.921H103.325V153.013L106.766 152.809Z" fill="#DD9183"/>
<path d="M136.92 358.673V351.828L124.655 351.746L124.554 362.086L125.314 362.143C128.697 362.361 142.531 362.68 144.797 361.978C147.326 361.196 136.92 358.673 136.92 358.673Z" fill="#DD9183"/>
<path d="M145.088 361.337C145.088 361.453 140.5 361.546 134.842 361.546C129.182 361.546 124.596 361.453 124.596 361.337C124.596 361.222 129.182 361.129 134.842 361.129C140.5 361.13 145.088 361.223 145.088 361.337Z" fill="#263238"/>
<path d="M137.136 360.069C137.035 360.017 137.121 359.655 137.384 359.298C137.647 358.941 137.968 358.75 138.048 358.831C138.13 358.913 137.962 359.214 137.72 359.545C137.477 359.874 137.239 360.125 137.136 360.069Z" fill="#263238"/>
<path d="M137.918 360.521C137.812 360.481 137.867 360.076 138.108 359.649C138.348 359.221 138.667 358.965 138.756 359.035C138.848 359.107 138.693 359.456 138.47 359.853C138.247 360.25 138.028 360.564 137.918 360.521Z" fill="#263238"/>
<path d="M128.291 361.305C128.243 361.338 128.061 361.158 127.795 360.858C127.528 360.559 127.178 360.137 126.719 359.78C126.264 359.425 125.762 359.246 125.392 359.2C125.019 359.15 124.774 359.208 124.753 359.148C124.732 359.103 124.96 358.932 125.402 358.906C125.837 358.876 126.453 359.042 126.973 359.45C127.491 359.854 127.822 360.335 128.033 360.684C128.242 361.036 128.337 361.273 128.291 361.305Z" fill="#263238"/>
<path d="M137.173 358.785C137.233 358.882 137.022 359.119 136.672 359.247C136.322 359.377 136.007 359.331 135.991 359.219C135.973 359.104 136.222 358.971 136.528 358.857C136.835 358.744 137.112 358.686 137.173 358.785Z" fill="#263238"/>
<path d="M136.981 358.12C136.992 358.236 136.665 358.334 136.251 358.339C135.837 358.344 135.507 358.256 135.516 358.14C135.524 358.025 135.85 357.928 136.245 357.922C136.64 357.917 136.969 358.006 136.981 358.12Z" fill="#263238"/>
<path d="M167.12 358.673L167.121 351.828L154.856 351.746L154.755 361.981L155.515 362.037C158.898 362.256 172.732 362.68 174.999 361.978C177.527 361.196 167.12 358.673 167.12 358.673Z" fill="#DD9183"/>
<path d="M175.289 361.353C175.289 361.468 170.702 361.562 165.043 361.562C159.383 361.562 154.797 361.469 154.797 361.353C154.797 361.238 159.383 361.145 165.043 361.145C170.701 361.145 175.289 361.238 175.289 361.353Z" fill="#263238"/>
<path d="M167.337 360.069C167.236 360.017 167.322 359.655 167.586 359.298C167.849 358.941 168.17 358.75 168.25 358.831C168.332 358.913 168.164 359.214 167.922 359.545C167.678 359.874 167.439 360.125 167.337 360.069Z" fill="#263238"/>
<path d="M168.119 360.521C168.013 360.481 168.068 360.076 168.309 359.649C168.549 359.221 168.868 358.965 168.957 359.035C169.049 359.107 168.894 359.456 168.672 359.853C168.448 360.25 168.228 360.564 168.119 360.521Z" fill="#263238"/>
<path d="M158.491 361.305C158.443 361.338 158.261 361.158 157.995 360.858C157.729 360.559 157.378 360.137 156.919 359.78C156.464 359.425 155.963 359.246 155.592 359.2C155.219 359.15 154.974 359.208 154.954 359.148C154.932 359.103 155.16 358.932 155.602 358.906C156.037 358.876 156.653 359.042 157.173 359.45C157.691 359.854 158.021 360.335 158.232 360.684C158.443 361.036 158.538 361.273 158.491 361.305Z" fill="#263238"/>
<path d="M167.374 358.785C167.434 358.882 167.224 359.119 166.874 359.247C166.524 359.377 166.209 359.331 166.192 359.219C166.174 359.104 166.423 358.971 166.729 358.857C167.036 358.744 167.313 358.686 167.374 358.785Z" fill="#263238"/>
<path d="M167.182 358.12C167.193 358.236 166.866 358.334 166.452 358.339C166.038 358.344 165.709 358.256 165.717 358.14C165.725 358.025 166.052 357.928 166.447 357.922C166.842 357.917 167.171 358.006 167.182 358.12Z" fill="#263238"/>
<path d="M212.303 155.558C211.983 155.229 211.195 155.384 211.195 155.384C211.195 155.384 211.333 154.449 211.187 153.997C211.043 153.545 210.035 153.632 210.035 153.632C210.035 153.632 209.972 153.197 210.06 152.494C210.083 152.318 209.985 152.189 209.826 152.092C209.348 151.803 208.319 151.817 208.319 151.817C207.701 151.375 210.2 147.881 211.127 146.762C212.043 145.657 211.888 144.772 211.062 144.773C210.499 144.774 207.581 148.133 206.691 149.261C205.801 150.389 203.414 153.525 203.333 151.022C203.251 148.519 202.246 146.625 201.617 146.303C200.988 145.981 200.31 146.737 200.658 147.433C200.939 147.994 201.117 149.077 201.218 149.895C201.301 150.57 201.273 151.255 201.126 151.918C200.708 153.793 200.259 155.011 200.049 155.532L199.987 155.497C199.987 155.497 182.526 172.241 181.267 173.436C180.135 174.511 157.445 172.164 152.899 171.681C151.657 171.542 149.817 171.293 148.223 171.363C146.251 171.449 145.9 171.729 143.927 171.756C137.883 171.837 132.847 172.425 129.099 173.059C124.568 173.825 120.853 177.051 119.451 181.428C114.863 195.745 104.483 229.642 102.634 248.685C101.177 251.425 99.5489 254.624 98.8873 256.424C97.6017 259.924 97.9137 260.043 98.3473 260.124C99.5105 260.339 100.842 254.053 101.339 255.57C101.836 257.088 98.8169 263.069 100.042 263.244C101.639 263.472 102.911 256.866 103.06 256.315C103.205 255.78 104.011 255.961 103.85 256.451C103.618 257.156 101.367 264.62 102.933 264.859C103.801 264.992 103.895 263.41 103.895 263.41C103.895 263.41 105.487 256.272 106.222 256.409C106.969 256.549 106.175 260.772 105.807 262.177C105.443 263.565 105.955 264.302 106.704 263.953C107.215 263.715 108.444 259.438 108.775 258.041C109.107 256.643 109.948 252.793 111.078 255.028C112.207 257.263 113.917 258.556 114.623 258.584C115.329 258.611 115.625 257.639 115.016 257.155C114.524 256.765 113.907 255.858 113.47 255.158C113.11 254.581 112.846 253.949 112.7 253.285C112.138 250.725 112.143 249.236 112.143 249.236L112.012 248.413C113.803 239.539 118.967 213.503 126.385 196.869L129.439 203.155L130.765 207.808L122.625 227.919L157.355 227.461L152.178 207.51L158.468 186.706H158.467C165.275 186.858 182.761 187.112 185.699 185.798C189.363 184.161 208.322 160.262 208.322 160.262H208.321C209.602 159.242 210.904 158.145 211.865 157.188C211.867 157.186 212.997 156.272 212.303 155.558Z" fill="#FFBE9D"/>
<path d="M121.114 213.112C122.12 209.672 127.297 192.666 127.297 192.666C127.297 192.666 129.838 206.531 129.17 208.2C128.4 210.124 126.986 212.326 126.986 212.326C121.114 221.269 121.884 225.739 121.884 225.739L157.356 224.657C157.443 219.696 154.506 208.163 153.892 206.325C153.278 204.488 155.315 198.456 155.315 198.456C155.315 198.456 159.324 194.385 159.168 192.29C158.856 188.069 158.469 186.706 158.469 186.706L180.053 187.5L179.375 172.855L148.348 169.75C147.275 172.805 137.504 171.308 137.504 171.308C126.956 171.655 126.318 173.595 121.919 177C117.52 180.406 110.276 209.656 110.276 209.656L121.114 213.112Z" fill="#DD9183"/>
<path d="M142.093 209.651C142.092 209.706 141.378 209.753 140.223 209.745C139.069 209.738 137.473 209.666 135.719 209.491C133.965 209.313 132.387 209.066 131.253 208.843C130.121 208.62 129.43 208.432 129.441 208.378C129.452 208.319 130.16 208.405 131.301 208.552C132.441 208.7 134.016 208.9 135.761 209.075C137.505 209.251 139.087 209.368 140.234 209.451C141.382 209.534 142.093 209.591 142.093 209.651Z" fill="#263238"/>
<path d="M144.52 206.637C144.535 206.688 143.803 206.966 142.583 207.297C141.364 207.627 139.651 207.993 137.734 208.222C135.817 208.448 134.066 208.495 132.802 208.458C131.538 208.422 130.762 208.322 130.766 208.27C130.768 208.209 131.547 208.203 132.802 208.164C134.056 208.125 135.786 208.033 137.685 207.808C139.582 207.582 141.286 207.266 142.515 207.01C143.744 206.754 144.503 206.577 144.52 206.637Z" fill="#263238"/>
<path d="M156.452 193.18C156.508 193.192 156.416 193.883 156.21 194.989C156.004 196.096 155.68 197.616 155.271 199.283C154.861 200.951 154.446 202.449 154.117 203.525C153.788 204.602 153.55 205.257 153.495 205.242C153.439 205.226 153.577 204.544 153.832 203.449C154.135 202.201 154.483 200.767 154.866 199.185C155.258 197.605 155.613 196.173 155.923 194.926C156.202 193.837 156.396 193.168 156.452 193.18Z" fill="#263238"/>
<path d="M121.486 211.075C121.455 211.186 119.009 210.616 116.022 209.801C113.034 208.985 110.637 208.235 110.667 208.123C110.698 208.012 113.143 208.583 116.131 209.398C119.118 210.214 121.516 210.965 121.486 211.075Z" fill="#263238"/>
<path d="M158.86 186.516C158.86 186.535 158.531 186.57 157.942 186.511C157.355 186.451 156.497 186.315 155.502 185.93C154.507 185.557 153.376 184.934 152.319 183.991C151.262 183.053 150.318 181.762 149.715 180.243C149.103 178.724 148.902 177.142 148.998 175.733C149.091 174.327 149.464 173.055 150.094 172.165C150.717 171.263 151.543 170.826 152.118 170.675C152.41 170.597 152.645 170.579 152.802 170.583C152.959 170.587 153.04 170.604 153.04 170.617C153.042 170.656 152.708 170.638 152.167 170.829C151.636 171.019 150.889 171.468 150.338 172.33C149.25 174.042 148.946 177.167 150.103 180.089C150.683 181.55 151.575 182.79 152.578 183.708C153.581 184.631 154.659 185.26 155.613 185.657C157.534 186.454 158.874 186.427 158.86 186.516Z" fill="#263238"/>
<path d="M177.508 187.209C177.393 187.209 177.306 183.908 177.314 179.837C177.322 175.764 177.422 172.465 177.536 172.465C177.652 172.466 177.738 175.766 177.73 179.838C177.723 183.909 177.623 187.21 177.508 187.209Z" fill="#263238"/>
<path d="M148.159 170.642C148.246 168.856 148.434 166.839 148.434 166.839C148.434 166.839 152.848 166.353 153.116 161.792C153.384 157.231 153.116 146.715 153.116 146.715L145.075 142.621L136.23 149.601L137.57 172.402L145.709 172.919C146.992 173.001 148.094 171.979 148.159 170.642Z" fill="#FFBE9D"/>
<path d="M148.954 158.184C148.967 158.187 148.968 158.27 148.884 158.38C148.803 158.487 148.624 158.609 148.376 158.604C147.864 158.579 147.371 158.013 147.189 157.322C147.098 156.97 147.099 156.614 147.168 156.308C147.222 156.006 147.396 155.703 147.648 155.621C147.768 155.576 147.892 155.581 147.988 155.629C148.081 155.676 148.139 155.747 148.168 155.813C148.228 155.949 148.182 156.031 148.17 156.025C148.152 156.024 148.156 155.949 148.089 155.863C148.026 155.776 147.876 155.697 147.709 155.783C147.54 155.86 147.424 156.077 147.38 156.354C147.33 156.63 147.336 156.946 147.417 157.258C147.577 157.878 148.007 158.385 148.388 158.43C148.577 158.454 148.734 158.382 148.819 158.313C148.907 158.241 148.937 158.176 148.954 158.184Z" fill="#EB996E"/>
<path d="M155.857 144.253C155.243 142.154 153.011 141.111 150.977 140.535C147.884 139.658 144.532 139.27 141.51 140.383C138.488 141.496 134.852 143.453 134.853 146.792C133.069 146.645 132.05 148.208 131.342 150.145C130.924 151.289 130.648 152.563 130.584 153.824L130.554 153.815C130.324 158.185 129.107 164.207 126.273 167.44C124.708 169.224 122.456 170.457 121.544 172.68C120.751 174.612 121.161 176.896 120.412 178.846C119.75 180.568 118.285 181.79 117.235 183.288C114.948 186.55 114.792 191.159 116.472 194.8C118.153 198.44 121.484 201.104 125.18 202.325C128.877 203.546 132.904 203.412 136.667 202.432C139.444 201.709 142.147 200.512 144.36 198.62C146.574 196.728 148.272 194.099 148.779 191.163C149.342 187.895 148.428 184.576 147.755 181.331C145.627 171.063 146.235 170.529 148.92 161.004C148.981 160.836 149.019 160.661 149.065 160.488C149.1 160.362 149.135 160.241 149.171 160.112L149.165 160.11C149.24 159.737 149.289 159.358 149.291 158.971C148.513 159.277 147.574 159.073 146.977 158.47C146.381 157.867 146.159 156.894 146.43 156.076C146.742 155.134 147.606 154.505 148.493 154.132C149.38 153.758 150.335 153.573 151.206 153.16C153.053 152.28 154.334 150.456 155.205 148.545C155.817 147.205 156.272 145.671 155.857 144.253Z" fill="#263238"/>
<path d="M149.27 158.379C149.298 158.367 149.454 158.665 149.691 159.17C149.929 159.674 150.247 160.387 150.602 161.206L150.668 161.362L150.498 161.376C150.232 161.399 149.962 161.422 149.684 161.446C149.126 161.482 148.66 161.55 148.119 161.544C148.034 161.529 147.938 161.45 147.913 161.362C147.884 161.276 147.892 161.203 147.901 161.14C147.924 161.014 147.952 160.922 147.976 160.815L148.118 160.249C148.294 159.558 148.421 159.134 148.454 159.142C148.488 159.15 148.422 159.587 148.29 160.287L148.178 160.859C148.138 161.053 148.067 161.342 148.171 161.319C148.57 161.302 149.137 161.236 149.663 161.197C149.942 161.174 150.211 161.154 150.478 161.132L150.375 161.302C150.033 160.478 149.742 159.753 149.544 159.231C149.348 158.71 149.242 158.391 149.27 158.379Z" fill="#DD9183"/>
<path d="M121.884 225.738L157.356 224.656L172.784 284.927L169.942 354.063H151.167L153.494 286.399L139.772 244.443L141.886 356.743L122.931 357.023L120.934 251.465C120.851 248.531 119.886 241.912 120.245 239.002L121.884 225.738Z" fill="#263238"/>
<path d="M144.497 245.295C144.489 245.351 143.824 245.318 142.757 245.192C141.689 245.067 140.221 244.841 138.613 244.519C137.005 244.195 135.565 243.835 134.532 243.537C133.499 243.239 132.873 243.015 132.887 242.959C132.919 242.843 135.494 243.468 138.696 244.11C141.895 244.757 144.512 245.176 144.497 245.295Z" fill="#455A64"/>
<path d="M169.772 350.271C169.772 350.387 165.52 350.479 160.279 350.479C155.035 350.479 150.785 350.387 150.785 350.271C150.785 350.156 155.035 350.062 160.279 350.062C165.52 350.063 169.772 350.156 169.772 350.271Z" fill="#455A64"/>
<path d="M141.717 353.825C141.717 353.941 137.594 354.034 132.507 354.034C127.42 354.034 123.297 353.941 123.297 353.825C123.297 353.71 127.42 353.617 132.507 353.617C137.594 353.617 141.717 353.71 141.717 353.825Z" fill="#455A64"/>
<path d="M139.275 353.539C139.16 353.541 138.661 329.002 138.161 298.737C137.661 268.461 137.349 243.923 137.464 243.922C137.58 243.92 138.078 268.454 138.578 298.73C139.078 328.995 139.39 353.537 139.275 353.539Z" fill="#455A64"/>
<path d="M167.25 350.27C167.243 350.27 167.24 350.159 167.241 349.944C167.245 349.708 167.252 349.391 167.259 348.985C167.284 348.121 167.32 346.884 167.365 345.302C167.477 342.082 167.637 337.46 167.836 331.757C168.273 320.304 168.877 304.516 169.544 287.078C169.551 286.917 169.557 286.756 169.563 286.607L169.569 286.666C165.365 269.832 161.565 254.616 158.81 243.584C157.458 238.089 156.363 233.636 155.6 230.533C155.233 229.009 154.948 227.816 154.748 226.982C154.658 226.591 154.588 226.285 154.536 226.057C154.491 225.847 154.471 225.74 154.478 225.738C154.484 225.737 154.518 225.842 154.577 226.047C154.639 226.272 154.722 226.576 154.828 226.963C155.047 227.793 155.358 228.979 155.756 230.496C156.55 233.589 157.688 238.031 159.094 243.513C161.88 254.537 165.722 269.743 169.972 286.565L169.98 286.594L169.979 286.625C169.973 286.773 169.966 286.934 169.96 287.095C169.246 304.531 168.599 320.316 168.129 331.769C167.876 337.469 167.67 342.089 167.527 345.309C167.447 346.889 167.385 348.125 167.342 348.989C167.317 349.394 167.298 349.711 167.284 349.946C167.268 350.161 167.257 350.271 167.25 350.27Z" fill="#455A64"/>
<path d="M161.131 285.201C161.151 285.315 159.294 285.728 156.983 286.124C155.259 286.421 153.769 286.624 153.119 286.661L153.118 286.499C153.334 286.558 153.45 286.604 153.445 286.633C153.441 286.662 153.315 286.671 153.092 286.661L152.607 286.64L153.091 286.499C153.717 286.316 155.189 286.011 156.914 285.715C159.223 285.317 161.111 285.087 161.131 285.201Z" fill="#455A64"/>
<path d="M160.772 287.501C160.756 287.617 159.089 287.488 157.037 287.33C154.985 287.169 153.319 287.038 153.321 286.92C153.324 286.806 155.004 286.752 157.07 286.914C159.134 287.074 160.787 287.389 160.772 287.501Z" fill="#455A64"/>
<path opacity="0.2" d="M121.727 227.012C122.584 228.219 123.807 228.643 125.229 228.875C126.65 229.108 128.1 228.953 129.531 228.794C138.687 227.778 148.389 226.841 157.356 224.656C145.749 225.307 133.491 225.087 121.884 225.738C121.884 225.738 121.785 226.536 121.762 226.728" fill="black"/>
<g opacity="0.2">
<path d="M133.691 243.371L140.231 268.757L139.773 244.441L133.691 243.371Z" fill="black"/>
</g>
</svg>
