<svg width="24" height="24" viewBox="0 0 24 24" fill="none" xmlns="http://www.w3.org/2000/svg">
<g id="Social icon" clip-path="url(#clip0_439_4331)">
<path id="Vector" d="M23.999 12C23.999 5.37258 18.6264 0 11.999 0C5.3716 0 -0.000976562 5.37258 -0.000976562 12C-0.000976562 17.9895 4.38723 22.954 10.124 23.8542V15.4688H7.07715V12H10.124V9.35625C10.124 6.34875 11.9156 4.6875 14.6566 4.6875C15.9691 4.6875 17.3428 4.92188 17.3428 4.92188V7.875H15.8296C14.339 7.875 13.874 8.80008 13.874 9.75V12H17.2021L16.6701 15.4688H13.874V23.8542C19.6108 22.954 23.999 17.9895 23.999 12Z" fill="white"/>
</g>
<defs>
<clipPath id="clip0_439_4331">
<rect width="24" height="24" fill="white" transform="translate(-0.000976562)"/>
</clipPath>
</defs>
</svg>
