<svg width="12" height="12" viewBox="0 0 12 12" fill="none" xmlns="http://www.w3.org/2000/svg">
<g id="ant-design:star-filled">
<path id="Vector" d="M10.642 4.13829L7.66664 3.70586L6.33656 1.00938C6.30024 0.935551 6.24047 0.875786 6.16664 0.839457C5.98149 0.748051 5.75649 0.824223 5.66391 1.00938L4.33383 3.70586L1.35844 4.13829C1.27641 4.15 1.20141 4.18868 1.14399 4.24727C1.07457 4.31862 1.03631 4.41461 1.03763 4.51415C1.03895 4.6137 1.07973 4.70864 1.15102 4.77813L3.30375 6.87696L2.79516 9.84063C2.78323 9.90957 2.79086 9.98047 2.81718 10.0453C2.8435 10.1101 2.88746 10.1663 2.94407 10.2074C3.00068 10.2485 3.06767 10.2729 3.13746 10.2779C3.20725 10.2829 3.27704 10.2682 3.33891 10.2355L6.00024 8.83633L8.66156 10.2355C8.73422 10.2742 8.8186 10.2871 8.89946 10.273C9.10336 10.2379 9.24047 10.0445 9.20531 9.84063L8.69672 6.87696L10.8495 4.77813C10.908 4.72071 10.9467 4.64571 10.9584 4.56368C10.9901 4.3586 10.8471 4.16875 10.642 4.13829Z" fill="#1C1C1E"/>
</g>
</svg>
