<svg width="20" height="20" viewBox="0 0 20 20" fill="none" xmlns="http://www.w3.org/2000/svg">
<g id="Social icon">
<path id="Vector" d="M6.2918 18.1256C13.8371 18.1256 17.9652 11.8729 17.9652 6.45216C17.9652 6.27638 17.9613 6.09669 17.9535 5.92091C18.7566 5.34016 19.4496 4.62082 20 3.79669C19.2521 4.12944 18.458 4.34676 17.6449 4.44122C18.5011 3.92803 19.1421 3.12184 19.4492 2.17208C18.6438 2.64941 17.763 2.98612 16.8445 3.16779C16.2257 2.51024 15.4075 2.07487 14.5164 1.92899C13.6253 1.7831 12.711 1.93482 11.9148 2.36069C11.1186 2.78656 10.4848 3.46286 10.1115 4.28504C9.73825 5.10721 9.64619 6.02946 9.84961 6.90919C8.21874 6.82735 6.62328 6.4037 5.16665 5.66569C3.71002 4.92769 2.42474 3.89181 1.39414 2.62521C0.870333 3.52831 0.710047 4.59698 0.945859 5.61402C1.18167 6.63106 1.79589 7.52015 2.66367 8.1006C2.01219 8.07991 1.37498 7.90451 0.804688 7.58888V7.63966C0.804104 8.5874 1.13175 9.5061 1.73192 10.2396C2.3321 10.9731 3.16777 11.4761 4.09687 11.6631C3.49338 11.8282 2.85999 11.8523 2.2457 11.7334C2.50788 12.5485 3.01798 13.2614 3.70481 13.7726C4.39164 14.2838 5.22093 14.5678 6.07695 14.585C4.62369 15.7265 2.82848 16.3457 0.980469 16.3428C0.652739 16.3423 0.325333 16.3222 0 16.2826C1.87738 17.4871 4.06128 18.1268 6.2918 18.1256Z" fill="#98A2B3"/>
</g>
</svg>
